<svg width="632" height="203" viewBox="0 0 632 203" fill="none" xmlns="http://www.w3.org/2000/svg">
<g filter="url(#filter0_d_3_2)">
<mask id="path-1-outside-1_3_2" maskUnits="userSpaceOnUse" x="11.0094" y="5.03998" width="610" height="113" fill="black">
<rect fill="white" x="11.0094" y="5.03998" width="610" height="113"/>
<path d="M17.0494 110.08C15.6894 110.08 15.0094 109.44 15.0094 108.16C15.0094 107.68 15.0494 107.36 15.1294 107.2C18.0894 100.72 26.1294 91.04 39.2494 78.16C38.8494 78.24 38.4894 78.32 38.1694 78.4C37.8494 78.4 37.6094 78.4 37.4494 78.4C36.0894 78.4 35.4094 77.64 35.4094 76.12C35.4094 75.24 36.0894 74.68 37.4494 74.44C38.2494 74.28 39.0894 74.16 39.9694 74.08C40.9294 73.92 42.1294 73.68 43.5694 73.36C53.2494 63.28 62.5694 54.64 71.5294 47.44C80.5694 40.16 89.2094 34.2 97.4494 29.56C98.1694 29.16 98.8094 28.84 99.3694 28.6C99.9294 28.28 100.409 28.12 100.809 28.12C101.769 28.12 102.249 28.76 102.249 30.04C102.249 32.44 99.8494 40.68 95.0494 54.76L89.7694 70.24C91.8494 70.24 92.8894 70.88 92.8894 72.16C92.8894 73.6 91.5294 74.32 88.8094 74.32C87.2894 78.48 85.8494 83.08 84.4894 88.12C83.2094 93.08 82.1294 98.2 81.2494 103.48C80.9294 105.16 80.2094 106 79.0894 106C77.7294 106 77.0494 105.28 77.0494 103.84C77.0494 103.6 77.1294 103.08 77.2894 102.28C77.4494 101.48 77.6894 100.44 78.0094 99.16C78.9694 94.52 79.8094 90.68 80.5294 87.64C81.3294 84.6 82.0094 82.04 82.5694 79.96C83.2094 77.8 83.7694 75.84 84.2494 74.08C69.5294 74.4 56.5694 75.48 45.3694 77.32C42.1694 80.6 39.4894 83.4 37.3294 85.72C35.1694 87.96 33.5694 89.64 32.5294 90.76C27.7294 96.04 23.8894 100.84 21.0094 105.16C20.7694 105.56 20.4894 106.08 20.1694 106.72C19.7694 107.36 19.2894 108.12 18.7294 109C18.4094 109.72 17.8494 110.08 17.0494 110.08ZM50.2894 72.4C54.9294 71.76 60.1694 71.28 66.0094 70.96C71.8494 70.56 78.4094 70.28 85.6894 70.12C86.8894 66.44 88.0894 62.88 89.2894 59.44C90.4894 55.92 91.6494 52.56 92.7694 49.36C94.1294 45.84 95.9294 40.56 98.1694 33.52C88.8894 38.88 80.2494 44.8 72.2494 51.28C64.3294 57.76 57.0094 64.8 50.2894 72.4Z"/>
<path d="M142.687 113.68C142.047 113.68 141.247 113.36 140.287 112.72C139.407 112.16 138.727 111.6 138.247 111.04C137.287 109.84 136.647 108.4 136.327 106.72C136.007 105.04 135.847 103.2 135.847 101.2C135.847 99.52 135.887 97.72 135.967 95.8C136.127 93.8 136.367 91.68 136.687 89.44C134.607 91.84 132.247 94.2 129.607 96.52C127.047 98.76 124.407 100.6 121.687 102.04C119.047 103.48 116.527 104.2 114.127 104.2C108.127 104.2 105.127 101 105.127 94.6C105.127 87.96 107.447 81.56 112.087 75.4C114.407 72.36 117.047 69.44 120.007 66.64C122.967 63.84 126.087 61.56 129.367 59.8C132.647 58.04 135.887 57.16 139.087 57.16C141.487 57.16 143.607 58.08 145.447 59.92C145.607 59.6 145.807 59.08 146.047 58.36C146.367 57.64 146.807 56.72 147.367 55.6C149.287 51.44 151.407 47.12 153.727 42.64C156.047 38.08 158.127 34.32 159.967 31.36C162.047 28.08 164.007 26.44 165.847 26.44C167.127 26.44 167.767 27.44 167.767 29.44C167.767 32.88 164.527 40.92 158.047 53.56C157.647 54.28 156.927 55.6 155.887 57.52C154.927 59.36 153.767 61.52 152.407 64C151.127 66.4 149.807 68.8 148.447 71.2C147.087 73.6 145.847 75.76 144.727 77.68C143.687 79.52 142.927 80.8 142.447 81.52C141.567 85.12 140.887 88.56 140.407 91.84C139.927 95.04 139.687 98.36 139.687 101.8C139.687 103.08 139.727 104.24 139.807 105.28C139.967 106.4 140.287 107.28 140.767 107.92C141.167 108.4 141.607 108.76 142.087 109C142.567 109.32 143.127 109.6 143.767 109.84C144.727 110.08 145.207 110.64 145.207 111.52C145.207 112.96 144.367 113.68 142.687 113.68ZM148.327 63.52C151.367 58.32 154.047 53.48 156.367 49C158.687 44.44 160.567 40.16 162.007 36.16C158.807 40.32 156.127 44.72 153.967 49.36C151.807 54 149.927 58.72 148.327 63.52ZM113.287 100.6C115.607 100.6 118.047 99.84 120.607 98.32C123.247 96.72 125.727 94.84 128.047 92.68C130.127 90.76 132.047 88.8 133.807 86.8C135.567 84.72 137.207 82.6 138.727 80.44C139.367 77.64 140.087 74.88 140.887 72.16C141.767 69.44 142.727 66.72 143.767 64C142.487 62 140.687 61 138.367 61C135.967 61 133.287 61.92 130.327 63.76C127.447 65.52 124.647 67.72 121.927 70.36C119.287 73 117.007 75.52 115.087 77.92C111.087 83.28 109.087 88.96 109.087 94.96C109.087 98.72 110.487 100.6 113.287 100.6Z"/>
<path d="M159.243 104.2C154.603 104.2 152.283 102 152.283 97.6C152.283 94.72 152.963 91.64 154.323 88.36C155.763 85 157.683 81.76 160.083 78.64C162.483 75.44 165.163 72.56 168.123 70C171.083 67.36 174.123 65.28 177.243 63.76C180.363 62.16 183.363 61.36 186.243 61.36C191.363 61.36 193.923 63.88 193.923 68.92C193.923 72.2 193.123 73.84 191.523 73.84C190.083 73.84 189.363 73.16 189.363 71.8C189.363 71.24 189.483 70.68 189.723 70.12C190.043 69.48 190.203 68.8 190.203 68.08C190.203 65.84 188.683 64.72 185.643 64.72C180.763 64.72 174.643 68.44 167.283 75.88C165.523 77.72 163.803 79.88 162.123 82.36C160.443 84.84 159.043 87.36 157.923 89.92C156.883 92.4 156.363 94.76 156.363 97C156.363 99.16 157.563 100.24 159.963 100.24C162.043 100.24 164.243 99.6 166.563 98.32C168.963 97.04 171.043 95.72 172.803 94.36C176.323 91.72 179.923 88.12 183.603 83.56C184.163 82.92 184.883 82.08 185.763 81.04C186.643 80 187.643 78.84 188.763 77.56C189.163 77.16 189.643 76.96 190.203 76.96C191.483 76.96 192.123 77.6 192.123 78.88L187.563 85.72C184.523 90.2 183.003 93.88 183.003 96.76C183.003 98.84 184.003 99.88 186.003 99.88C187.683 99.88 189.523 99.44 191.523 98.56C193.523 97.68 195.163 96.8 196.443 95.92C199.003 94.24 201.683 92.16 204.483 89.68C207.283 87.12 209.963 84.56 212.523 82C212.843 81.68 213.323 81.52 213.963 81.52C215.163 81.52 215.763 82 215.763 82.96C215.763 83.84 215.203 84.84 214.083 85.96C210.883 89.16 208.003 91.92 205.443 94.24C202.883 96.48 200.443 98.32 198.123 99.76C196.603 100.64 194.723 101.56 192.483 102.52C190.243 103.48 187.683 103.96 184.803 103.96C180.883 103.96 178.923 101.88 178.923 97.72C178.923 96.12 179.123 94.8 179.523 93.76C172.243 100.72 165.483 104.2 159.243 104.2Z"/>
<path d="M238.237 108.16C237.677 108.16 237.037 107.88 236.317 107.32C235.597 106.76 235.237 106.16 235.237 105.52C235.237 104.8 236.037 102.96 237.637 100C239.237 97.04 241.797 92.6 245.317 86.68C248.837 80.76 253.437 73.08 259.117 63.64L274.837 37.36C275.717 35.76 276.797 33.88 278.077 31.72C279.357 29.56 280.917 27 282.757 24.04C283.237 23.32 283.757 22.96 284.317 22.96C284.877 22.96 285.437 23.24 285.997 23.8C286.557 24.28 286.837 24.8 286.837 25.36C286.837 25.68 284.837 29.24 280.837 36.04C276.837 42.76 270.797 52.8 262.717 66.16C259.677 71.2 256.357 76.76 252.757 82.84C249.237 88.92 245.477 95.52 241.477 102.64C264.677 96.4 282.517 93.28 294.997 93.28C298.757 93.28 301.877 93.92 304.357 95.2C306.917 96.4 308.197 97.6 308.197 98.8C308.197 100.16 307.517 100.84 306.157 100.84C305.037 100.84 304.477 100.24 304.477 99.04V98.68C303.677 98.28 302.317 97.96 300.397 97.72C298.477 97.48 296.277 97.36 293.797 97.36C290.757 97.36 287.317 97.64 283.477 98.2C279.637 98.68 275.717 99.32 271.717 100.12C267.797 100.84 264.117 101.6 260.677 102.4C257.317 103.12 254.117 103.88 251.077 104.68C248.117 105.56 245.357 106.32 242.797 106.96C241.277 107.28 240.157 107.56 239.437 107.8C238.797 108.04 238.397 108.16 238.237 108.16Z"/>
<path d="M326.811 102.4C320.331 102.4 317.091 98.76 317.091 91.48C317.091 88.12 317.891 84.6 319.491 80.92C321.091 77.24 323.211 73.84 325.851 70.72C328.491 67.52 331.411 64.92 334.611 62.92C337.891 60.92 341.211 59.92 344.571 59.92C347.531 59.92 349.691 61.04 351.051 63.28C352.411 65.52 353.091 68 353.091 70.72C353.091 74.32 352.371 78 350.931 81.76C349.491 85.44 347.531 88.84 345.051 91.96C342.571 95.08 339.771 97.6 336.651 99.52C333.531 101.44 330.251 102.4 326.811 102.4ZM326.691 98.56C327.171 98.56 327.451 98.52 327.531 98.44C330.651 98.04 333.531 96.92 336.171 95.08C338.811 93.24 341.091 90.96 343.011 88.24C345.011 85.44 346.531 82.44 347.571 79.24C348.611 76.04 349.131 72.88 349.131 69.76C349.131 67.92 348.611 66.48 347.571 65.44C346.531 64.4 345.211 63.88 343.611 63.88C341.291 63.88 338.811 64.84 336.171 66.76C333.611 68.68 331.171 71.12 328.851 74.08C326.611 77.04 324.771 80.16 323.331 83.44C321.891 86.64 321.171 89.52 321.171 92.08C321.171 96.4 323.011 98.56 326.691 98.56Z"/>
<path d="M364.012 104.2C363.052 104.2 362.572 103.84 362.572 103.12C361.292 100.88 360.652 96.28 360.652 89.32C360.652 87.64 360.772 85.4 361.012 82.6C361.252 79.8 361.572 76.88 361.972 73.84C362.372 70.8 362.812 68.04 363.292 65.56C363.772 63 364.292 61.16 364.852 60.04C365.332 59.08 365.932 58.6 366.652 58.6C367.932 58.6 368.572 59.12 368.572 60.16C368.572 60.72 368.492 61.28 368.332 61.84C368.172 62.32 368.012 62.92 367.852 63.64C366.812 67.64 365.972 71.88 365.332 76.36C364.772 80.84 364.492 85.44 364.492 90.16C364.492 92.32 364.572 94.24 364.732 95.92C364.972 97.6 365.212 99.04 365.452 100.24C367.692 99.36 370.172 97.64 372.892 95.08C375.612 92.44 378.252 89.52 380.812 86.32C382.892 83.68 384.772 81 386.452 78.28C388.212 75.56 389.572 73 390.532 70.6C391.572 68.2 392.092 66.24 392.092 64.72C392.092 63.68 391.972 62.96 391.732 62.56C391.572 62.16 391.372 61.84 391.132 61.6C390.892 61.36 390.772 60.92 390.772 60.28C390.772 59.08 391.372 58.48 392.572 58.48C393.372 58.48 394.092 59.08 394.732 60.28C395.372 61.48 395.692 63 395.692 64.84C395.692 70.52 391.732 78.48 383.812 88.72C375.652 99.04 369.052 104.2 364.012 104.2Z"/>
<path d="M407.841 105.16C404.481 105.16 401.841 104 399.921 101.68C398.001 99.36 397.041 96.52 397.041 93.16C397.041 87.4 398.961 81.48 402.801 75.4C403.841 73.72 405.041 72.08 406.401 70.48C407.761 68.8 409.241 67.2 410.841 65.68C413.241 63.36 415.761 61.44 418.401 59.92C421.041 58.4 423.601 57.64 426.081 57.64C430.161 57.64 432.201 59.56 432.201 63.4C432.201 68.2 429.401 72.56 423.801 76.48C418.601 80 413.481 81.76 408.441 81.76C407.561 81.76 406.761 81.72 406.041 81.64C405.401 81.48 404.801 81.32 404.241 81.16C403.441 82.68 402.721 84.64 402.081 87.04C401.441 89.44 401.121 91.52 401.121 93.28C401.121 98.56 403.441 101.2 408.081 101.2C411.841 101.2 415.401 100.56 418.761 99.28C422.121 97.92 426.121 95.4 430.761 91.72C433.641 89.48 435.801 87.68 437.241 86.32C438.681 84.96 440.241 83.52 441.921 82C442.401 81.68 442.841 81.52 443.241 81.52C443.641 81.52 444.041 81.64 444.441 81.88C444.841 82.12 445.041 82.48 445.041 82.96C445.041 83.84 444.241 85.08 442.641 86.68C441.281 87.96 439.841 89.32 438.321 90.76C436.801 92.12 434.401 94.04 431.121 96.52C427.601 99.24 423.761 101.36 419.601 102.88C415.441 104.4 411.521 105.16 407.841 105.16ZM407.721 77.92C410.281 77.92 412.721 77.52 415.041 76.72C417.361 75.92 419.561 74.76 421.641 73.24C426.281 69.8 428.601 66.56 428.601 63.52C428.601 62.16 427.761 61.48 426.081 61.48C422.881 61.48 419.161 63.44 414.921 67.36C412.841 69.28 411.121 71.04 409.761 72.64C408.481 74.16 407.281 75.84 406.161 77.68C406.641 77.84 407.161 77.92 407.721 77.92Z"/>
<path d="M451.108 106.24C447.428 106.24 444.588 105.12 442.588 102.88C440.668 100.56 439.708 97.52 439.708 93.76C439.708 91.04 440.188 87.76 441.148 83.92C442.828 77.44 445.668 69.92 449.668 61.36C452.788 54.88 456.148 48.52 459.748 42.28C463.348 35.96 467.308 29.76 471.628 23.68C478.508 13.92 483.308 9.03998 486.028 9.03998C487.788 9.03998 488.668 9.51998 488.668 10.48C488.668 11.84 486.428 15.24 481.948 20.68L473.548 30.88C466.268 39.68 460.308 48.68 455.668 57.88C451.108 67.08 447.548 76.28 444.988 85.48C444.268 88.12 443.908 90.6 443.908 92.92C443.908 99 446.388 102.04 451.348 102.04C453.108 102.04 454.908 101.52 456.748 100.48C458.588 99.52 459.588 99.04 459.748 99.04C460.708 99.04 461.188 99.72 461.188 101.08C461.188 102.28 460.748 103.2 459.868 103.84C457.148 105.44 454.228 106.24 451.108 106.24Z"/>
<path d="M473.54 104.2C468.9 104.2 466.58 102 466.58 97.6C466.58 94.72 467.26 91.64 468.62 88.36C470.06 85 471.98 81.76 474.38 78.64C476.78 75.44 479.46 72.56 482.42 70C485.38 67.36 488.42 65.28 491.54 63.76C494.66 62.16 497.66 61.36 500.54 61.36C505.66 61.36 508.22 63.88 508.22 68.92C508.22 72.2 507.42 73.84 505.82 73.84C504.38 73.84 503.66 73.16 503.66 71.8C503.66 71.24 503.78 70.68 504.02 70.12C504.34 69.48 504.5 68.8 504.5 68.08C504.5 65.84 502.98 64.72 499.94 64.72C495.06 64.72 488.94 68.44 481.58 75.88C479.82 77.72 478.1 79.88 476.42 82.36C474.74 84.84 473.34 87.36 472.22 89.92C471.18 92.4 470.66 94.76 470.66 97C470.66 99.16 471.86 100.24 474.26 100.24C476.34 100.24 478.54 99.6 480.86 98.32C483.26 97.04 485.34 95.72 487.1 94.36C490.62 91.72 494.22 88.12 497.9 83.56C498.46 82.92 499.18 82.08 500.06 81.04C500.94 80 501.94 78.84 503.06 77.56C503.46 77.16 503.94 76.96 504.5 76.96C505.78 76.96 506.42 77.6 506.42 78.88L501.86 85.72C498.82 90.2 497.3 93.88 497.3 96.76C497.3 98.84 498.3 99.88 500.3 99.88C501.98 99.88 503.82 99.44 505.82 98.56C507.82 97.68 509.46 96.8 510.74 95.92C513.3 94.24 515.98 92.16 518.78 89.68C521.58 87.12 524.26 84.56 526.82 82C527.14 81.68 527.62 81.52 528.26 81.52C529.46 81.52 530.06 82 530.06 82.96C530.06 83.84 529.5 84.84 528.38 85.96C525.18 89.16 522.3 91.92 519.74 94.24C517.18 96.48 514.74 98.32 512.42 99.76C510.9 100.64 509.02 101.56 506.78 102.52C504.54 103.48 501.98 103.96 499.1 103.96C495.18 103.96 493.22 101.88 493.22 97.72C493.22 96.12 493.42 94.8 493.82 93.76C486.54 100.72 479.78 104.2 473.54 104.2Z"/>
<path d="M537.632 104.68C533.392 104.68 530.072 103.44 527.672 100.96C525.272 98.48 524.072 95.16 524.072 91C524.072 83.8 527.472 75.96 534.272 67.48C537.792 63.16 541.352 59.88 544.952 57.64C548.632 55.32 552.072 54.16 555.272 54.16C558.072 54.16 560.232 55.12 561.752 57.04C563.272 58.96 564.032 61.36 564.032 64.24C564.032 66 563.792 67.8 563.312 69.64C562.992 70.92 562.352 71.56 561.392 71.56C559.872 71.56 559.112 70.72 559.112 69.04C559.112 68.32 559.232 67.4 559.472 66.28C559.792 65.08 559.952 63.92 559.952 62.8C559.952 59.6 558.392 58 555.272 58C553.592 58 551.552 58.6 549.152 59.8C546.832 61 544.512 62.6 542.192 64.6C539.872 66.52 537.832 68.72 536.072 71.2C530.712 78.48 528.032 85 528.032 90.76C528.032 97.4 531.032 100.72 537.032 100.72C540.792 100.72 544.392 100.16 547.832 99.04C551.272 97.84 555.312 95.4 559.952 91.72C562.832 89.48 564.992 87.68 566.432 86.32C567.872 84.96 569.432 83.52 571.112 82C571.592 81.68 572.032 81.52 572.432 81.52C572.832 81.52 573.232 81.64 573.632 81.88C574.032 82.12 574.232 82.48 574.232 82.96C574.232 83.84 573.432 85.08 571.832 86.68C570.472 87.96 569.032 89.32 567.512 90.76C565.992 92.12 563.592 94.04 560.312 96.52C556.792 99.24 553.032 101.28 549.032 102.64C545.112 104 541.312 104.68 537.632 104.68Z"/>
<path d="M579.403 105.16C576.043 105.16 573.403 104 571.483 101.68C569.563 99.36 568.603 96.52 568.603 93.16C568.603 87.4 570.523 81.48 574.363 75.4C575.403 73.72 576.603 72.08 577.963 70.48C579.323 68.8 580.803 67.2 582.403 65.68C584.803 63.36 587.323 61.44 589.963 59.92C592.603 58.4 595.163 57.64 597.643 57.64C601.723 57.64 603.763 59.56 603.763 63.4C603.763 68.2 600.963 72.56 595.363 76.48C590.163 80 585.043 81.76 580.003 81.76C579.123 81.76 578.323 81.72 577.603 81.64C576.963 81.48 576.363 81.32 575.803 81.16C575.003 82.68 574.283 84.64 573.643 87.04C573.003 89.44 572.683 91.52 572.683 93.28C572.683 98.56 575.003 101.2 579.643 101.2C583.403 101.2 586.963 100.56 590.323 99.28C593.683 97.92 597.683 95.4 602.323 91.72C605.203 89.48 607.363 87.68 608.803 86.32C610.243 84.96 611.803 83.52 613.483 82C613.963 81.68 614.403 81.52 614.803 81.52C615.203 81.52 615.603 81.64 616.003 81.88C616.403 82.12 616.603 82.48 616.603 82.96C616.603 83.84 615.803 85.08 614.203 86.68C612.843 87.96 611.403 89.32 609.883 90.76C608.363 92.12 605.963 94.04 602.683 96.52C599.163 99.24 595.323 101.36 591.163 102.88C587.003 104.4 583.083 105.16 579.403 105.16ZM579.283 77.92C581.843 77.92 584.283 77.52 586.603 76.72C588.923 75.92 591.123 74.76 593.203 73.24C597.843 69.8 600.163 66.56 600.163 63.52C600.163 62.16 599.323 61.48 597.643 61.48C594.443 61.48 590.723 63.44 586.483 67.36C584.403 69.28 582.683 71.04 581.323 72.64C580.043 74.16 578.843 75.84 577.723 77.68C578.203 77.84 578.723 77.92 579.283 77.92Z"/>
</mask>
<path d="M17.0494 110.08C15.6894 110.08 15.0094 109.44 15.0094 108.16C15.0094 107.68 15.0494 107.36 15.1294 107.2C18.0894 100.72 26.1294 91.04 39.2494 78.16C38.8494 78.24 38.4894 78.32 38.1694 78.4C37.8494 78.4 37.6094 78.4 37.4494 78.4C36.0894 78.4 35.4094 77.64 35.4094 76.12C35.4094 75.24 36.0894 74.68 37.4494 74.44C38.2494 74.28 39.0894 74.16 39.9694 74.08C40.9294 73.92 42.1294 73.68 43.5694 73.36C53.2494 63.28 62.5694 54.64 71.5294 47.44C80.5694 40.16 89.2094 34.2 97.4494 29.56C98.1694 29.16 98.8094 28.84 99.3694 28.6C99.9294 28.28 100.409 28.12 100.809 28.12C101.769 28.12 102.249 28.76 102.249 30.04C102.249 32.44 99.8494 40.68 95.0494 54.76L89.7694 70.24C91.8494 70.24 92.8894 70.88 92.8894 72.16C92.8894 73.6 91.5294 74.32 88.8094 74.32C87.2894 78.48 85.8494 83.08 84.4894 88.12C83.2094 93.08 82.1294 98.2 81.2494 103.48C80.9294 105.16 80.2094 106 79.0894 106C77.7294 106 77.0494 105.28 77.0494 103.84C77.0494 103.6 77.1294 103.08 77.2894 102.28C77.4494 101.48 77.6894 100.44 78.0094 99.16C78.9694 94.52 79.8094 90.68 80.5294 87.64C81.3294 84.6 82.0094 82.04 82.5694 79.96C83.2094 77.8 83.7694 75.84 84.2494 74.08C69.5294 74.4 56.5694 75.48 45.3694 77.32C42.1694 80.6 39.4894 83.4 37.3294 85.72C35.1694 87.96 33.5694 89.64 32.5294 90.76C27.7294 96.04 23.8894 100.84 21.0094 105.16C20.7694 105.56 20.4894 106.08 20.1694 106.72C19.7694 107.36 19.2894 108.12 18.7294 109C18.4094 109.72 17.8494 110.08 17.0494 110.08ZM50.2894 72.4C54.9294 71.76 60.1694 71.28 66.0094 70.96C71.8494 70.56 78.4094 70.28 85.6894 70.12C86.8894 66.44 88.0894 62.88 89.2894 59.44C90.4894 55.92 91.6494 52.56 92.7694 49.36C94.1294 45.84 95.9294 40.56 98.1694 33.52C88.8894 38.88 80.2494 44.8 72.2494 51.28C64.3294 57.76 57.0094 64.8 50.2894 72.4Z" fill="white"/>
<path d="M142.687 113.68C142.047 113.68 141.247 113.36 140.287 112.72C139.407 112.16 138.727 111.6 138.247 111.04C137.287 109.84 136.647 108.4 136.327 106.72C136.007 105.04 135.847 103.2 135.847 101.2C135.847 99.52 135.887 97.72 135.967 95.8C136.127 93.8 136.367 91.68 136.687 89.44C134.607 91.84 132.247 94.2 129.607 96.52C127.047 98.76 124.407 100.6 121.687 102.04C119.047 103.48 116.527 104.2 114.127 104.2C108.127 104.2 105.127 101 105.127 94.6C105.127 87.96 107.447 81.56 112.087 75.4C114.407 72.36 117.047 69.44 120.007 66.64C122.967 63.84 126.087 61.56 129.367 59.8C132.647 58.04 135.887 57.16 139.087 57.16C141.487 57.16 143.607 58.08 145.447 59.92C145.607 59.6 145.807 59.08 146.047 58.36C146.367 57.64 146.807 56.72 147.367 55.6C149.287 51.44 151.407 47.12 153.727 42.64C156.047 38.08 158.127 34.32 159.967 31.36C162.047 28.08 164.007 26.44 165.847 26.44C167.127 26.44 167.767 27.44 167.767 29.44C167.767 32.88 164.527 40.92 158.047 53.56C157.647 54.28 156.927 55.6 155.887 57.52C154.927 59.36 153.767 61.52 152.407 64C151.127 66.4 149.807 68.8 148.447 71.2C147.087 73.6 145.847 75.76 144.727 77.68C143.687 79.52 142.927 80.8 142.447 81.52C141.567 85.12 140.887 88.56 140.407 91.84C139.927 95.04 139.687 98.36 139.687 101.8C139.687 103.08 139.727 104.24 139.807 105.28C139.967 106.4 140.287 107.28 140.767 107.92C141.167 108.4 141.607 108.76 142.087 109C142.567 109.32 143.127 109.6 143.767 109.84C144.727 110.08 145.207 110.64 145.207 111.52C145.207 112.96 144.367 113.68 142.687 113.68ZM148.327 63.52C151.367 58.32 154.047 53.48 156.367 49C158.687 44.44 160.567 40.16 162.007 36.16C158.807 40.32 156.127 44.72 153.967 49.36C151.807 54 149.927 58.72 148.327 63.52ZM113.287 100.6C115.607 100.6 118.047 99.84 120.607 98.32C123.247 96.72 125.727 94.84 128.047 92.68C130.127 90.76 132.047 88.8 133.807 86.8C135.567 84.72 137.207 82.6 138.727 80.44C139.367 77.64 140.087 74.88 140.887 72.16C141.767 69.44 142.727 66.72 143.767 64C142.487 62 140.687 61 138.367 61C135.967 61 133.287 61.92 130.327 63.76C127.447 65.52 124.647 67.72 121.927 70.36C119.287 73 117.007 75.52 115.087 77.92C111.087 83.28 109.087 88.96 109.087 94.96C109.087 98.72 110.487 100.6 113.287 100.6Z" fill="white"/>
<path d="M159.243 104.2C154.603 104.2 152.283 102 152.283 97.6C152.283 94.72 152.963 91.64 154.323 88.36C155.763 85 157.683 81.76 160.083 78.64C162.483 75.44 165.163 72.56 168.123 70C171.083 67.36 174.123 65.28 177.243 63.76C180.363 62.16 183.363 61.36 186.243 61.36C191.363 61.36 193.923 63.88 193.923 68.92C193.923 72.2 193.123 73.84 191.523 73.84C190.083 73.84 189.363 73.16 189.363 71.8C189.363 71.24 189.483 70.68 189.723 70.12C190.043 69.48 190.203 68.8 190.203 68.08C190.203 65.84 188.683 64.72 185.643 64.72C180.763 64.72 174.643 68.44 167.283 75.88C165.523 77.72 163.803 79.88 162.123 82.36C160.443 84.84 159.043 87.36 157.923 89.92C156.883 92.4 156.363 94.76 156.363 97C156.363 99.16 157.563 100.24 159.963 100.24C162.043 100.24 164.243 99.6 166.563 98.32C168.963 97.04 171.043 95.72 172.803 94.36C176.323 91.72 179.923 88.12 183.603 83.56C184.163 82.92 184.883 82.08 185.763 81.04C186.643 80 187.643 78.84 188.763 77.56C189.163 77.16 189.643 76.96 190.203 76.96C191.483 76.96 192.123 77.6 192.123 78.88L187.563 85.72C184.523 90.2 183.003 93.88 183.003 96.76C183.003 98.84 184.003 99.88 186.003 99.88C187.683 99.88 189.523 99.44 191.523 98.56C193.523 97.68 195.163 96.8 196.443 95.92C199.003 94.24 201.683 92.16 204.483 89.68C207.283 87.12 209.963 84.56 212.523 82C212.843 81.68 213.323 81.52 213.963 81.52C215.163 81.52 215.763 82 215.763 82.96C215.763 83.84 215.203 84.84 214.083 85.96C210.883 89.16 208.003 91.92 205.443 94.24C202.883 96.48 200.443 98.32 198.123 99.76C196.603 100.64 194.723 101.56 192.483 102.52C190.243 103.48 187.683 103.96 184.803 103.96C180.883 103.96 178.923 101.88 178.923 97.72C178.923 96.12 179.123 94.8 179.523 93.76C172.243 100.72 165.483 104.2 159.243 104.2Z" fill="white"/>
<path d="M238.237 108.16C237.677 108.16 237.037 107.88 236.317 107.32C235.597 106.76 235.237 106.16 235.237 105.52C235.237 104.8 236.037 102.96 237.637 100C239.237 97.04 241.797 92.6 245.317 86.68C248.837 80.76 253.437 73.08 259.117 63.64L274.837 37.36C275.717 35.76 276.797 33.88 278.077 31.72C279.357 29.56 280.917 27 282.757 24.04C283.237 23.32 283.757 22.96 284.317 22.96C284.877 22.96 285.437 23.24 285.997 23.8C286.557 24.28 286.837 24.8 286.837 25.36C286.837 25.68 284.837 29.24 280.837 36.04C276.837 42.76 270.797 52.8 262.717 66.16C259.677 71.2 256.357 76.76 252.757 82.84C249.237 88.92 245.477 95.52 241.477 102.64C264.677 96.4 282.517 93.28 294.997 93.28C298.757 93.28 301.877 93.92 304.357 95.2C306.917 96.4 308.197 97.6 308.197 98.8C308.197 100.16 307.517 100.84 306.157 100.84C305.037 100.84 304.477 100.24 304.477 99.04V98.68C303.677 98.28 302.317 97.96 300.397 97.72C298.477 97.48 296.277 97.36 293.797 97.36C290.757 97.36 287.317 97.64 283.477 98.2C279.637 98.68 275.717 99.32 271.717 100.12C267.797 100.84 264.117 101.6 260.677 102.4C257.317 103.12 254.117 103.88 251.077 104.68C248.117 105.56 245.357 106.32 242.797 106.96C241.277 107.28 240.157 107.56 239.437 107.8C238.797 108.04 238.397 108.16 238.237 108.16Z" fill="white"/>
<path d="M326.811 102.4C320.331 102.4 317.091 98.76 317.091 91.48C317.091 88.12 317.891 84.6 319.491 80.92C321.091 77.24 323.211 73.84 325.851 70.72C328.491 67.52 331.411 64.92 334.611 62.92C337.891 60.92 341.211 59.92 344.571 59.92C347.531 59.92 349.691 61.04 351.051 63.28C352.411 65.52 353.091 68 353.091 70.72C353.091 74.32 352.371 78 350.931 81.76C349.491 85.44 347.531 88.84 345.051 91.96C342.571 95.08 339.771 97.6 336.651 99.52C333.531 101.44 330.251 102.4 326.811 102.4ZM326.691 98.56C327.171 98.56 327.451 98.52 327.531 98.44C330.651 98.04 333.531 96.92 336.171 95.08C338.811 93.24 341.091 90.96 343.011 88.24C345.011 85.44 346.531 82.44 347.571 79.24C348.611 76.04 349.131 72.88 349.131 69.76C349.131 67.92 348.611 66.48 347.571 65.44C346.531 64.4 345.211 63.88 343.611 63.88C341.291 63.88 338.811 64.84 336.171 66.76C333.611 68.68 331.171 71.12 328.851 74.08C326.611 77.04 324.771 80.16 323.331 83.44C321.891 86.64 321.171 89.52 321.171 92.08C321.171 96.4 323.011 98.56 326.691 98.56Z" fill="white"/>
<path d="M364.012 104.2C363.052 104.2 362.572 103.84 362.572 103.12C361.292 100.88 360.652 96.28 360.652 89.32C360.652 87.64 360.772 85.4 361.012 82.6C361.252 79.8 361.572 76.88 361.972 73.84C362.372 70.8 362.812 68.04 363.292 65.56C363.772 63 364.292 61.16 364.852 60.04C365.332 59.08 365.932 58.6 366.652 58.6C367.932 58.6 368.572 59.12 368.572 60.16C368.572 60.72 368.492 61.28 368.332 61.84C368.172 62.32 368.012 62.92 367.852 63.64C366.812 67.64 365.972 71.88 365.332 76.36C364.772 80.84 364.492 85.44 364.492 90.16C364.492 92.32 364.572 94.24 364.732 95.92C364.972 97.6 365.212 99.04 365.452 100.24C367.692 99.36 370.172 97.64 372.892 95.08C375.612 92.44 378.252 89.52 380.812 86.32C382.892 83.68 384.772 81 386.452 78.28C388.212 75.56 389.572 73 390.532 70.6C391.572 68.2 392.092 66.24 392.092 64.72C392.092 63.68 391.972 62.96 391.732 62.56C391.572 62.16 391.372 61.84 391.132 61.6C390.892 61.36 390.772 60.92 390.772 60.28C390.772 59.08 391.372 58.48 392.572 58.48C393.372 58.48 394.092 59.08 394.732 60.28C395.372 61.48 395.692 63 395.692 64.84C395.692 70.52 391.732 78.48 383.812 88.72C375.652 99.04 369.052 104.2 364.012 104.2Z" fill="white"/>
<path d="M407.841 105.16C404.481 105.16 401.841 104 399.921 101.68C398.001 99.36 397.041 96.52 397.041 93.16C397.041 87.4 398.961 81.48 402.801 75.4C403.841 73.72 405.041 72.08 406.401 70.48C407.761 68.8 409.241 67.2 410.841 65.68C413.241 63.36 415.761 61.44 418.401 59.92C421.041 58.4 423.601 57.64 426.081 57.64C430.161 57.64 432.201 59.56 432.201 63.4C432.201 68.2 429.401 72.56 423.801 76.48C418.601 80 413.481 81.76 408.441 81.76C407.561 81.76 406.761 81.72 406.041 81.64C405.401 81.48 404.801 81.32 404.241 81.16C403.441 82.68 402.721 84.64 402.081 87.04C401.441 89.44 401.121 91.52 401.121 93.28C401.121 98.56 403.441 101.2 408.081 101.2C411.841 101.2 415.401 100.56 418.761 99.28C422.121 97.92 426.121 95.4 430.761 91.72C433.641 89.48 435.801 87.68 437.241 86.32C438.681 84.96 440.241 83.52 441.921 82C442.401 81.68 442.841 81.52 443.241 81.52C443.641 81.52 444.041 81.64 444.441 81.88C444.841 82.12 445.041 82.48 445.041 82.96C445.041 83.84 444.241 85.08 442.641 86.68C441.281 87.96 439.841 89.32 438.321 90.76C436.801 92.12 434.401 94.04 431.121 96.52C427.601 99.24 423.761 101.36 419.601 102.88C415.441 104.4 411.521 105.16 407.841 105.16ZM407.721 77.92C410.281 77.92 412.721 77.52 415.041 76.72C417.361 75.92 419.561 74.76 421.641 73.24C426.281 69.8 428.601 66.56 428.601 63.52C428.601 62.16 427.761 61.48 426.081 61.48C422.881 61.48 419.161 63.44 414.921 67.36C412.841 69.28 411.121 71.04 409.761 72.64C408.481 74.16 407.281 75.84 406.161 77.68C406.641 77.84 407.161 77.92 407.721 77.92Z" fill="white"/>
<path d="M451.108 106.24C447.428 106.24 444.588 105.12 442.588 102.88C440.668 100.56 439.708 97.52 439.708 93.76C439.708 91.04 440.188 87.76 441.148 83.92C442.828 77.44 445.668 69.92 449.668 61.36C452.788 54.88 456.148 48.52 459.748 42.28C463.348 35.96 467.308 29.76 471.628 23.68C478.508 13.92 483.308 9.03998 486.028 9.03998C487.788 9.03998 488.668 9.51998 488.668 10.48C488.668 11.84 486.428 15.24 481.948 20.68L473.548 30.88C466.268 39.68 460.308 48.68 455.668 57.88C451.108 67.08 447.548 76.28 444.988 85.48C444.268 88.12 443.908 90.6 443.908 92.92C443.908 99 446.388 102.04 451.348 102.04C453.108 102.04 454.908 101.52 456.748 100.48C458.588 99.52 459.588 99.04 459.748 99.04C460.708 99.04 461.188 99.72 461.188 101.08C461.188 102.28 460.748 103.2 459.868 103.84C457.148 105.44 454.228 106.24 451.108 106.24Z" fill="white"/>
<path d="M473.54 104.2C468.9 104.2 466.58 102 466.58 97.6C466.58 94.72 467.26 91.64 468.62 88.36C470.06 85 471.98 81.76 474.38 78.64C476.78 75.44 479.46 72.56 482.42 70C485.38 67.36 488.42 65.28 491.54 63.76C494.66 62.16 497.66 61.36 500.54 61.36C505.66 61.36 508.22 63.88 508.22 68.92C508.22 72.2 507.42 73.84 505.82 73.84C504.38 73.84 503.66 73.16 503.66 71.8C503.66 71.24 503.78 70.68 504.02 70.12C504.34 69.48 504.5 68.8 504.5 68.08C504.5 65.84 502.98 64.72 499.94 64.72C495.06 64.72 488.94 68.44 481.58 75.88C479.82 77.72 478.1 79.88 476.42 82.36C474.74 84.84 473.34 87.36 472.22 89.92C471.18 92.4 470.66 94.76 470.66 97C470.66 99.16 471.86 100.24 474.26 100.24C476.34 100.24 478.54 99.6 480.86 98.32C483.26 97.04 485.34 95.72 487.1 94.36C490.62 91.72 494.22 88.12 497.9 83.56C498.46 82.92 499.18 82.08 500.06 81.04C500.94 80 501.94 78.84 503.06 77.56C503.46 77.16 503.94 76.96 504.5 76.96C505.78 76.96 506.42 77.6 506.42 78.88L501.86 85.72C498.82 90.2 497.3 93.88 497.3 96.76C497.3 98.84 498.3 99.88 500.3 99.88C501.98 99.88 503.82 99.44 505.82 98.56C507.82 97.68 509.46 96.8 510.74 95.92C513.3 94.24 515.98 92.16 518.78 89.68C521.58 87.12 524.26 84.56 526.82 82C527.14 81.68 527.62 81.52 528.26 81.52C529.46 81.52 530.06 82 530.06 82.96C530.06 83.84 529.5 84.84 528.38 85.96C525.18 89.16 522.3 91.92 519.74 94.24C517.18 96.48 514.74 98.32 512.42 99.76C510.9 100.64 509.02 101.56 506.78 102.52C504.54 103.48 501.98 103.96 499.1 103.96C495.18 103.96 493.22 101.88 493.22 97.72C493.22 96.12 493.42 94.8 493.82 93.76C486.54 100.72 479.78 104.2 473.54 104.2Z" fill="white"/>
<path d="M537.632 104.68C533.392 104.68 530.072 103.44 527.672 100.96C525.272 98.48 524.072 95.16 524.072 91C524.072 83.8 527.472 75.96 534.272 67.48C537.792 63.16 541.352 59.88 544.952 57.64C548.632 55.32 552.072 54.16 555.272 54.16C558.072 54.16 560.232 55.12 561.752 57.04C563.272 58.96 564.032 61.36 564.032 64.24C564.032 66 563.792 67.8 563.312 69.64C562.992 70.92 562.352 71.56 561.392 71.56C559.872 71.56 559.112 70.72 559.112 69.04C559.112 68.32 559.232 67.4 559.472 66.28C559.792 65.08 559.952 63.92 559.952 62.8C559.952 59.6 558.392 58 555.272 58C553.592 58 551.552 58.6 549.152 59.8C546.832 61 544.512 62.6 542.192 64.6C539.872 66.52 537.832 68.72 536.072 71.2C530.712 78.48 528.032 85 528.032 90.76C528.032 97.4 531.032 100.72 537.032 100.72C540.792 100.72 544.392 100.16 547.832 99.04C551.272 97.84 555.312 95.4 559.952 91.72C562.832 89.48 564.992 87.68 566.432 86.32C567.872 84.96 569.432 83.52 571.112 82C571.592 81.68 572.032 81.52 572.432 81.52C572.832 81.52 573.232 81.64 573.632 81.88C574.032 82.12 574.232 82.48 574.232 82.96C574.232 83.84 573.432 85.08 571.832 86.68C570.472 87.96 569.032 89.32 567.512 90.76C565.992 92.12 563.592 94.04 560.312 96.52C556.792 99.24 553.032 101.28 549.032 102.64C545.112 104 541.312 104.68 537.632 104.68Z" fill="white"/>
<path d="M579.403 105.16C576.043 105.16 573.403 104 571.483 101.68C569.563 99.36 568.603 96.52 568.603 93.16C568.603 87.4 570.523 81.48 574.363 75.4C575.403 73.72 576.603 72.08 577.963 70.48C579.323 68.8 580.803 67.2 582.403 65.68C584.803 63.36 587.323 61.44 589.963 59.92C592.603 58.4 595.163 57.64 597.643 57.64C601.723 57.64 603.763 59.56 603.763 63.4C603.763 68.2 600.963 72.56 595.363 76.48C590.163 80 585.043 81.76 580.003 81.76C579.123 81.76 578.323 81.72 577.603 81.64C576.963 81.48 576.363 81.32 575.803 81.16C575.003 82.68 574.283 84.64 573.643 87.04C573.003 89.44 572.683 91.52 572.683 93.28C572.683 98.56 575.003 101.2 579.643 101.2C583.403 101.2 586.963 100.56 590.323 99.28C593.683 97.92 597.683 95.4 602.323 91.72C605.203 89.48 607.363 87.68 608.803 86.32C610.243 84.96 611.803 83.52 613.483 82C613.963 81.68 614.403 81.52 614.803 81.52C615.203 81.52 615.603 81.64 616.003 81.88C616.403 82.12 616.603 82.48 616.603 82.96C616.603 83.84 615.803 85.08 614.203 86.68C612.843 87.96 611.403 89.32 609.883 90.76C608.363 92.12 605.963 94.04 602.683 96.52C599.163 99.24 595.323 101.36 591.163 102.88C587.003 104.4 583.083 105.16 579.403 105.16ZM579.283 77.92C581.843 77.92 584.283 77.52 586.603 76.72C588.923 75.92 591.123 74.76 593.203 73.24C597.843 69.8 600.163 66.56 600.163 63.52C600.163 62.16 599.323 61.48 597.643 61.48C594.443 61.48 590.723 63.44 586.483 67.36C584.403 69.28 582.683 71.04 581.323 72.64C580.043 74.16 578.843 75.84 577.723 77.68C578.203 77.84 578.723 77.92 579.283 77.92Z" fill="white"/>
<path d="M17.0494 110.08C15.6894 110.08 15.0094 109.44 15.0094 108.16C15.0094 107.68 15.0494 107.36 15.1294 107.2C18.0894 100.72 26.1294 91.04 39.2494 78.16C38.8494 78.24 38.4894 78.32 38.1694 78.4C37.8494 78.4 37.6094 78.4 37.4494 78.4C36.0894 78.4 35.4094 77.64 35.4094 76.12C35.4094 75.24 36.0894 74.68 37.4494 74.44C38.2494 74.28 39.0894 74.16 39.9694 74.08C40.9294 73.92 42.1294 73.68 43.5694 73.36C53.2494 63.28 62.5694 54.64 71.5294 47.44C80.5694 40.16 89.2094 34.2 97.4494 29.56C98.1694 29.16 98.8094 28.84 99.3694 28.6C99.9294 28.28 100.409 28.12 100.809 28.12C101.769 28.12 102.249 28.76 102.249 30.04C102.249 32.44 99.8494 40.68 95.0494 54.76L89.7694 70.24C91.8494 70.24 92.8894 70.88 92.8894 72.16C92.8894 73.6 91.5294 74.32 88.8094 74.32C87.2894 78.48 85.8494 83.08 84.4894 88.12C83.2094 93.08 82.1294 98.2 81.2494 103.48C80.9294 105.16 80.2094 106 79.0894 106C77.7294 106 77.0494 105.28 77.0494 103.84C77.0494 103.6 77.1294 103.08 77.2894 102.28C77.4494 101.48 77.6894 100.44 78.0094 99.16C78.9694 94.52 79.8094 90.68 80.5294 87.64C81.3294 84.6 82.0094 82.04 82.5694 79.96C83.2094 77.8 83.7694 75.84 84.2494 74.08C69.5294 74.4 56.5694 75.48 45.3694 77.32C42.1694 80.6 39.4894 83.4 37.3294 85.72C35.1694 87.96 33.5694 89.64 32.5294 90.76C27.7294 96.04 23.8894 100.84 21.0094 105.16C20.7694 105.56 20.4894 106.08 20.1694 106.72C19.7694 107.36 19.2894 108.12 18.7294 109C18.4094 109.72 17.8494 110.08 17.0494 110.08ZM50.2894 72.4C54.9294 71.76 60.1694 71.28 66.0094 70.96C71.8494 70.56 78.4094 70.28 85.6894 70.12C86.8894 66.44 88.0894 62.88 89.2894 59.44C90.4894 55.92 91.6494 52.56 92.7694 49.36C94.1294 45.84 95.9294 40.56 98.1694 33.52C88.8894 38.88 80.2494 44.8 72.2494 51.28C64.3294 57.76 57.0094 64.8 50.2894 72.4Z" stroke="#FF00FF" stroke-width="8" mask="url(#path-1-outside-1_3_2)"/>
<path d="M142.687 113.68C142.047 113.68 141.247 113.36 140.287 112.72C139.407 112.16 138.727 111.6 138.247 111.04C137.287 109.84 136.647 108.4 136.327 106.72C136.007 105.04 135.847 103.2 135.847 101.2C135.847 99.52 135.887 97.72 135.967 95.8C136.127 93.8 136.367 91.68 136.687 89.44C134.607 91.84 132.247 94.2 129.607 96.52C127.047 98.76 124.407 100.6 121.687 102.04C119.047 103.48 116.527 104.2 114.127 104.2C108.127 104.2 105.127 101 105.127 94.6C105.127 87.96 107.447 81.56 112.087 75.4C114.407 72.36 117.047 69.44 120.007 66.64C122.967 63.84 126.087 61.56 129.367 59.8C132.647 58.04 135.887 57.16 139.087 57.16C141.487 57.16 143.607 58.08 145.447 59.92C145.607 59.6 145.807 59.08 146.047 58.36C146.367 57.64 146.807 56.72 147.367 55.6C149.287 51.44 151.407 47.12 153.727 42.64C156.047 38.08 158.127 34.32 159.967 31.36C162.047 28.08 164.007 26.44 165.847 26.44C167.127 26.44 167.767 27.44 167.767 29.44C167.767 32.88 164.527 40.92 158.047 53.56C157.647 54.28 156.927 55.6 155.887 57.52C154.927 59.36 153.767 61.52 152.407 64C151.127 66.4 149.807 68.8 148.447 71.2C147.087 73.6 145.847 75.76 144.727 77.68C143.687 79.52 142.927 80.8 142.447 81.52C141.567 85.12 140.887 88.56 140.407 91.84C139.927 95.04 139.687 98.36 139.687 101.8C139.687 103.08 139.727 104.24 139.807 105.28C139.967 106.4 140.287 107.28 140.767 107.92C141.167 108.4 141.607 108.76 142.087 109C142.567 109.32 143.127 109.6 143.767 109.84C144.727 110.08 145.207 110.64 145.207 111.52C145.207 112.96 144.367 113.68 142.687 113.68ZM148.327 63.52C151.367 58.32 154.047 53.48 156.367 49C158.687 44.44 160.567 40.16 162.007 36.16C158.807 40.32 156.127 44.72 153.967 49.36C151.807 54 149.927 58.72 148.327 63.52ZM113.287 100.6C115.607 100.6 118.047 99.84 120.607 98.32C123.247 96.72 125.727 94.84 128.047 92.68C130.127 90.76 132.047 88.8 133.807 86.8C135.567 84.72 137.207 82.6 138.727 80.44C139.367 77.64 140.087 74.88 140.887 72.16C141.767 69.44 142.727 66.72 143.767 64C142.487 62 140.687 61 138.367 61C135.967 61 133.287 61.92 130.327 63.76C127.447 65.52 124.647 67.72 121.927 70.36C119.287 73 117.007 75.52 115.087 77.92C111.087 83.28 109.087 88.96 109.087 94.96C109.087 98.72 110.487 100.6 113.287 100.6Z" stroke="#FF00FF" stroke-width="8" mask="url(#path-1-outside-1_3_2)"/>
<path d="M159.243 104.2C154.603 104.2 152.283 102 152.283 97.6C152.283 94.72 152.963 91.64 154.323 88.36C155.763 85 157.683 81.76 160.083 78.64C162.483 75.44 165.163 72.56 168.123 70C171.083 67.36 174.123 65.28 177.243 63.76C180.363 62.16 183.363 61.36 186.243 61.36C191.363 61.36 193.923 63.88 193.923 68.92C193.923 72.2 193.123 73.84 191.523 73.84C190.083 73.84 189.363 73.16 189.363 71.8C189.363 71.24 189.483 70.68 189.723 70.12C190.043 69.48 190.203 68.8 190.203 68.08C190.203 65.84 188.683 64.72 185.643 64.72C180.763 64.72 174.643 68.44 167.283 75.88C165.523 77.72 163.803 79.88 162.123 82.36C160.443 84.84 159.043 87.36 157.923 89.92C156.883 92.4 156.363 94.76 156.363 97C156.363 99.16 157.563 100.24 159.963 100.24C162.043 100.24 164.243 99.6 166.563 98.32C168.963 97.04 171.043 95.72 172.803 94.36C176.323 91.72 179.923 88.12 183.603 83.56C184.163 82.92 184.883 82.08 185.763 81.04C186.643 80 187.643 78.84 188.763 77.56C189.163 77.16 189.643 76.96 190.203 76.96C191.483 76.96 192.123 77.6 192.123 78.88L187.563 85.72C184.523 90.2 183.003 93.88 183.003 96.76C183.003 98.84 184.003 99.88 186.003 99.88C187.683 99.88 189.523 99.44 191.523 98.56C193.523 97.68 195.163 96.8 196.443 95.92C199.003 94.24 201.683 92.16 204.483 89.68C207.283 87.12 209.963 84.56 212.523 82C212.843 81.68 213.323 81.52 213.963 81.52C215.163 81.52 215.763 82 215.763 82.96C215.763 83.84 215.203 84.84 214.083 85.96C210.883 89.16 208.003 91.92 205.443 94.24C202.883 96.48 200.443 98.32 198.123 99.76C196.603 100.64 194.723 101.56 192.483 102.52C190.243 103.48 187.683 103.96 184.803 103.96C180.883 103.96 178.923 101.88 178.923 97.72C178.923 96.12 179.123 94.8 179.523 93.76C172.243 100.72 165.483 104.2 159.243 104.2Z" stroke="#FF00FF" stroke-width="8" mask="url(#path-1-outside-1_3_2)"/>
<path d="M238.237 108.16C237.677 108.16 237.037 107.88 236.317 107.32C235.597 106.76 235.237 106.16 235.237 105.52C235.237 104.8 236.037 102.96 237.637 100C239.237 97.04 241.797 92.6 245.317 86.68C248.837 80.76 253.437 73.08 259.117 63.64L274.837 37.36C275.717 35.76 276.797 33.88 278.077 31.72C279.357 29.56 280.917 27 282.757 24.04C283.237 23.32 283.757 22.96 284.317 22.96C284.877 22.96 285.437 23.24 285.997 23.8C286.557 24.28 286.837 24.8 286.837 25.36C286.837 25.68 284.837 29.24 280.837 36.04C276.837 42.76 270.797 52.8 262.717 66.16C259.677 71.2 256.357 76.76 252.757 82.84C249.237 88.92 245.477 95.52 241.477 102.64C264.677 96.4 282.517 93.28 294.997 93.28C298.757 93.28 301.877 93.92 304.357 95.2C306.917 96.4 308.197 97.6 308.197 98.8C308.197 100.16 307.517 100.84 306.157 100.84C305.037 100.84 304.477 100.24 304.477 99.04V98.68C303.677 98.28 302.317 97.96 300.397 97.72C298.477 97.48 296.277 97.36 293.797 97.36C290.757 97.36 287.317 97.64 283.477 98.2C279.637 98.68 275.717 99.32 271.717 100.12C267.797 100.84 264.117 101.6 260.677 102.4C257.317 103.12 254.117 103.88 251.077 104.68C248.117 105.56 245.357 106.32 242.797 106.96C241.277 107.28 240.157 107.56 239.437 107.8C238.797 108.04 238.397 108.16 238.237 108.16Z" stroke="#FF00FF" stroke-width="8" mask="url(#path-1-outside-1_3_2)"/>
<path d="M326.811 102.4C320.331 102.4 317.091 98.76 317.091 91.48C317.091 88.12 317.891 84.6 319.491 80.92C321.091 77.24 323.211 73.84 325.851 70.72C328.491 67.52 331.411 64.92 334.611 62.92C337.891 60.92 341.211 59.92 344.571 59.92C347.531 59.92 349.691 61.04 351.051 63.28C352.411 65.52 353.091 68 353.091 70.72C353.091 74.32 352.371 78 350.931 81.76C349.491 85.44 347.531 88.84 345.051 91.96C342.571 95.08 339.771 97.6 336.651 99.52C333.531 101.44 330.251 102.4 326.811 102.4ZM326.691 98.56C327.171 98.56 327.451 98.52 327.531 98.44C330.651 98.04 333.531 96.92 336.171 95.08C338.811 93.24 341.091 90.96 343.011 88.24C345.011 85.44 346.531 82.44 347.571 79.24C348.611 76.04 349.131 72.88 349.131 69.76C349.131 67.92 348.611 66.48 347.571 65.44C346.531 64.4 345.211 63.88 343.611 63.88C341.291 63.88 338.811 64.84 336.171 66.76C333.611 68.68 331.171 71.12 328.851 74.08C326.611 77.04 324.771 80.16 323.331 83.44C321.891 86.64 321.171 89.52 321.171 92.08C321.171 96.4 323.011 98.56 326.691 98.56Z" stroke="#FF00FF" stroke-width="8" mask="url(#path-1-outside-1_3_2)"/>
<path d="M364.012 104.2C363.052 104.2 362.572 103.84 362.572 103.12C361.292 100.88 360.652 96.28 360.652 89.32C360.652 87.64 360.772 85.4 361.012 82.6C361.252 79.8 361.572 76.88 361.972 73.84C362.372 70.8 362.812 68.04 363.292 65.56C363.772 63 364.292 61.16 364.852 60.04C365.332 59.08 365.932 58.6 366.652 58.6C367.932 58.6 368.572 59.12 368.572 60.16C368.572 60.72 368.492 61.28 368.332 61.84C368.172 62.32 368.012 62.92 367.852 63.64C366.812 67.64 365.972 71.88 365.332 76.36C364.772 80.84 364.492 85.44 364.492 90.16C364.492 92.32 364.572 94.24 364.732 95.92C364.972 97.6 365.212 99.04 365.452 100.24C367.692 99.36 370.172 97.64 372.892 95.08C375.612 92.44 378.252 89.52 380.812 86.32C382.892 83.68 384.772 81 386.452 78.28C388.212 75.56 389.572 73 390.532 70.6C391.572 68.2 392.092 66.24 392.092 64.72C392.092 63.68 391.972 62.96 391.732 62.56C391.572 62.16 391.372 61.84 391.132 61.6C390.892 61.36 390.772 60.92 390.772 60.28C390.772 59.08 391.372 58.48 392.572 58.48C393.372 58.48 394.092 59.08 394.732 60.28C395.372 61.48 395.692 63 395.692 64.84C395.692 70.52 391.732 78.48 383.812 88.72C375.652 99.04 369.052 104.2 364.012 104.2Z" stroke="#FF00FF" stroke-width="8" mask="url(#path-1-outside-1_3_2)"/>
<path d="M407.841 105.16C404.481 105.16 401.841 104 399.921 101.68C398.001 99.36 397.041 96.52 397.041 93.16C397.041 87.4 398.961 81.48 402.801 75.4C403.841 73.72 405.041 72.08 406.401 70.48C407.761 68.8 409.241 67.2 410.841 65.68C413.241 63.36 415.761 61.44 418.401 59.92C421.041 58.4 423.601 57.64 426.081 57.64C430.161 57.64 432.201 59.56 432.201 63.4C432.201 68.2 429.401 72.56 423.801 76.48C418.601 80 413.481 81.76 408.441 81.76C407.561 81.76 406.761 81.72 406.041 81.64C405.401 81.48 404.801 81.32 404.241 81.16C403.441 82.68 402.721 84.64 402.081 87.04C401.441 89.44 401.121 91.52 401.121 93.28C401.121 98.56 403.441 101.2 408.081 101.2C411.841 101.2 415.401 100.56 418.761 99.28C422.121 97.92 426.121 95.4 430.761 91.72C433.641 89.48 435.801 87.68 437.241 86.32C438.681 84.96 440.241 83.52 441.921 82C442.401 81.68 442.841 81.52 443.241 81.52C443.641 81.52 444.041 81.64 444.441 81.88C444.841 82.12 445.041 82.48 445.041 82.96C445.041 83.84 444.241 85.08 442.641 86.68C441.281 87.96 439.841 89.32 438.321 90.76C436.801 92.12 434.401 94.04 431.121 96.52C427.601 99.24 423.761 101.36 419.601 102.88C415.441 104.4 411.521 105.16 407.841 105.16ZM407.721 77.92C410.281 77.92 412.721 77.52 415.041 76.72C417.361 75.92 419.561 74.76 421.641 73.24C426.281 69.8 428.601 66.56 428.601 63.52C428.601 62.16 427.761 61.48 426.081 61.48C422.881 61.48 419.161 63.44 414.921 67.36C412.841 69.28 411.121 71.04 409.761 72.64C408.481 74.16 407.281 75.84 406.161 77.68C406.641 77.84 407.161 77.92 407.721 77.92Z" stroke="#FF00FF" stroke-width="8" mask="url(#path-1-outside-1_3_2)"/>
<path d="M451.108 106.24C447.428 106.24 444.588 105.12 442.588 102.88C440.668 100.56 439.708 97.52 439.708 93.76C439.708 91.04 440.188 87.76 441.148 83.92C442.828 77.44 445.668 69.92 449.668 61.36C452.788 54.88 456.148 48.52 459.748 42.28C463.348 35.96 467.308 29.76 471.628 23.68C478.508 13.92 483.308 9.03998 486.028 9.03998C487.788 9.03998 488.668 9.51998 488.668 10.48C488.668 11.84 486.428 15.24 481.948 20.68L473.548 30.88C466.268 39.68 460.308 48.68 455.668 57.88C451.108 67.08 447.548 76.28 444.988 85.48C444.268 88.12 443.908 90.6 443.908 92.92C443.908 99 446.388 102.04 451.348 102.04C453.108 102.04 454.908 101.52 456.748 100.48C458.588 99.52 459.588 99.04 459.748 99.04C460.708 99.04 461.188 99.72 461.188 101.08C461.188 102.28 460.748 103.2 459.868 103.84C457.148 105.44 454.228 106.24 451.108 106.24Z" stroke="#FF00FF" stroke-width="8" mask="url(#path-1-outside-1_3_2)"/>
<path d="M473.54 104.2C468.9 104.2 466.58 102 466.58 97.6C466.58 94.72 467.26 91.64 468.62 88.36C470.06 85 471.98 81.76 474.38 78.64C476.78 75.44 479.46 72.56 482.42 70C485.38 67.36 488.42 65.28 491.54 63.76C494.66 62.16 497.66 61.36 500.54 61.36C505.66 61.36 508.22 63.88 508.22 68.92C508.22 72.2 507.42 73.84 505.82 73.84C504.38 73.84 503.66 73.16 503.66 71.8C503.66 71.24 503.78 70.68 504.02 70.12C504.34 69.48 504.5 68.8 504.5 68.08C504.5 65.84 502.98 64.72 499.94 64.72C495.06 64.72 488.94 68.44 481.58 75.88C479.82 77.72 478.1 79.88 476.42 82.36C474.74 84.84 473.34 87.36 472.22 89.92C471.18 92.4 470.66 94.76 470.66 97C470.66 99.16 471.86 100.24 474.26 100.24C476.34 100.24 478.54 99.6 480.86 98.32C483.26 97.04 485.34 95.72 487.1 94.36C490.62 91.72 494.22 88.12 497.9 83.56C498.46 82.92 499.18 82.08 500.06 81.04C500.94 80 501.94 78.84 503.06 77.56C503.46 77.16 503.94 76.96 504.5 76.96C505.78 76.96 506.42 77.6 506.42 78.88L501.86 85.72C498.82 90.2 497.3 93.88 497.3 96.76C497.3 98.84 498.3 99.88 500.3 99.88C501.98 99.88 503.82 99.44 505.82 98.56C507.82 97.68 509.46 96.8 510.74 95.92C513.3 94.24 515.98 92.16 518.78 89.68C521.58 87.12 524.26 84.56 526.82 82C527.14 81.68 527.62 81.52 528.26 81.52C529.46 81.52 530.06 82 530.06 82.96C530.06 83.84 529.5 84.84 528.38 85.96C525.18 89.16 522.3 91.92 519.74 94.24C517.18 96.48 514.74 98.32 512.42 99.76C510.9 100.64 509.02 101.56 506.78 102.52C504.54 103.48 501.98 103.96 499.1 103.96C495.18 103.96 493.22 101.88 493.22 97.72C493.22 96.12 493.42 94.8 493.82 93.76C486.54 100.72 479.78 104.2 473.54 104.2Z" stroke="#FF00FF" stroke-width="8" mask="url(#path-1-outside-1_3_2)"/>
<path d="M537.632 104.68C533.392 104.68 530.072 103.44 527.672 100.96C525.272 98.48 524.072 95.16 524.072 91C524.072 83.8 527.472 75.96 534.272 67.48C537.792 63.16 541.352 59.88 544.952 57.64C548.632 55.32 552.072 54.16 555.272 54.16C558.072 54.16 560.232 55.12 561.752 57.04C563.272 58.96 564.032 61.36 564.032 64.24C564.032 66 563.792 67.8 563.312 69.64C562.992 70.92 562.352 71.56 561.392 71.56C559.872 71.56 559.112 70.72 559.112 69.04C559.112 68.32 559.232 67.4 559.472 66.28C559.792 65.08 559.952 63.92 559.952 62.8C559.952 59.6 558.392 58 555.272 58C553.592 58 551.552 58.6 549.152 59.8C546.832 61 544.512 62.6 542.192 64.6C539.872 66.52 537.832 68.72 536.072 71.2C530.712 78.48 528.032 85 528.032 90.76C528.032 97.4 531.032 100.72 537.032 100.72C540.792 100.72 544.392 100.16 547.832 99.04C551.272 97.84 555.312 95.4 559.952 91.72C562.832 89.48 564.992 87.68 566.432 86.32C567.872 84.96 569.432 83.52 571.112 82C571.592 81.68 572.032 81.52 572.432 81.52C572.832 81.52 573.232 81.64 573.632 81.88C574.032 82.12 574.232 82.48 574.232 82.96C574.232 83.84 573.432 85.08 571.832 86.68C570.472 87.96 569.032 89.32 567.512 90.76C565.992 92.12 563.592 94.04 560.312 96.52C556.792 99.24 553.032 101.28 549.032 102.64C545.112 104 541.312 104.68 537.632 104.68Z" stroke="#FF00FF" stroke-width="8" mask="url(#path-1-outside-1_3_2)"/>
<path d="M579.403 105.16C576.043 105.16 573.403 104 571.483 101.68C569.563 99.36 568.603 96.52 568.603 93.16C568.603 87.4 570.523 81.48 574.363 75.4C575.403 73.72 576.603 72.08 577.963 70.48C579.323 68.8 580.803 67.2 582.403 65.68C584.803 63.36 587.323 61.44 589.963 59.92C592.603 58.4 595.163 57.64 597.643 57.64C601.723 57.64 603.763 59.56 603.763 63.4C603.763 68.2 600.963 72.56 595.363 76.48C590.163 80 585.043 81.76 580.003 81.76C579.123 81.76 578.323 81.72 577.603 81.64C576.963 81.48 576.363 81.32 575.803 81.16C575.003 82.68 574.283 84.64 573.643 87.04C573.003 89.44 572.683 91.52 572.683 93.28C572.683 98.56 575.003 101.2 579.643 101.2C583.403 101.2 586.963 100.56 590.323 99.28C593.683 97.92 597.683 95.4 602.323 91.72C605.203 89.48 607.363 87.68 608.803 86.32C610.243 84.96 611.803 83.52 613.483 82C613.963 81.68 614.403 81.52 614.803 81.52C615.203 81.52 615.603 81.64 616.003 81.88C616.403 82.12 616.603 82.48 616.603 82.96C616.603 83.84 615.803 85.08 614.203 86.68C612.843 87.96 611.403 89.32 609.883 90.76C608.363 92.12 605.963 94.04 602.683 96.52C599.163 99.24 595.323 101.36 591.163 102.88C587.003 104.4 583.083 105.16 579.403 105.16ZM579.283 77.92C581.843 77.92 584.283 77.52 586.603 76.72C588.923 75.92 591.123 74.76 593.203 73.24C597.843 69.8 600.163 66.56 600.163 63.52C600.163 62.16 599.323 61.48 597.643 61.48C594.443 61.48 590.723 63.44 586.483 67.36C584.403 69.28 582.683 71.04 581.323 72.64C580.043 74.16 578.843 75.84 577.723 77.68C578.203 77.84 578.723 77.92 579.283 77.92Z" stroke="#FF00FF" stroke-width="8" mask="url(#path-1-outside-1_3_2)"/>
</g>
<mask id="path-2-outside-2_3_2" maskUnits="userSpaceOnUse" x="25.3438" y="135" width="571" height="68" fill="black">
<rect fill="white" x="25.3438" y="135" width="571" height="68"/>
<path d="M55.125 174.125H39.75L36.2188 186H30.3438L45 140.5H49.9062L64.5938 186H58.7188L55.125 174.125ZM41.25 169.188H53.6562L47.4375 148.5L41.25 169.188Z"/>
<path d="M89.9062 152.188L90.0312 155.312C92.0938 152.812 94.8125 151.562 98.1875 151.562C101.958 151.562 104.594 153.198 106.094 156.469C108.219 153.198 111.177 151.562 114.969 151.562C121.198 151.562 124.385 155.448 124.531 163.219V186H119.031V163.75C119.031 161.292 118.594 159.469 117.719 158.281C116.844 157.073 115.365 156.469 113.281 156.469C111.615 156.469 110.26 157.115 109.219 158.406C108.177 159.698 107.573 161.344 107.406 163.344V186H101.844V163.5C101.781 158.812 99.875 156.469 96.125 156.469C93.3333 156.469 91.3646 157.865 90.2188 160.656V186H84.7188V152.188H89.9062Z"/>
<path d="M150.281 186C149.948 185.271 149.708 184.042 149.562 182.312C147.604 185.188 145.104 186.625 142.062 186.625C139 186.625 136.604 185.771 134.875 184.062C133.167 182.333 132.312 179.906 132.312 176.781C132.312 173.344 133.479 170.615 135.812 168.594C138.146 166.573 141.344 165.542 145.406 165.5H149.469V161.906C149.469 159.885 149.021 158.448 148.125 157.594C147.229 156.74 145.865 156.312 144.031 156.312C142.365 156.312 141.01 156.812 139.969 157.812C138.927 158.792 138.406 160.042 138.406 161.562H132.875C132.875 159.833 133.385 158.188 134.406 156.625C135.427 155.042 136.802 153.802 138.531 152.906C140.26 152.01 142.188 151.562 144.312 151.562C147.771 151.562 150.396 152.427 152.188 154.156C154 155.865 154.927 158.365 154.969 161.656V178.719C154.99 181.323 155.344 183.583 156.031 185.5V186H150.281ZM142.906 181.594C144.26 181.594 145.552 181.219 146.781 180.469C148.01 179.719 148.906 178.781 149.469 177.656V169.594H146.344C143.719 169.635 141.646 170.229 140.125 171.375C138.604 172.5 137.844 174.083 137.844 176.125C137.844 178.042 138.229 179.438 139 180.312C139.771 181.167 141.073 181.594 142.906 181.594ZM154.094 139C154.094 141.188 153.552 143 152.469 144.438C151.385 145.854 149.99 146.562 148.281 146.562C147.552 146.562 146.927 146.458 146.406 146.25C145.885 146.021 145.208 145.594 144.375 144.969C143.542 144.323 142.938 143.938 142.562 143.812C142.188 143.667 141.76 143.594 141.281 143.594C140.573 143.594 139.979 143.927 139.5 144.594C139.042 145.26 138.812 146.094 138.812 147.094L135.219 146.875C135.219 144.604 135.771 142.75 136.875 141.312C137.979 139.875 139.354 139.156 141 139.156C141.625 139.156 142.188 139.281 142.688 139.531C143.188 139.76 143.812 140.146 144.562 140.688C145.333 141.229 145.958 141.615 146.438 141.844C146.917 142.052 147.438 142.156 148 142.156C148.708 142.156 149.302 141.823 149.781 141.156C150.26 140.469 150.5 139.625 150.5 138.625L154.094 139Z"/>
<path d="M175.656 186.625C171.448 186.625 168.219 185.375 165.969 182.875C163.719 180.354 162.573 176.667 162.531 171.812V167.719C162.531 162.677 163.625 158.729 165.812 155.875C168.021 153 171.094 151.562 175.031 151.562C178.99 151.562 181.948 152.823 183.906 155.344C185.865 157.865 186.865 161.792 186.906 167.125V170.75H168.031V171.531C168.031 175.156 168.708 177.792 170.062 179.438C171.438 181.083 173.406 181.906 175.969 181.906C177.594 181.906 179.021 181.604 180.25 181C181.5 180.375 182.667 179.396 183.75 178.062L186.625 181.562C184.229 184.938 180.573 186.625 175.656 186.625ZM175.031 156.312C172.74 156.312 171.042 157.104 169.938 158.688C168.833 160.25 168.208 162.688 168.062 166H181.375V165.25C181.229 162.042 180.646 159.75 179.625 158.375C178.625 157 177.094 156.312 175.031 156.312Z"/>
<path d="M207.094 167.562C207.094 162.354 208.062 158.385 210 155.656C211.958 152.927 214.76 151.562 218.406 151.562C221.635 151.562 224.156 152.875 225.969 155.5V138H231.5V186H226.438L226.156 182.375C224.344 185.208 221.75 186.625 218.375 186.625C214.875 186.625 212.125 185.271 210.125 182.562C208.146 179.833 207.135 175.99 207.094 171.031V167.562ZM212.625 170.719C212.625 174.51 213.188 177.302 214.312 179.094C215.438 180.865 217.271 181.75 219.812 181.75C222.562 181.75 224.615 180.365 225.969 177.594V160.531C224.552 157.823 222.51 156.469 219.844 156.469C217.302 156.469 215.469 157.365 214.344 159.156C213.219 160.927 212.646 163.656 212.625 167.344V170.719Z"/>
<path d="M257.406 186C257.073 185.271 256.833 184.042 256.688 182.312C254.729 185.188 252.229 186.625 249.188 186.625C246.125 186.625 243.729 185.771 242 184.062C240.292 182.333 239.438 179.906 239.438 176.781C239.438 173.344 240.604 170.615 242.938 168.594C245.271 166.573 248.469 165.542 252.531 165.5H256.594V161.906C256.594 159.885 256.146 158.448 255.25 157.594C254.354 156.74 252.99 156.312 251.156 156.312C249.49 156.312 248.135 156.812 247.094 157.812C246.052 158.792 245.531 160.042 245.531 161.562H240C240 159.833 240.51 158.188 241.531 156.625C242.552 155.042 243.927 153.802 245.656 152.906C247.385 152.01 249.312 151.562 251.438 151.562C254.896 151.562 257.521 152.427 259.312 154.156C261.125 155.865 262.052 158.365 262.094 161.656V178.719C262.115 181.323 262.469 183.583 263.156 185.5V186H257.406ZM250.031 181.594C251.385 181.594 252.677 181.219 253.906 180.469C255.135 179.719 256.031 178.781 256.594 177.656V169.594H253.469C250.844 169.635 248.771 170.229 247.25 171.375C245.729 172.5 244.969 174.083 244.969 176.125C244.969 178.042 245.354 179.438 246.125 180.312C246.896 181.167 248.198 181.594 250.031 181.594Z"/>
<path d="M297.125 181.906C298.958 181.906 300.427 181.344 301.531 180.219C302.635 179.073 303.24 177.448 303.344 175.344H308.562C308.438 178.594 307.281 181.292 305.094 183.438C302.927 185.562 300.271 186.625 297.125 186.625C292.938 186.625 289.74 185.312 287.531 182.688C285.344 180.042 284.25 176.115 284.25 170.906V167.188C284.25 162.083 285.344 158.208 287.531 155.562C289.719 152.896 292.906 151.562 297.094 151.562C300.552 151.562 303.292 152.656 305.312 154.844C307.354 157.031 308.438 160.021 308.562 163.812H303.344C303.219 161.312 302.615 159.438 301.531 158.188C300.469 156.938 298.99 156.312 297.094 156.312C294.635 156.312 292.812 157.125 291.625 158.75C290.438 160.354 289.823 163 289.781 166.688V171C289.781 174.979 290.365 177.792 291.531 179.438C292.719 181.083 294.583 181.906 297.125 181.906Z"/>
<path d="M313.781 167.531C313.781 162.615 314.969 158.729 317.344 155.875C319.74 153 322.896 151.562 326.812 151.562C330.729 151.562 333.875 152.958 336.25 155.75C338.646 158.542 339.875 162.344 339.938 167.156V170.719C339.938 175.615 338.75 179.49 336.375 182.344C334 185.198 330.833 186.625 326.875 186.625C322.958 186.625 319.812 185.24 317.438 182.469C315.083 179.698 313.865 175.948 313.781 171.219V167.531ZM319.312 170.719C319.312 174.198 319.99 176.938 321.344 178.938C322.719 180.917 324.562 181.906 326.875 181.906C331.75 181.906 334.26 178.385 334.406 171.344V167.531C334.406 164.073 333.719 161.344 332.344 159.344C330.969 157.323 329.125 156.312 326.812 156.312C324.542 156.312 322.719 157.323 321.344 159.344C319.99 161.344 319.312 164.062 319.312 167.5V170.719Z"/>
<path d="M352.281 152.188L352.406 155.312C354.469 152.812 357.188 151.562 360.562 151.562C364.333 151.562 366.969 153.198 368.469 156.469C370.594 153.198 373.552 151.562 377.344 151.562C383.573 151.562 386.76 155.448 386.906 163.219V186H381.406V163.75C381.406 161.292 380.969 159.469 380.094 158.281C379.219 157.073 377.74 156.469 375.656 156.469C373.99 156.469 372.635 157.115 371.594 158.406C370.552 159.698 369.948 161.344 369.781 163.344V186H364.219V163.5C364.156 158.812 362.25 156.469 358.5 156.469C355.708 156.469 353.74 157.865 352.594 160.656V186H347.094V152.188H352.281Z"/>
<path d="M419.688 170.719C419.688 176.073 418.719 180.062 416.781 182.688C414.865 185.312 412.146 186.625 408.625 186.625C405.229 186.625 402.615 185.344 400.781 182.781V199H395.281V152.188H400.281L400.562 155.938C402.417 153.021 405.073 151.562 408.531 151.562C412.24 151.562 415.01 152.854 416.844 155.438C418.677 158.021 419.625 161.885 419.688 167.031V170.719ZM414.188 167.562C414.188 163.771 413.604 160.979 412.438 159.188C411.271 157.375 409.396 156.469 406.812 156.469C404.167 156.469 402.156 157.792 400.781 160.438V178.031C402.135 180.615 404.167 181.906 406.875 181.906C409.375 181.906 411.208 181.01 412.375 179.219C413.562 177.406 414.167 174.646 414.188 170.938V167.562Z"/>
<path d="M444.062 183.031C442.229 185.427 439.552 186.625 436.031 186.625C432.969 186.625 430.656 185.573 429.094 183.469C427.531 181.344 426.74 178.26 426.719 174.219V152.188H432.219V173.812C432.219 179.083 433.802 181.719 436.969 181.719C440.323 181.719 442.635 180.219 443.906 177.219V152.188H449.438V186H444.188L444.062 183.031Z"/>
<path d="M465 144V152.188H470.094V156.656H465V177.625C465 178.958 465.219 179.969 465.656 180.656C466.094 181.344 466.844 181.688 467.906 181.688C468.635 181.688 469.375 181.562 470.125 181.312L470.062 186C468.812 186.417 467.531 186.625 466.219 186.625C464.031 186.625 462.365 185.844 461.219 184.281C460.073 182.719 459.5 180.51 459.5 177.656V156.656H454.344V152.188H459.5V144H465Z"/>
<path d="M494.094 186C493.76 185.271 493.521 184.042 493.375 182.312C491.417 185.188 488.917 186.625 485.875 186.625C482.812 186.625 480.417 185.771 478.688 184.062C476.979 182.333 476.125 179.906 476.125 176.781C476.125 173.344 477.292 170.615 479.625 168.594C481.958 166.573 485.156 165.542 489.219 165.5H493.281V161.906C493.281 159.885 492.833 158.448 491.938 157.594C491.042 156.74 489.677 156.312 487.844 156.312C486.177 156.312 484.823 156.812 483.781 157.812C482.74 158.792 482.219 160.042 482.219 161.562H476.688C476.688 159.833 477.198 158.188 478.219 156.625C479.24 155.042 480.615 153.802 482.344 152.906C484.073 152.01 486 151.562 488.125 151.562C491.583 151.562 494.208 152.427 496 154.156C497.812 155.865 498.74 158.365 498.781 161.656V178.719C498.802 181.323 499.156 183.583 499.844 185.5V186H494.094ZM486.719 181.594C488.073 181.594 489.365 181.219 490.594 180.469C491.823 179.719 492.719 178.781 493.281 177.656V169.594H490.156C487.531 169.635 485.458 170.229 483.938 171.375C482.417 172.5 481.656 174.083 481.656 176.125C481.656 178.042 482.042 179.438 482.812 180.312C483.583 181.167 484.885 181.594 486.719 181.594Z"/>
<path d="M519.125 181.906C520.958 181.906 522.427 181.344 523.531 180.219C524.635 179.073 525.24 177.448 525.344 175.344H530.562C530.438 178.594 529.281 181.292 527.094 183.438C524.927 185.562 522.271 186.625 519.125 186.625C514.938 186.625 511.74 185.312 509.531 182.688C507.344 180.042 506.25 176.115 506.25 170.906V167.188C506.25 162.083 507.344 158.208 509.531 155.562C511.719 152.896 514.906 151.562 519.094 151.562C522.552 151.562 525.292 152.656 527.312 154.844C529.354 157.031 530.438 160.021 530.562 163.812H525.344C525.219 161.312 524.615 159.438 523.531 158.188C522.469 156.938 520.99 156.312 519.094 156.312C516.635 156.312 514.812 157.125 513.625 158.75C512.438 160.354 511.823 163 511.781 166.688V171C511.781 174.979 512.365 177.792 513.531 179.438C514.719 181.083 516.583 181.906 519.125 181.906ZM519.875 186.281L519.562 187.906C520.812 188.177 521.771 188.781 522.438 189.719C523.104 190.656 523.438 191.854 523.438 193.312C523.438 195.312 522.74 196.906 521.344 198.094C519.969 199.281 517.99 199.875 515.406 199.875L515.219 196.531C517.885 196.531 519.219 195.5 519.219 193.438C519.219 192.5 518.938 191.812 518.375 191.375C517.833 190.958 516.74 190.656 515.094 190.469L515.969 186.281H519.875Z"/>
<path d="M554.344 186C554.01 185.271 553.771 184.042 553.625 182.312C551.667 185.188 549.167 186.625 546.125 186.625C543.062 186.625 540.667 185.771 538.938 184.062C537.229 182.333 536.375 179.906 536.375 176.781C536.375 173.344 537.542 170.615 539.875 168.594C542.208 166.573 545.406 165.542 549.469 165.5H553.531V161.906C553.531 159.885 553.083 158.448 552.188 157.594C551.292 156.74 549.927 156.312 548.094 156.312C546.427 156.312 545.073 156.812 544.031 157.812C542.99 158.792 542.469 160.042 542.469 161.562H536.938C536.938 159.833 537.448 158.188 538.469 156.625C539.49 155.042 540.865 153.802 542.594 152.906C544.323 152.01 546.25 151.562 548.375 151.562C551.833 151.562 554.458 152.427 556.25 154.156C558.062 155.865 558.99 158.365 559.031 161.656V178.719C559.052 181.323 559.406 183.583 560.094 185.5V186H554.344ZM546.969 181.594C548.323 181.594 549.615 181.219 550.844 180.469C552.073 179.719 552.969 178.781 553.531 177.656V169.594H550.406C547.781 169.635 545.708 170.229 544.188 171.375C542.667 172.5 541.906 174.083 541.906 176.125C541.906 178.042 542.292 179.438 543.062 180.312C543.833 181.167 545.135 181.594 546.969 181.594ZM558.156 139C558.156 141.188 557.615 143 556.531 144.438C555.448 145.854 554.052 146.562 552.344 146.562C551.615 146.562 550.99 146.458 550.469 146.25C549.948 146.021 549.271 145.594 548.438 144.969C547.604 144.323 547 143.938 546.625 143.812C546.25 143.667 545.823 143.594 545.344 143.594C544.635 143.594 544.042 143.927 543.562 144.594C543.104 145.26 542.875 146.094 542.875 147.094L539.281 146.875C539.281 144.604 539.833 142.75 540.938 141.312C542.042 139.875 543.417 139.156 545.062 139.156C545.688 139.156 546.25 139.281 546.75 139.531C547.25 139.76 547.875 140.146 548.625 140.688C549.396 141.229 550.021 141.615 550.5 141.844C550.979 142.052 551.5 142.156 552.062 142.156C552.771 142.156 553.365 141.823 553.844 141.156C554.323 140.469 554.562 139.625 554.562 138.625L558.156 139Z"/>
<path d="M566.469 167.531C566.469 162.615 567.656 158.729 570.031 155.875C572.427 153 575.583 151.562 579.5 151.562C583.417 151.562 586.562 152.958 588.938 155.75C591.333 158.542 592.562 162.344 592.625 167.156V170.719C592.625 175.615 591.438 179.49 589.062 182.344C586.688 185.198 583.521 186.625 579.562 186.625C575.646 186.625 572.5 185.24 570.125 182.469C567.771 179.698 566.552 175.948 566.469 171.219V167.531ZM572 170.719C572 174.198 572.677 176.938 574.031 178.938C575.406 180.917 577.25 181.906 579.562 181.906C584.438 181.906 586.948 178.385 587.094 171.344V167.531C587.094 164.073 586.406 161.344 585.031 159.344C583.656 157.323 581.812 156.312 579.5 156.312C577.229 156.312 575.406 157.323 574.031 159.344C572.677 161.344 572 164.062 572 167.5V170.719Z"/>
</mask>
<path d="M55.125 174.125H39.75L36.2188 186H30.3438L45 140.5H49.9062L64.5938 186H58.7188L55.125 174.125ZM41.25 169.188H53.6562L47.4375 148.5L41.25 169.188Z" fill="white"/>
<path d="M89.9062 152.188L90.0312 155.312C92.0938 152.812 94.8125 151.562 98.1875 151.562C101.958 151.562 104.594 153.198 106.094 156.469C108.219 153.198 111.177 151.562 114.969 151.562C121.198 151.562 124.385 155.448 124.531 163.219V186H119.031V163.75C119.031 161.292 118.594 159.469 117.719 158.281C116.844 157.073 115.365 156.469 113.281 156.469C111.615 156.469 110.26 157.115 109.219 158.406C108.177 159.698 107.573 161.344 107.406 163.344V186H101.844V163.5C101.781 158.812 99.875 156.469 96.125 156.469C93.3333 156.469 91.3646 157.865 90.2188 160.656V186H84.7188V152.188H89.9062Z" fill="white"/>
<path d="M150.281 186C149.948 185.271 149.708 184.042 149.562 182.312C147.604 185.188 145.104 186.625 142.062 186.625C139 186.625 136.604 185.771 134.875 184.062C133.167 182.333 132.312 179.906 132.312 176.781C132.312 173.344 133.479 170.615 135.812 168.594C138.146 166.573 141.344 165.542 145.406 165.5H149.469V161.906C149.469 159.885 149.021 158.448 148.125 157.594C147.229 156.74 145.865 156.312 144.031 156.312C142.365 156.312 141.01 156.812 139.969 157.812C138.927 158.792 138.406 160.042 138.406 161.562H132.875C132.875 159.833 133.385 158.188 134.406 156.625C135.427 155.042 136.802 153.802 138.531 152.906C140.26 152.01 142.188 151.562 144.312 151.562C147.771 151.562 150.396 152.427 152.188 154.156C154 155.865 154.927 158.365 154.969 161.656V178.719C154.99 181.323 155.344 183.583 156.031 185.5V186H150.281ZM142.906 181.594C144.26 181.594 145.552 181.219 146.781 180.469C148.01 179.719 148.906 178.781 149.469 177.656V169.594H146.344C143.719 169.635 141.646 170.229 140.125 171.375C138.604 172.5 137.844 174.083 137.844 176.125C137.844 178.042 138.229 179.438 139 180.312C139.771 181.167 141.073 181.594 142.906 181.594ZM154.094 139C154.094 141.188 153.552 143 152.469 144.438C151.385 145.854 149.99 146.562 148.281 146.562C147.552 146.562 146.927 146.458 146.406 146.25C145.885 146.021 145.208 145.594 144.375 144.969C143.542 144.323 142.938 143.938 142.562 143.812C142.188 143.667 141.76 143.594 141.281 143.594C140.573 143.594 139.979 143.927 139.5 144.594C139.042 145.26 138.812 146.094 138.812 147.094L135.219 146.875C135.219 144.604 135.771 142.75 136.875 141.312C137.979 139.875 139.354 139.156 141 139.156C141.625 139.156 142.188 139.281 142.688 139.531C143.188 139.76 143.812 140.146 144.562 140.688C145.333 141.229 145.958 141.615 146.438 141.844C146.917 142.052 147.438 142.156 148 142.156C148.708 142.156 149.302 141.823 149.781 141.156C150.26 140.469 150.5 139.625 150.5 138.625L154.094 139Z" fill="white"/>
<path d="M175.656 186.625C171.448 186.625 168.219 185.375 165.969 182.875C163.719 180.354 162.573 176.667 162.531 171.812V167.719C162.531 162.677 163.625 158.729 165.812 155.875C168.021 153 171.094 151.562 175.031 151.562C178.99 151.562 181.948 152.823 183.906 155.344C185.865 157.865 186.865 161.792 186.906 167.125V170.75H168.031V171.531C168.031 175.156 168.708 177.792 170.062 179.438C171.438 181.083 173.406 181.906 175.969 181.906C177.594 181.906 179.021 181.604 180.25 181C181.5 180.375 182.667 179.396 183.75 178.062L186.625 181.562C184.229 184.938 180.573 186.625 175.656 186.625ZM175.031 156.312C172.74 156.312 171.042 157.104 169.938 158.688C168.833 160.25 168.208 162.688 168.062 166H181.375V165.25C181.229 162.042 180.646 159.75 179.625 158.375C178.625 157 177.094 156.312 175.031 156.312Z" fill="white"/>
<path d="M207.094 167.562C207.094 162.354 208.062 158.385 210 155.656C211.958 152.927 214.76 151.562 218.406 151.562C221.635 151.562 224.156 152.875 225.969 155.5V138H231.5V186H226.438L226.156 182.375C224.344 185.208 221.75 186.625 218.375 186.625C214.875 186.625 212.125 185.271 210.125 182.562C208.146 179.833 207.135 175.99 207.094 171.031V167.562ZM212.625 170.719C212.625 174.51 213.188 177.302 214.312 179.094C215.438 180.865 217.271 181.75 219.812 181.75C222.562 181.75 224.615 180.365 225.969 177.594V160.531C224.552 157.823 222.51 156.469 219.844 156.469C217.302 156.469 215.469 157.365 214.344 159.156C213.219 160.927 212.646 163.656 212.625 167.344V170.719Z" fill="white"/>
<path d="M257.406 186C257.073 185.271 256.833 184.042 256.688 182.312C254.729 185.188 252.229 186.625 249.188 186.625C246.125 186.625 243.729 185.771 242 184.062C240.292 182.333 239.438 179.906 239.438 176.781C239.438 173.344 240.604 170.615 242.938 168.594C245.271 166.573 248.469 165.542 252.531 165.5H256.594V161.906C256.594 159.885 256.146 158.448 255.25 157.594C254.354 156.74 252.99 156.312 251.156 156.312C249.49 156.312 248.135 156.812 247.094 157.812C246.052 158.792 245.531 160.042 245.531 161.562H240C240 159.833 240.51 158.188 241.531 156.625C242.552 155.042 243.927 153.802 245.656 152.906C247.385 152.01 249.312 151.562 251.438 151.562C254.896 151.562 257.521 152.427 259.312 154.156C261.125 155.865 262.052 158.365 262.094 161.656V178.719C262.115 181.323 262.469 183.583 263.156 185.5V186H257.406ZM250.031 181.594C251.385 181.594 252.677 181.219 253.906 180.469C255.135 179.719 256.031 178.781 256.594 177.656V169.594H253.469C250.844 169.635 248.771 170.229 247.25 171.375C245.729 172.5 244.969 174.083 244.969 176.125C244.969 178.042 245.354 179.438 246.125 180.312C246.896 181.167 248.198 181.594 250.031 181.594Z" fill="white"/>
<path d="M297.125 181.906C298.958 181.906 300.427 181.344 301.531 180.219C302.635 179.073 303.24 177.448 303.344 175.344H308.562C308.438 178.594 307.281 181.292 305.094 183.438C302.927 185.562 300.271 186.625 297.125 186.625C292.938 186.625 289.74 185.312 287.531 182.688C285.344 180.042 284.25 176.115 284.25 170.906V167.188C284.25 162.083 285.344 158.208 287.531 155.562C289.719 152.896 292.906 151.562 297.094 151.562C300.552 151.562 303.292 152.656 305.312 154.844C307.354 157.031 308.438 160.021 308.562 163.812H303.344C303.219 161.312 302.615 159.438 301.531 158.188C300.469 156.938 298.99 156.312 297.094 156.312C294.635 156.312 292.812 157.125 291.625 158.75C290.438 160.354 289.823 163 289.781 166.688V171C289.781 174.979 290.365 177.792 291.531 179.438C292.719 181.083 294.583 181.906 297.125 181.906Z" fill="white"/>
<path d="M313.781 167.531C313.781 162.615 314.969 158.729 317.344 155.875C319.74 153 322.896 151.562 326.812 151.562C330.729 151.562 333.875 152.958 336.25 155.75C338.646 158.542 339.875 162.344 339.938 167.156V170.719C339.938 175.615 338.75 179.49 336.375 182.344C334 185.198 330.833 186.625 326.875 186.625C322.958 186.625 319.812 185.24 317.438 182.469C315.083 179.698 313.865 175.948 313.781 171.219V167.531ZM319.312 170.719C319.312 174.198 319.99 176.938 321.344 178.938C322.719 180.917 324.562 181.906 326.875 181.906C331.75 181.906 334.26 178.385 334.406 171.344V167.531C334.406 164.073 333.719 161.344 332.344 159.344C330.969 157.323 329.125 156.312 326.812 156.312C324.542 156.312 322.719 157.323 321.344 159.344C319.99 161.344 319.312 164.062 319.312 167.5V170.719Z" fill="white"/>
<path d="M352.281 152.188L352.406 155.312C354.469 152.812 357.188 151.562 360.562 151.562C364.333 151.562 366.969 153.198 368.469 156.469C370.594 153.198 373.552 151.562 377.344 151.562C383.573 151.562 386.76 155.448 386.906 163.219V186H381.406V163.75C381.406 161.292 380.969 159.469 380.094 158.281C379.219 157.073 377.74 156.469 375.656 156.469C373.99 156.469 372.635 157.115 371.594 158.406C370.552 159.698 369.948 161.344 369.781 163.344V186H364.219V163.5C364.156 158.812 362.25 156.469 358.5 156.469C355.708 156.469 353.74 157.865 352.594 160.656V186H347.094V152.188H352.281Z" fill="white"/>
<path d="M419.688 170.719C419.688 176.073 418.719 180.062 416.781 182.688C414.865 185.312 412.146 186.625 408.625 186.625C405.229 186.625 402.615 185.344 400.781 182.781V199H395.281V152.188H400.281L400.562 155.938C402.417 153.021 405.073 151.562 408.531 151.562C412.24 151.562 415.01 152.854 416.844 155.438C418.677 158.021 419.625 161.885 419.688 167.031V170.719ZM414.188 167.562C414.188 163.771 413.604 160.979 412.438 159.188C411.271 157.375 409.396 156.469 406.812 156.469C404.167 156.469 402.156 157.792 400.781 160.438V178.031C402.135 180.615 404.167 181.906 406.875 181.906C409.375 181.906 411.208 181.01 412.375 179.219C413.562 177.406 414.167 174.646 414.188 170.938V167.562Z" fill="white"/>
<path d="M444.062 183.031C442.229 185.427 439.552 186.625 436.031 186.625C432.969 186.625 430.656 185.573 429.094 183.469C427.531 181.344 426.74 178.26 426.719 174.219V152.188H432.219V173.812C432.219 179.083 433.802 181.719 436.969 181.719C440.323 181.719 442.635 180.219 443.906 177.219V152.188H449.438V186H444.188L444.062 183.031Z" fill="white"/>
<path d="M465 144V152.188H470.094V156.656H465V177.625C465 178.958 465.219 179.969 465.656 180.656C466.094 181.344 466.844 181.688 467.906 181.688C468.635 181.688 469.375 181.562 470.125 181.312L470.062 186C468.812 186.417 467.531 186.625 466.219 186.625C464.031 186.625 462.365 185.844 461.219 184.281C460.073 182.719 459.5 180.51 459.5 177.656V156.656H454.344V152.188H459.5V144H465Z" fill="white"/>
<path d="M494.094 186C493.76 185.271 493.521 184.042 493.375 182.312C491.417 185.188 488.917 186.625 485.875 186.625C482.812 186.625 480.417 185.771 478.688 184.062C476.979 182.333 476.125 179.906 476.125 176.781C476.125 173.344 477.292 170.615 479.625 168.594C481.958 166.573 485.156 165.542 489.219 165.5H493.281V161.906C493.281 159.885 492.833 158.448 491.938 157.594C491.042 156.74 489.677 156.312 487.844 156.312C486.177 156.312 484.823 156.812 483.781 157.812C482.74 158.792 482.219 160.042 482.219 161.562H476.688C476.688 159.833 477.198 158.188 478.219 156.625C479.24 155.042 480.615 153.802 482.344 152.906C484.073 152.01 486 151.562 488.125 151.562C491.583 151.562 494.208 152.427 496 154.156C497.812 155.865 498.74 158.365 498.781 161.656V178.719C498.802 181.323 499.156 183.583 499.844 185.5V186H494.094ZM486.719 181.594C488.073 181.594 489.365 181.219 490.594 180.469C491.823 179.719 492.719 178.781 493.281 177.656V169.594H490.156C487.531 169.635 485.458 170.229 483.938 171.375C482.417 172.5 481.656 174.083 481.656 176.125C481.656 178.042 482.042 179.438 482.812 180.312C483.583 181.167 484.885 181.594 486.719 181.594Z" fill="white"/>
<path d="M519.125 181.906C520.958 181.906 522.427 181.344 523.531 180.219C524.635 179.073 525.24 177.448 525.344 175.344H530.562C530.438 178.594 529.281 181.292 527.094 183.438C524.927 185.562 522.271 186.625 519.125 186.625C514.938 186.625 511.74 185.312 509.531 182.688C507.344 180.042 506.25 176.115 506.25 170.906V167.188C506.25 162.083 507.344 158.208 509.531 155.562C511.719 152.896 514.906 151.562 519.094 151.562C522.552 151.562 525.292 152.656 527.312 154.844C529.354 157.031 530.438 160.021 530.562 163.812H525.344C525.219 161.312 524.615 159.438 523.531 158.188C522.469 156.938 520.99 156.312 519.094 156.312C516.635 156.312 514.812 157.125 513.625 158.75C512.438 160.354 511.823 163 511.781 166.688V171C511.781 174.979 512.365 177.792 513.531 179.438C514.719 181.083 516.583 181.906 519.125 181.906ZM519.875 186.281L519.562 187.906C520.812 188.177 521.771 188.781 522.438 189.719C523.104 190.656 523.438 191.854 523.438 193.312C523.438 195.312 522.74 196.906 521.344 198.094C519.969 199.281 517.99 199.875 515.406 199.875L515.219 196.531C517.885 196.531 519.219 195.5 519.219 193.438C519.219 192.5 518.938 191.812 518.375 191.375C517.833 190.958 516.74 190.656 515.094 190.469L515.969 186.281H519.875Z" fill="white"/>
<path d="M554.344 186C554.01 185.271 553.771 184.042 553.625 182.312C551.667 185.188 549.167 186.625 546.125 186.625C543.062 186.625 540.667 185.771 538.938 184.062C537.229 182.333 536.375 179.906 536.375 176.781C536.375 173.344 537.542 170.615 539.875 168.594C542.208 166.573 545.406 165.542 549.469 165.5H553.531V161.906C553.531 159.885 553.083 158.448 552.188 157.594C551.292 156.74 549.927 156.312 548.094 156.312C546.427 156.312 545.073 156.812 544.031 157.812C542.99 158.792 542.469 160.042 542.469 161.562H536.938C536.938 159.833 537.448 158.188 538.469 156.625C539.49 155.042 540.865 153.802 542.594 152.906C544.323 152.01 546.25 151.562 548.375 151.562C551.833 151.562 554.458 152.427 556.25 154.156C558.062 155.865 558.99 158.365 559.031 161.656V178.719C559.052 181.323 559.406 183.583 560.094 185.5V186H554.344ZM546.969 181.594C548.323 181.594 549.615 181.219 550.844 180.469C552.073 179.719 552.969 178.781 553.531 177.656V169.594H550.406C547.781 169.635 545.708 170.229 544.188 171.375C542.667 172.5 541.906 174.083 541.906 176.125C541.906 178.042 542.292 179.438 543.062 180.312C543.833 181.167 545.135 181.594 546.969 181.594ZM558.156 139C558.156 141.188 557.615 143 556.531 144.438C555.448 145.854 554.052 146.562 552.344 146.562C551.615 146.562 550.99 146.458 550.469 146.25C549.948 146.021 549.271 145.594 548.438 144.969C547.604 144.323 547 143.938 546.625 143.812C546.25 143.667 545.823 143.594 545.344 143.594C544.635 143.594 544.042 143.927 543.562 144.594C543.104 145.26 542.875 146.094 542.875 147.094L539.281 146.875C539.281 144.604 539.833 142.75 540.938 141.312C542.042 139.875 543.417 139.156 545.062 139.156C545.688 139.156 546.25 139.281 546.75 139.531C547.25 139.76 547.875 140.146 548.625 140.688C549.396 141.229 550.021 141.615 550.5 141.844C550.979 142.052 551.5 142.156 552.062 142.156C552.771 142.156 553.365 141.823 553.844 141.156C554.323 140.469 554.562 139.625 554.562 138.625L558.156 139Z" fill="white"/>
<path d="M566.469 167.531C566.469 162.615 567.656 158.729 570.031 155.875C572.427 153 575.583 151.562 579.5 151.562C583.417 151.562 586.562 152.958 588.938 155.75C591.333 158.542 592.562 162.344 592.625 167.156V170.719C592.625 175.615 591.438 179.49 589.062 182.344C586.688 185.198 583.521 186.625 579.562 186.625C575.646 186.625 572.5 185.24 570.125 182.469C567.771 179.698 566.552 175.948 566.469 171.219V167.531ZM572 170.719C572 174.198 572.677 176.938 574.031 178.938C575.406 180.917 577.25 181.906 579.562 181.906C584.438 181.906 586.948 178.385 587.094 171.344V167.531C587.094 164.073 586.406 161.344 585.031 159.344C583.656 157.323 581.812 156.312 579.5 156.312C577.229 156.312 575.406 157.323 574.031 159.344C572.677 161.344 572 164.062 572 167.5V170.719Z" fill="white"/>
<path d="M55.125 174.125H39.75L36.2188 186H30.3438L45 140.5H49.9062L64.5938 186H58.7188L55.125 174.125ZM41.25 169.188H53.6562L47.4375 148.5L41.25 169.188Z" stroke="black" stroke-width="6" mask="url(#path-2-outside-2_3_2)"/>
<path d="M89.9062 152.188L90.0312 155.312C92.0938 152.812 94.8125 151.562 98.1875 151.562C101.958 151.562 104.594 153.198 106.094 156.469C108.219 153.198 111.177 151.562 114.969 151.562C121.198 151.562 124.385 155.448 124.531 163.219V186H119.031V163.75C119.031 161.292 118.594 159.469 117.719 158.281C116.844 157.073 115.365 156.469 113.281 156.469C111.615 156.469 110.26 157.115 109.219 158.406C108.177 159.698 107.573 161.344 107.406 163.344V186H101.844V163.5C101.781 158.812 99.875 156.469 96.125 156.469C93.3333 156.469 91.3646 157.865 90.2188 160.656V186H84.7188V152.188H89.9062Z" stroke="black" stroke-width="6" mask="url(#path-2-outside-2_3_2)"/>
<path d="M150.281 186C149.948 185.271 149.708 184.042 149.562 182.312C147.604 185.188 145.104 186.625 142.062 186.625C139 186.625 136.604 185.771 134.875 184.062C133.167 182.333 132.312 179.906 132.312 176.781C132.312 173.344 133.479 170.615 135.812 168.594C138.146 166.573 141.344 165.542 145.406 165.5H149.469V161.906C149.469 159.885 149.021 158.448 148.125 157.594C147.229 156.74 145.865 156.312 144.031 156.312C142.365 156.312 141.01 156.812 139.969 157.812C138.927 158.792 138.406 160.042 138.406 161.562H132.875C132.875 159.833 133.385 158.188 134.406 156.625C135.427 155.042 136.802 153.802 138.531 152.906C140.26 152.01 142.188 151.562 144.312 151.562C147.771 151.562 150.396 152.427 152.188 154.156C154 155.865 154.927 158.365 154.969 161.656V178.719C154.99 181.323 155.344 183.583 156.031 185.5V186H150.281ZM142.906 181.594C144.26 181.594 145.552 181.219 146.781 180.469C148.01 179.719 148.906 178.781 149.469 177.656V169.594H146.344C143.719 169.635 141.646 170.229 140.125 171.375C138.604 172.5 137.844 174.083 137.844 176.125C137.844 178.042 138.229 179.438 139 180.312C139.771 181.167 141.073 181.594 142.906 181.594ZM154.094 139C154.094 141.188 153.552 143 152.469 144.438C151.385 145.854 149.99 146.562 148.281 146.562C147.552 146.562 146.927 146.458 146.406 146.25C145.885 146.021 145.208 145.594 144.375 144.969C143.542 144.323 142.938 143.938 142.562 143.812C142.188 143.667 141.76 143.594 141.281 143.594C140.573 143.594 139.979 143.927 139.5 144.594C139.042 145.26 138.812 146.094 138.812 147.094L135.219 146.875C135.219 144.604 135.771 142.75 136.875 141.312C137.979 139.875 139.354 139.156 141 139.156C141.625 139.156 142.188 139.281 142.688 139.531C143.188 139.76 143.812 140.146 144.562 140.688C145.333 141.229 145.958 141.615 146.438 141.844C146.917 142.052 147.438 142.156 148 142.156C148.708 142.156 149.302 141.823 149.781 141.156C150.26 140.469 150.5 139.625 150.5 138.625L154.094 139Z" stroke="black" stroke-width="6" mask="url(#path-2-outside-2_3_2)"/>
<path d="M175.656 186.625C171.448 186.625 168.219 185.375 165.969 182.875C163.719 180.354 162.573 176.667 162.531 171.812V167.719C162.531 162.677 163.625 158.729 165.812 155.875C168.021 153 171.094 151.562 175.031 151.562C178.99 151.562 181.948 152.823 183.906 155.344C185.865 157.865 186.865 161.792 186.906 167.125V170.75H168.031V171.531C168.031 175.156 168.708 177.792 170.062 179.438C171.438 181.083 173.406 181.906 175.969 181.906C177.594 181.906 179.021 181.604 180.25 181C181.5 180.375 182.667 179.396 183.75 178.062L186.625 181.562C184.229 184.938 180.573 186.625 175.656 186.625ZM175.031 156.312C172.74 156.312 171.042 157.104 169.938 158.688C168.833 160.25 168.208 162.688 168.062 166H181.375V165.25C181.229 162.042 180.646 159.75 179.625 158.375C178.625 157 177.094 156.312 175.031 156.312Z" stroke="black" stroke-width="6" mask="url(#path-2-outside-2_3_2)"/>
<path d="M207.094 167.562C207.094 162.354 208.062 158.385 210 155.656C211.958 152.927 214.76 151.562 218.406 151.562C221.635 151.562 224.156 152.875 225.969 155.5V138H231.5V186H226.438L226.156 182.375C224.344 185.208 221.75 186.625 218.375 186.625C214.875 186.625 212.125 185.271 210.125 182.562C208.146 179.833 207.135 175.99 207.094 171.031V167.562ZM212.625 170.719C212.625 174.51 213.188 177.302 214.312 179.094C215.438 180.865 217.271 181.75 219.812 181.75C222.562 181.75 224.615 180.365 225.969 177.594V160.531C224.552 157.823 222.51 156.469 219.844 156.469C217.302 156.469 215.469 157.365 214.344 159.156C213.219 160.927 212.646 163.656 212.625 167.344V170.719Z" stroke="black" stroke-width="6" mask="url(#path-2-outside-2_3_2)"/>
<path d="M257.406 186C257.073 185.271 256.833 184.042 256.688 182.312C254.729 185.188 252.229 186.625 249.188 186.625C246.125 186.625 243.729 185.771 242 184.062C240.292 182.333 239.438 179.906 239.438 176.781C239.438 173.344 240.604 170.615 242.938 168.594C245.271 166.573 248.469 165.542 252.531 165.5H256.594V161.906C256.594 159.885 256.146 158.448 255.25 157.594C254.354 156.74 252.99 156.312 251.156 156.312C249.49 156.312 248.135 156.812 247.094 157.812C246.052 158.792 245.531 160.042 245.531 161.562H240C240 159.833 240.51 158.188 241.531 156.625C242.552 155.042 243.927 153.802 245.656 152.906C247.385 152.01 249.312 151.562 251.438 151.562C254.896 151.562 257.521 152.427 259.312 154.156C261.125 155.865 262.052 158.365 262.094 161.656V178.719C262.115 181.323 262.469 183.583 263.156 185.5V186H257.406ZM250.031 181.594C251.385 181.594 252.677 181.219 253.906 180.469C255.135 179.719 256.031 178.781 256.594 177.656V169.594H253.469C250.844 169.635 248.771 170.229 247.25 171.375C245.729 172.5 244.969 174.083 244.969 176.125C244.969 178.042 245.354 179.438 246.125 180.312C246.896 181.167 248.198 181.594 250.031 181.594Z" stroke="black" stroke-width="6" mask="url(#path-2-outside-2_3_2)"/>
<path d="M297.125 181.906C298.958 181.906 300.427 181.344 301.531 180.219C302.635 179.073 303.24 177.448 303.344 175.344H308.562C308.438 178.594 307.281 181.292 305.094 183.438C302.927 185.562 300.271 186.625 297.125 186.625C292.938 186.625 289.74 185.312 287.531 182.688C285.344 180.042 284.25 176.115 284.25 170.906V167.188C284.25 162.083 285.344 158.208 287.531 155.562C289.719 152.896 292.906 151.562 297.094 151.562C300.552 151.562 303.292 152.656 305.312 154.844C307.354 157.031 308.438 160.021 308.562 163.812H303.344C303.219 161.312 302.615 159.438 301.531 158.188C300.469 156.938 298.99 156.312 297.094 156.312C294.635 156.312 292.812 157.125 291.625 158.75C290.438 160.354 289.823 163 289.781 166.688V171C289.781 174.979 290.365 177.792 291.531 179.438C292.719 181.083 294.583 181.906 297.125 181.906Z" stroke="black" stroke-width="6" mask="url(#path-2-outside-2_3_2)"/>
<path d="M313.781 167.531C313.781 162.615 314.969 158.729 317.344 155.875C319.74 153 322.896 151.562 326.812 151.562C330.729 151.562 333.875 152.958 336.25 155.75C338.646 158.542 339.875 162.344 339.938 167.156V170.719C339.938 175.615 338.75 179.49 336.375 182.344C334 185.198 330.833 186.625 326.875 186.625C322.958 186.625 319.812 185.24 317.438 182.469C315.083 179.698 313.865 175.948 313.781 171.219V167.531ZM319.312 170.719C319.312 174.198 319.99 176.938 321.344 178.938C322.719 180.917 324.562 181.906 326.875 181.906C331.75 181.906 334.26 178.385 334.406 171.344V167.531C334.406 164.073 333.719 161.344 332.344 159.344C330.969 157.323 329.125 156.312 326.812 156.312C324.542 156.312 322.719 157.323 321.344 159.344C319.99 161.344 319.312 164.062 319.312 167.5V170.719Z" stroke="black" stroke-width="6" mask="url(#path-2-outside-2_3_2)"/>
<path d="M352.281 152.188L352.406 155.312C354.469 152.812 357.188 151.562 360.562 151.562C364.333 151.562 366.969 153.198 368.469 156.469C370.594 153.198 373.552 151.562 377.344 151.562C383.573 151.562 386.76 155.448 386.906 163.219V186H381.406V163.75C381.406 161.292 380.969 159.469 380.094 158.281C379.219 157.073 377.74 156.469 375.656 156.469C373.99 156.469 372.635 157.115 371.594 158.406C370.552 159.698 369.948 161.344 369.781 163.344V186H364.219V163.5C364.156 158.812 362.25 156.469 358.5 156.469C355.708 156.469 353.74 157.865 352.594 160.656V186H347.094V152.188H352.281Z" stroke="black" stroke-width="6" mask="url(#path-2-outside-2_3_2)"/>
<path d="M419.688 170.719C419.688 176.073 418.719 180.062 416.781 182.688C414.865 185.312 412.146 186.625 408.625 186.625C405.229 186.625 402.615 185.344 400.781 182.781V199H395.281V152.188H400.281L400.562 155.938C402.417 153.021 405.073 151.562 408.531 151.562C412.24 151.562 415.01 152.854 416.844 155.438C418.677 158.021 419.625 161.885 419.688 167.031V170.719ZM414.188 167.562C414.188 163.771 413.604 160.979 412.438 159.188C411.271 157.375 409.396 156.469 406.812 156.469C404.167 156.469 402.156 157.792 400.781 160.438V178.031C402.135 180.615 404.167 181.906 406.875 181.906C409.375 181.906 411.208 181.01 412.375 179.219C413.562 177.406 414.167 174.646 414.188 170.938V167.562Z" stroke="black" stroke-width="6" mask="url(#path-2-outside-2_3_2)"/>
<path d="M444.062 183.031C442.229 185.427 439.552 186.625 436.031 186.625C432.969 186.625 430.656 185.573 429.094 183.469C427.531 181.344 426.74 178.26 426.719 174.219V152.188H432.219V173.812C432.219 179.083 433.802 181.719 436.969 181.719C440.323 181.719 442.635 180.219 443.906 177.219V152.188H449.438V186H444.188L444.062 183.031Z" stroke="black" stroke-width="6" mask="url(#path-2-outside-2_3_2)"/>
<path d="M465 144V152.188H470.094V156.656H465V177.625C465 178.958 465.219 179.969 465.656 180.656C466.094 181.344 466.844 181.688 467.906 181.688C468.635 181.688 469.375 181.562 470.125 181.312L470.062 186C468.812 186.417 467.531 186.625 466.219 186.625C464.031 186.625 462.365 185.844 461.219 184.281C460.073 182.719 459.5 180.51 459.5 177.656V156.656H454.344V152.188H459.5V144H465Z" stroke="black" stroke-width="6" mask="url(#path-2-outside-2_3_2)"/>
<path d="M494.094 186C493.76 185.271 493.521 184.042 493.375 182.312C491.417 185.188 488.917 186.625 485.875 186.625C482.812 186.625 480.417 185.771 478.688 184.062C476.979 182.333 476.125 179.906 476.125 176.781C476.125 173.344 477.292 170.615 479.625 168.594C481.958 166.573 485.156 165.542 489.219 165.5H493.281V161.906C493.281 159.885 492.833 158.448 491.938 157.594C491.042 156.74 489.677 156.312 487.844 156.312C486.177 156.312 484.823 156.812 483.781 157.812C482.74 158.792 482.219 160.042 482.219 161.562H476.688C476.688 159.833 477.198 158.188 478.219 156.625C479.24 155.042 480.615 153.802 482.344 152.906C484.073 152.01 486 151.562 488.125 151.562C491.583 151.562 494.208 152.427 496 154.156C497.812 155.865 498.74 158.365 498.781 161.656V178.719C498.802 181.323 499.156 183.583 499.844 185.5V186H494.094ZM486.719 181.594C488.073 181.594 489.365 181.219 490.594 180.469C491.823 179.719 492.719 178.781 493.281 177.656V169.594H490.156C487.531 169.635 485.458 170.229 483.938 171.375C482.417 172.5 481.656 174.083 481.656 176.125C481.656 178.042 482.042 179.438 482.812 180.312C483.583 181.167 484.885 181.594 486.719 181.594Z" stroke="black" stroke-width="6" mask="url(#path-2-outside-2_3_2)"/>
<path d="M519.125 181.906C520.958 181.906 522.427 181.344 523.531 180.219C524.635 179.073 525.24 177.448 525.344 175.344H530.562C530.438 178.594 529.281 181.292 527.094 183.438C524.927 185.562 522.271 186.625 519.125 186.625C514.938 186.625 511.74 185.312 509.531 182.688C507.344 180.042 506.25 176.115 506.25 170.906V167.188C506.25 162.083 507.344 158.208 509.531 155.562C511.719 152.896 514.906 151.562 519.094 151.562C522.552 151.562 525.292 152.656 527.312 154.844C529.354 157.031 530.438 160.021 530.562 163.812H525.344C525.219 161.312 524.615 159.438 523.531 158.188C522.469 156.938 520.99 156.312 519.094 156.312C516.635 156.312 514.812 157.125 513.625 158.75C512.438 160.354 511.823 163 511.781 166.688V171C511.781 174.979 512.365 177.792 513.531 179.438C514.719 181.083 516.583 181.906 519.125 181.906ZM519.875 186.281L519.562 187.906C520.812 188.177 521.771 188.781 522.438 189.719C523.104 190.656 523.438 191.854 523.438 193.312C523.438 195.312 522.74 196.906 521.344 198.094C519.969 199.281 517.99 199.875 515.406 199.875L515.219 196.531C517.885 196.531 519.219 195.5 519.219 193.438C519.219 192.5 518.938 191.812 518.375 191.375C517.833 190.958 516.74 190.656 515.094 190.469L515.969 186.281H519.875Z" stroke="black" stroke-width="6" mask="url(#path-2-outside-2_3_2)"/>
<path d="M554.344 186C554.01 185.271 553.771 184.042 553.625 182.312C551.667 185.188 549.167 186.625 546.125 186.625C543.062 186.625 540.667 185.771 538.938 184.062C537.229 182.333 536.375 179.906 536.375 176.781C536.375 173.344 537.542 170.615 539.875 168.594C542.208 166.573 545.406 165.542 549.469 165.5H553.531V161.906C553.531 159.885 553.083 158.448 552.188 157.594C551.292 156.74 549.927 156.312 548.094 156.312C546.427 156.312 545.073 156.812 544.031 157.812C542.99 158.792 542.469 160.042 542.469 161.562H536.938C536.938 159.833 537.448 158.188 538.469 156.625C539.49 155.042 540.865 153.802 542.594 152.906C544.323 152.01 546.25 151.562 548.375 151.562C551.833 151.562 554.458 152.427 556.25 154.156C558.062 155.865 558.99 158.365 559.031 161.656V178.719C559.052 181.323 559.406 183.583 560.094 185.5V186H554.344ZM546.969 181.594C548.323 181.594 549.615 181.219 550.844 180.469C552.073 179.719 552.969 178.781 553.531 177.656V169.594H550.406C547.781 169.635 545.708 170.229 544.188 171.375C542.667 172.5 541.906 174.083 541.906 176.125C541.906 178.042 542.292 179.438 543.062 180.312C543.833 181.167 545.135 181.594 546.969 181.594ZM558.156 139C558.156 141.188 557.615 143 556.531 144.438C555.448 145.854 554.052 146.562 552.344 146.562C551.615 146.562 550.99 146.458 550.469 146.25C549.948 146.021 549.271 145.594 548.438 144.969C547.604 144.323 547 143.938 546.625 143.812C546.25 143.667 545.823 143.594 545.344 143.594C544.635 143.594 544.042 143.927 543.562 144.594C543.104 145.26 542.875 146.094 542.875 147.094L539.281 146.875C539.281 144.604 539.833 142.75 540.938 141.312C542.042 139.875 543.417 139.156 545.062 139.156C545.688 139.156 546.25 139.281 546.75 139.531C547.25 139.76 547.875 140.146 548.625 140.688C549.396 141.229 550.021 141.615 550.5 141.844C550.979 142.052 551.5 142.156 552.062 142.156C552.771 142.156 553.365 141.823 553.844 141.156C554.323 140.469 554.562 139.625 554.562 138.625L558.156 139Z" stroke="black" stroke-width="6" mask="url(#path-2-outside-2_3_2)"/>
<path d="M566.469 167.531C566.469 162.615 567.656 158.729 570.031 155.875C572.427 153 575.583 151.562 579.5 151.562C583.417 151.562 586.562 152.958 588.938 155.75C591.333 158.542 592.562 162.344 592.625 167.156V170.719C592.625 175.615 591.438 179.49 589.062 182.344C586.688 185.198 583.521 186.625 579.562 186.625C575.646 186.625 572.5 185.24 570.125 182.469C567.771 179.698 566.552 175.948 566.469 171.219V167.531ZM572 170.719C572 174.198 572.677 176.938 574.031 178.938C575.406 180.917 577.25 181.906 579.562 181.906C584.438 181.906 586.948 178.385 587.094 171.344V167.531C587.094 164.073 586.406 161.344 585.031 159.344C583.656 157.323 581.812 156.312 579.5 156.312C577.229 156.312 575.406 157.323 574.031 159.344C572.677 161.344 572 164.062 572 167.5V170.719Z" stroke="black" stroke-width="6" mask="url(#path-2-outside-2_3_2)"/>
<defs>
<filter id="filter0_d_3_2" x="0.0093689" y="0.039978" width="631.594" height="134.64" filterUnits="userSpaceOnUse" color-interpolation-filters="sRGB">
<feFlood flood-opacity="0" result="BackgroundImageFix"/>
<feColorMatrix in="SourceAlpha" type="matrix" values="0 0 0 0 0 0 0 0 0 0 0 0 0 0 0 0 0 0 127 0" result="hardAlpha"/>
<feOffset dy="6"/>
<feGaussianBlur stdDeviation="5.5"/>
<feComposite in2="hardAlpha" operator="out"/>
<feColorMatrix type="matrix" values="0 0 0 0 0 0 0 0 0 0 0 0 0 0 0 0 0 0 1 0"/>
<feBlend mode="normal" in2="BackgroundImageFix" result="effect1_dropShadow_3_2"/>
<feBlend mode="normal" in="SourceGraphic" in2="effect1_dropShadow_3_2" result="shape"/>
</filter>
</defs>
</svg>
