<svg width="624" height="199" viewBox="0 0 624 199" fill="none" xmlns="http://www.w3.org/2000/svg">
<g filter="url(#filter0_d_3_2)">
<path d="M13.0494 106.08C11.6894 106.08 11.0094 105.44 11.0094 104.16C11.0094 103.68 11.0494 103.36 11.1294 103.2C14.0894 96.72 22.1294 87.04 35.2494 74.16C34.8494 74.24 34.4894 74.32 34.1694 74.4C33.8494 74.4 33.6094 74.4 33.4494 74.4C32.0894 74.4 31.4094 73.64 31.4094 72.12C31.4094 71.24 32.0894 70.68 33.4494 70.44C34.2494 70.28 35.0894 70.16 35.9694 70.08C36.9294 69.92 38.1294 69.68 39.5694 69.36C49.2494 59.28 58.5694 50.64 67.5294 43.44C76.5694 36.16 85.2094 30.2 93.4494 25.56C94.1694 25.16 94.8094 24.84 95.3694 24.6C95.9294 24.28 96.4094 24.12 96.8094 24.12C97.7694 24.12 98.2494 24.76 98.2494 26.04C98.2494 28.44 95.8494 36.68 91.0494 50.76L85.7694 66.24C87.8494 66.24 88.8894 66.88 88.8894 68.16C88.8894 69.6 87.5294 70.32 84.8094 70.32C83.2894 74.48 81.8494 79.08 80.4894 84.12C79.2094 89.08 78.1294 94.2 77.2494 99.48C76.9294 101.16 76.2094 102 75.0894 102C73.7294 102 73.0494 101.28 73.0494 99.84C73.0494 99.6 73.1294 99.08 73.2894 98.28C73.4494 97.48 73.6894 96.44 74.0094 95.16C74.9694 90.52 75.8094 86.68 76.5294 83.64C77.3294 80.6 78.0094 78.04 78.5694 75.96C79.2094 73.8 79.7694 71.84 80.2494 70.08C65.5294 70.4 52.5694 71.48 41.3694 73.32C38.1694 76.6 35.4894 79.4 33.3294 81.72C31.1694 83.96 29.5694 85.64 28.5294 86.76C23.7294 92.04 19.8894 96.84 17.0094 101.16C16.7694 101.56 16.4894 102.08 16.1694 102.72C15.7694 103.36 15.2894 104.12 14.7294 105C14.4094 105.72 13.8494 106.08 13.0494 106.08ZM46.2894 68.4C50.9294 67.76 56.1694 67.28 62.0094 66.96C67.8494 66.56 74.4094 66.28 81.6894 66.12C82.8894 62.44 84.0894 58.88 85.2894 55.44C86.4894 51.92 87.6494 48.56 88.7694 45.36C90.1294 41.84 91.9294 36.56 94.1694 29.52C84.8894 34.88 76.2494 40.8 68.2494 47.28C60.3294 53.76 53.0094 60.8 46.2894 68.4Z" fill="#FF00E5"/>
<path d="M138.687 109.68C138.047 109.68 137.247 109.36 136.287 108.72C135.407 108.16 134.727 107.6 134.247 107.04C133.287 105.84 132.647 104.4 132.327 102.72C132.007 101.04 131.847 99.2 131.847 97.2C131.847 95.52 131.887 93.72 131.967 91.8C132.127 89.8 132.367 87.68 132.687 85.44C130.607 87.84 128.247 90.2 125.607 92.52C123.047 94.76 120.407 96.6 117.687 98.04C115.047 99.48 112.527 100.2 110.127 100.2C104.127 100.2 101.127 97 101.127 90.6C101.127 83.96 103.447 77.56 108.087 71.4C110.407 68.36 113.047 65.44 116.007 62.64C118.967 59.84 122.087 57.56 125.367 55.8C128.647 54.04 131.887 53.16 135.087 53.16C137.487 53.16 139.607 54.08 141.447 55.92C141.607 55.6 141.807 55.08 142.047 54.36C142.367 53.64 142.807 52.72 143.367 51.6C145.287 47.44 147.407 43.12 149.727 38.64C152.047 34.08 154.127 30.32 155.967 27.36C158.047 24.08 160.007 22.44 161.847 22.44C163.127 22.44 163.767 23.44 163.767 25.44C163.767 28.88 160.527 36.92 154.047 49.56C153.647 50.28 152.927 51.6 151.887 53.52C150.927 55.36 149.767 57.52 148.407 60C147.127 62.4 145.807 64.8 144.447 67.2C143.087 69.6 141.847 71.76 140.727 73.68C139.687 75.52 138.927 76.8 138.447 77.52C137.567 81.12 136.887 84.56 136.407 87.84C135.927 91.04 135.687 94.36 135.687 97.8C135.687 99.08 135.727 100.24 135.807 101.28C135.967 102.4 136.287 103.28 136.767 103.92C137.167 104.4 137.607 104.76 138.087 105C138.567 105.32 139.127 105.6 139.767 105.84C140.727 106.08 141.207 106.64 141.207 107.52C141.207 108.96 140.367 109.68 138.687 109.68ZM144.327 59.52C147.367 54.32 150.047 49.48 152.367 45C154.687 40.44 156.567 36.16 158.007 32.16C154.807 36.32 152.127 40.72 149.967 45.36C147.807 50 145.927 54.72 144.327 59.52ZM109.287 96.6C111.607 96.6 114.047 95.84 116.607 94.32C119.247 92.72 121.727 90.84 124.047 88.68C126.127 86.76 128.047 84.8 129.807 82.8C131.567 80.72 133.207 78.6 134.727 76.44C135.367 73.64 136.087 70.88 136.887 68.16C137.767 65.44 138.727 62.72 139.767 60C138.487 58 136.687 57 134.367 57C131.967 57 129.287 57.92 126.327 59.76C123.447 61.52 120.647 63.72 117.927 66.36C115.287 69 113.007 71.52 111.087 73.92C107.087 79.28 105.087 84.96 105.087 90.96C105.087 94.72 106.487 96.6 109.287 96.6Z" fill="#FF00E5"/>
<path d="M155.243 100.2C150.603 100.2 148.283 98 148.283 93.6C148.283 90.72 148.963 87.64 150.323 84.36C151.763 81 153.683 77.76 156.083 74.64C158.483 71.44 161.163 68.56 164.123 66C167.083 63.36 170.123 61.28 173.243 59.76C176.363 58.16 179.363 57.36 182.243 57.36C187.363 57.36 189.923 59.88 189.923 64.92C189.923 68.2 189.123 69.84 187.523 69.84C186.083 69.84 185.363 69.16 185.363 67.8C185.363 67.24 185.483 66.68 185.723 66.12C186.043 65.48 186.203 64.8 186.203 64.08C186.203 61.84 184.683 60.72 181.643 60.72C176.763 60.72 170.643 64.44 163.283 71.88C161.523 73.72 159.803 75.88 158.123 78.36C156.443 80.84 155.043 83.36 153.923 85.92C152.883 88.4 152.363 90.76 152.363 93C152.363 95.16 153.563 96.24 155.963 96.24C158.043 96.24 160.243 95.6 162.563 94.32C164.963 93.04 167.043 91.72 168.803 90.36C172.323 87.72 175.923 84.12 179.603 79.56C180.163 78.92 180.883 78.08 181.763 77.04C182.643 76 183.643 74.84 184.763 73.56C185.163 73.16 185.643 72.96 186.203 72.96C187.483 72.96 188.123 73.6 188.123 74.88L183.563 81.72C180.523 86.2 179.003 89.88 179.003 92.76C179.003 94.84 180.003 95.88 182.003 95.88C183.683 95.88 185.523 95.44 187.523 94.56C189.523 93.68 191.163 92.8 192.443 91.92C195.003 90.24 197.683 88.16 200.483 85.68C203.283 83.12 205.963 80.56 208.523 78C208.843 77.68 209.323 77.52 209.963 77.52C211.163 77.52 211.763 78 211.763 78.96C211.763 79.84 211.203 80.84 210.083 81.96C206.883 85.16 204.003 87.92 201.443 90.24C198.883 92.48 196.443 94.32 194.123 95.76C192.603 96.64 190.723 97.56 188.483 98.52C186.243 99.48 183.683 99.96 180.803 99.96C176.883 99.96 174.923 97.88 174.923 93.72C174.923 92.12 175.123 90.8 175.523 89.76C168.243 96.72 161.483 100.2 155.243 100.2Z" fill="#FF00E5"/>
<path d="M234.237 104.16C233.677 104.16 233.037 103.88 232.317 103.32C231.597 102.76 231.237 102.16 231.237 101.52C231.237 100.8 232.037 98.96 233.637 96C235.237 93.04 237.797 88.6 241.317 82.68C244.837 76.76 249.437 69.08 255.117 59.64L270.837 33.36C271.717 31.76 272.797 29.88 274.077 27.72C275.357 25.56 276.917 23 278.757 20.04C279.237 19.32 279.757 18.96 280.317 18.96C280.877 18.96 281.437 19.24 281.997 19.8C282.557 20.28 282.837 20.8 282.837 21.36C282.837 21.68 280.837 25.24 276.837 32.04C272.837 38.76 266.797 48.8 258.717 62.16C255.677 67.2 252.357 72.76 248.757 78.84C245.237 84.92 241.477 91.52 237.477 98.64C260.677 92.4 278.517 89.28 290.997 89.28C294.757 89.28 297.877 89.92 300.357 91.2C302.917 92.4 304.197 93.6 304.197 94.8C304.197 96.16 303.517 96.84 302.157 96.84C301.037 96.84 300.477 96.24 300.477 95.04V94.68C299.677 94.28 298.317 93.96 296.397 93.72C294.477 93.48 292.277 93.36 289.797 93.36C286.757 93.36 283.317 93.64 279.477 94.2C275.637 94.68 271.717 95.32 267.717 96.12C263.797 96.84 260.117 97.6 256.677 98.4C253.317 99.12 250.117 99.88 247.077 100.68C244.117 101.56 241.357 102.32 238.797 102.96C237.277 103.28 236.157 103.56 235.437 103.8C234.797 104.04 234.397 104.16 234.237 104.16Z" fill="#FF00E5"/>
<path d="M322.811 98.4C316.331 98.4 313.091 94.76 313.091 87.48C313.091 84.12 313.891 80.6 315.491 76.92C317.091 73.24 319.211 69.84 321.851 66.72C324.491 63.52 327.411 60.92 330.611 58.92C333.891 56.92 337.211 55.92 340.571 55.92C343.531 55.92 345.691 57.04 347.051 59.28C348.411 61.52 349.091 64 349.091 66.72C349.091 70.32 348.371 74 346.931 77.76C345.491 81.44 343.531 84.84 341.051 87.96C338.571 91.08 335.771 93.6 332.651 95.52C329.531 97.44 326.251 98.4 322.811 98.4ZM322.691 94.56C323.171 94.56 323.451 94.52 323.531 94.44C326.651 94.04 329.531 92.92 332.171 91.08C334.811 89.24 337.091 86.96 339.011 84.24C341.011 81.44 342.531 78.44 343.571 75.24C344.611 72.04 345.131 68.88 345.131 65.76C345.131 63.92 344.611 62.48 343.571 61.44C342.531 60.4 341.211 59.88 339.611 59.88C337.291 59.88 334.811 60.84 332.171 62.76C329.611 64.68 327.171 67.12 324.851 70.08C322.611 73.04 320.771 76.16 319.331 79.44C317.891 82.64 317.171 85.52 317.171 88.08C317.171 92.4 319.011 94.56 322.691 94.56Z" fill="#FF00E5"/>
<path d="M360.012 100.2C359.052 100.2 358.572 99.84 358.572 99.12C357.292 96.88 356.652 92.28 356.652 85.32C356.652 83.64 356.772 81.4 357.012 78.6C357.252 75.8 357.572 72.88 357.972 69.84C358.372 66.8 358.812 64.04 359.292 61.56C359.772 59 360.292 57.16 360.852 56.04C361.332 55.08 361.932 54.6 362.652 54.6C363.932 54.6 364.572 55.12 364.572 56.16C364.572 56.72 364.492 57.28 364.332 57.84C364.172 58.32 364.012 58.92 363.852 59.64C362.812 63.64 361.972 67.88 361.332 72.36C360.772 76.84 360.492 81.44 360.492 86.16C360.492 88.32 360.572 90.24 360.732 91.92C360.972 93.6 361.212 95.04 361.452 96.24C363.692 95.36 366.172 93.64 368.892 91.08C371.612 88.44 374.252 85.52 376.812 82.32C378.892 79.68 380.772 77 382.452 74.28C384.212 71.56 385.572 69 386.532 66.6C387.572 64.2 388.092 62.24 388.092 60.72C388.092 59.68 387.972 58.96 387.732 58.56C387.572 58.16 387.372 57.84 387.132 57.6C386.892 57.36 386.772 56.92 386.772 56.28C386.772 55.08 387.372 54.48 388.572 54.48C389.372 54.48 390.092 55.08 390.732 56.28C391.372 57.48 391.692 59 391.692 60.84C391.692 66.52 387.732 74.48 379.812 84.72C371.652 95.04 365.052 100.2 360.012 100.2Z" fill="#FF00E5"/>
<path d="M403.841 101.16C400.481 101.16 397.841 100 395.921 97.68C394.001 95.36 393.041 92.52 393.041 89.16C393.041 83.4 394.961 77.48 398.801 71.4C399.841 69.72 401.041 68.08 402.401 66.48C403.761 64.8 405.241 63.2 406.841 61.68C409.241 59.36 411.761 57.44 414.401 55.92C417.041 54.4 419.601 53.64 422.081 53.64C426.161 53.64 428.201 55.56 428.201 59.4C428.201 64.2 425.401 68.56 419.801 72.48C414.601 76 409.481 77.76 404.441 77.76C403.561 77.76 402.761 77.72 402.041 77.64C401.401 77.48 400.801 77.32 400.241 77.16C399.441 78.68 398.721 80.64 398.081 83.04C397.441 85.44 397.121 87.52 397.121 89.28C397.121 94.56 399.441 97.2 404.081 97.2C407.841 97.2 411.401 96.56 414.761 95.28C418.121 93.92 422.121 91.4 426.761 87.72C429.641 85.48 431.801 83.68 433.241 82.32C434.681 80.96 436.241 79.52 437.921 78C438.401 77.68 438.841 77.52 439.241 77.52C439.641 77.52 440.041 77.64 440.441 77.88C440.841 78.12 441.041 78.48 441.041 78.96C441.041 79.84 440.241 81.08 438.641 82.68C437.281 83.96 435.841 85.32 434.321 86.76C432.801 88.12 430.401 90.04 427.121 92.52C423.601 95.24 419.761 97.36 415.601 98.88C411.441 100.4 407.521 101.16 403.841 101.16ZM403.721 73.92C406.281 73.92 408.721 73.52 411.041 72.72C413.361 71.92 415.561 70.76 417.641 69.24C422.281 65.8 424.601 62.56 424.601 59.52C424.601 58.16 423.761 57.48 422.081 57.48C418.881 57.48 415.161 59.44 410.921 63.36C408.841 65.28 407.121 67.04 405.761 68.64C404.481 70.16 403.281 71.84 402.161 73.68C402.641 73.84 403.161 73.92 403.721 73.92Z" fill="#FF00E5"/>
<path d="M447.108 102.24C443.428 102.24 440.588 101.12 438.588 98.88C436.668 96.56 435.708 93.52 435.708 89.76C435.708 87.04 436.188 83.76 437.148 79.92C438.828 73.44 441.668 65.92 445.668 57.36C448.788 50.88 452.148 44.52 455.748 38.28C459.348 31.96 463.308 25.76 467.628 19.68C474.508 9.91998 479.308 5.03998 482.028 5.03998C483.788 5.03998 484.668 5.51998 484.668 6.47998C484.668 7.83998 482.428 11.24 477.948 16.68L469.548 26.88C462.268 35.68 456.308 44.68 451.668 53.88C447.108 63.08 443.548 72.28 440.988 81.48C440.268 84.12 439.908 86.6 439.908 88.92C439.908 95 442.388 98.04 447.348 98.04C449.108 98.04 450.908 97.52 452.748 96.48C454.588 95.52 455.588 95.04 455.748 95.04C456.708 95.04 457.188 95.72 457.188 97.08C457.188 98.28 456.748 99.2 455.868 99.84C453.148 101.44 450.228 102.24 447.108 102.24Z" fill="#FF00E5"/>
<path d="M469.54 100.2C464.9 100.2 462.58 98 462.58 93.6C462.58 90.72 463.26 87.64 464.62 84.36C466.06 81 467.98 77.76 470.38 74.64C472.78 71.44 475.46 68.56 478.42 66C481.38 63.36 484.42 61.28 487.54 59.76C490.66 58.16 493.66 57.36 496.54 57.36C501.66 57.36 504.22 59.88 504.22 64.92C504.22 68.2 503.42 69.84 501.82 69.84C500.38 69.84 499.66 69.16 499.66 67.8C499.66 67.24 499.78 66.68 500.02 66.12C500.34 65.48 500.5 64.8 500.5 64.08C500.5 61.84 498.98 60.72 495.94 60.72C491.06 60.72 484.94 64.44 477.58 71.88C475.82 73.72 474.1 75.88 472.42 78.36C470.74 80.84 469.34 83.36 468.22 85.92C467.18 88.4 466.66 90.76 466.66 93C466.66 95.16 467.86 96.24 470.26 96.24C472.34 96.24 474.54 95.6 476.86 94.32C479.26 93.04 481.34 91.72 483.1 90.36C486.62 87.72 490.22 84.12 493.9 79.56C494.46 78.92 495.18 78.08 496.06 77.04C496.94 76 497.94 74.84 499.06 73.56C499.46 73.16 499.94 72.96 500.5 72.96C501.78 72.96 502.42 73.6 502.42 74.88L497.86 81.72C494.82 86.2 493.3 89.88 493.3 92.76C493.3 94.84 494.3 95.88 496.3 95.88C497.98 95.88 499.82 95.44 501.82 94.56C503.82 93.68 505.46 92.8 506.74 91.92C509.3 90.24 511.98 88.16 514.78 85.68C517.58 83.12 520.26 80.56 522.82 78C523.14 77.68 523.62 77.52 524.26 77.52C525.46 77.52 526.06 78 526.06 78.96C526.06 79.84 525.5 80.84 524.38 81.96C521.18 85.16 518.3 87.92 515.74 90.24C513.18 92.48 510.74 94.32 508.42 95.76C506.9 96.64 505.02 97.56 502.78 98.52C500.54 99.48 497.98 99.96 495.1 99.96C491.18 99.96 489.22 97.88 489.22 93.72C489.22 92.12 489.42 90.8 489.82 89.76C482.54 96.72 475.78 100.2 469.54 100.2Z" fill="#FF00E5"/>
<path d="M533.632 100.68C529.392 100.68 526.072 99.44 523.672 96.96C521.272 94.48 520.072 91.16 520.072 87C520.072 79.8 523.472 71.96 530.272 63.48C533.792 59.16 537.352 55.88 540.952 53.64C544.632 51.32 548.072 50.16 551.272 50.16C554.072 50.16 556.232 51.12 557.752 53.04C559.272 54.96 560.032 57.36 560.032 60.24C560.032 62 559.792 63.8 559.312 65.64C558.992 66.92 558.352 67.56 557.392 67.56C555.872 67.56 555.112 66.72 555.112 65.04C555.112 64.32 555.232 63.4 555.472 62.28C555.792 61.08 555.952 59.92 555.952 58.8C555.952 55.6 554.392 54 551.272 54C549.592 54 547.552 54.6 545.152 55.8C542.832 57 540.512 58.6 538.192 60.6C535.872 62.52 533.832 64.72 532.072 67.2C526.712 74.48 524.032 81 524.032 86.76C524.032 93.4 527.032 96.72 533.032 96.72C536.792 96.72 540.392 96.16 543.832 95.04C547.272 93.84 551.312 91.4 555.952 87.72C558.832 85.48 560.992 83.68 562.432 82.32C563.872 80.96 565.432 79.52 567.112 78C567.592 77.68 568.032 77.52 568.432 77.52C568.832 77.52 569.232 77.64 569.632 77.88C570.032 78.12 570.232 78.48 570.232 78.96C570.232 79.84 569.432 81.08 567.832 82.68C566.472 83.96 565.032 85.32 563.512 86.76C561.992 88.12 559.592 90.04 556.312 92.52C552.792 95.24 549.032 97.28 545.032 98.64C541.112 100 537.312 100.68 533.632 100.68Z" fill="#FF00E5"/>
<path d="M575.403 101.16C572.043 101.16 569.403 100 567.483 97.68C565.563 95.36 564.603 92.52 564.603 89.16C564.603 83.4 566.523 77.48 570.363 71.4C571.403 69.72 572.603 68.08 573.963 66.48C575.323 64.8 576.803 63.2 578.403 61.68C580.803 59.36 583.323 57.44 585.963 55.92C588.603 54.4 591.163 53.64 593.643 53.64C597.723 53.64 599.763 55.56 599.763 59.4C599.763 64.2 596.963 68.56 591.363 72.48C586.163 76 581.043 77.76 576.003 77.76C575.123 77.76 574.323 77.72 573.603 77.64C572.963 77.48 572.363 77.32 571.803 77.16C571.003 78.68 570.283 80.64 569.643 83.04C569.003 85.44 568.683 87.52 568.683 89.28C568.683 94.56 571.003 97.2 575.643 97.2C579.403 97.2 582.963 96.56 586.323 95.28C589.683 93.92 593.683 91.4 598.323 87.72C601.203 85.48 603.363 83.68 604.803 82.32C606.243 80.96 607.803 79.52 609.483 78C609.963 77.68 610.403 77.52 610.803 77.52C611.203 77.52 611.603 77.64 612.003 77.88C612.403 78.12 612.603 78.48 612.603 78.96C612.603 79.84 611.803 81.08 610.203 82.68C608.843 83.96 607.403 85.32 605.883 86.76C604.363 88.12 601.963 90.04 598.683 92.52C595.163 95.24 591.323 97.36 587.163 98.88C583.003 100.4 579.083 101.16 575.403 101.16ZM575.283 73.92C577.843 73.92 580.283 73.52 582.603 72.72C584.923 71.92 587.123 70.76 589.203 69.24C593.843 65.8 596.163 62.56 596.163 59.52C596.163 58.16 595.323 57.48 593.643 57.48C590.443 57.48 586.723 59.44 582.483 63.36C580.403 65.28 578.683 67.04 577.323 68.64C576.043 70.16 574.843 71.84 573.723 73.68C574.203 73.84 574.723 73.92 575.283 73.92Z" fill="#FF00E5"/>
</g>
<mask id="path-2-outside-1_3_2" maskUnits="userSpaceOnUse" x="21.3438" y="131" width="571" height="68" fill="black">
<rect fill="white" x="21.3438" y="131" width="571" height="68"/>
<path d="M51.125 170.125H35.75L32.2188 182H26.3438L41 136.5H45.9062L60.5938 182H54.7188L51.125 170.125ZM37.25 165.188H49.6562L43.4375 144.5L37.25 165.188Z"/>
<path d="M85.9062 148.188L86.0312 151.312C88.0938 148.812 90.8125 147.562 94.1875 147.562C97.9583 147.562 100.594 149.198 102.094 152.469C104.219 149.198 107.177 147.562 110.969 147.562C117.198 147.562 120.385 151.448 120.531 159.219V182H115.031V159.75C115.031 157.292 114.594 155.469 113.719 154.281C112.844 153.073 111.365 152.469 109.281 152.469C107.615 152.469 106.26 153.115 105.219 154.406C104.177 155.698 103.573 157.344 103.406 159.344V182H97.8438V159.5C97.7812 154.812 95.875 152.469 92.125 152.469C89.3333 152.469 87.3646 153.865 86.2188 156.656V182H80.7188V148.188H85.9062Z"/>
<path d="M146.281 182C145.948 181.271 145.708 180.042 145.562 178.312C143.604 181.188 141.104 182.625 138.062 182.625C135 182.625 132.604 181.771 130.875 180.062C129.167 178.333 128.312 175.906 128.312 172.781C128.312 169.344 129.479 166.615 131.812 164.594C134.146 162.573 137.344 161.542 141.406 161.5H145.469V157.906C145.469 155.885 145.021 154.448 144.125 153.594C143.229 152.74 141.865 152.312 140.031 152.312C138.365 152.312 137.01 152.812 135.969 153.812C134.927 154.792 134.406 156.042 134.406 157.562H128.875C128.875 155.833 129.385 154.188 130.406 152.625C131.427 151.042 132.802 149.802 134.531 148.906C136.26 148.01 138.188 147.562 140.312 147.562C143.771 147.562 146.396 148.427 148.188 150.156C150 151.865 150.927 154.365 150.969 157.656V174.719C150.99 177.323 151.344 179.583 152.031 181.5V182H146.281ZM138.906 177.594C140.26 177.594 141.552 177.219 142.781 176.469C144.01 175.719 144.906 174.781 145.469 173.656V165.594H142.344C139.719 165.635 137.646 166.229 136.125 167.375C134.604 168.5 133.844 170.083 133.844 172.125C133.844 174.042 134.229 175.438 135 176.312C135.771 177.167 137.073 177.594 138.906 177.594ZM150.094 135C150.094 137.188 149.552 139 148.469 140.438C147.385 141.854 145.99 142.562 144.281 142.562C143.552 142.562 142.927 142.458 142.406 142.25C141.885 142.021 141.208 141.594 140.375 140.969C139.542 140.323 138.938 139.938 138.562 139.812C138.188 139.667 137.76 139.594 137.281 139.594C136.573 139.594 135.979 139.927 135.5 140.594C135.042 141.26 134.812 142.094 134.812 143.094L131.219 142.875C131.219 140.604 131.771 138.75 132.875 137.312C133.979 135.875 135.354 135.156 137 135.156C137.625 135.156 138.188 135.281 138.688 135.531C139.188 135.76 139.812 136.146 140.562 136.688C141.333 137.229 141.958 137.615 142.438 137.844C142.917 138.052 143.438 138.156 144 138.156C144.708 138.156 145.302 137.823 145.781 137.156C146.26 136.469 146.5 135.625 146.5 134.625L150.094 135Z"/>
<path d="M171.656 182.625C167.448 182.625 164.219 181.375 161.969 178.875C159.719 176.354 158.573 172.667 158.531 167.812V163.719C158.531 158.677 159.625 154.729 161.812 151.875C164.021 149 167.094 147.562 171.031 147.562C174.99 147.562 177.948 148.823 179.906 151.344C181.865 153.865 182.865 157.792 182.906 163.125V166.75H164.031V167.531C164.031 171.156 164.708 173.792 166.062 175.438C167.438 177.083 169.406 177.906 171.969 177.906C173.594 177.906 175.021 177.604 176.25 177C177.5 176.375 178.667 175.396 179.75 174.062L182.625 177.562C180.229 180.938 176.573 182.625 171.656 182.625ZM171.031 152.312C168.74 152.312 167.042 153.104 165.938 154.688C164.833 156.25 164.208 158.688 164.062 162H177.375V161.25C177.229 158.042 176.646 155.75 175.625 154.375C174.625 153 173.094 152.312 171.031 152.312Z"/>
<path d="M203.094 163.562C203.094 158.354 204.062 154.385 206 151.656C207.958 148.927 210.76 147.562 214.406 147.562C217.635 147.562 220.156 148.875 221.969 151.5V134H227.5V182H222.438L222.156 178.375C220.344 181.208 217.75 182.625 214.375 182.625C210.875 182.625 208.125 181.271 206.125 178.562C204.146 175.833 203.135 171.99 203.094 167.031V163.562ZM208.625 166.719C208.625 170.51 209.188 173.302 210.312 175.094C211.438 176.865 213.271 177.75 215.812 177.75C218.562 177.75 220.615 176.365 221.969 173.594V156.531C220.552 153.823 218.51 152.469 215.844 152.469C213.302 152.469 211.469 153.365 210.344 155.156C209.219 156.927 208.646 159.656 208.625 163.344V166.719Z"/>
<path d="M253.406 182C253.073 181.271 252.833 180.042 252.688 178.312C250.729 181.188 248.229 182.625 245.188 182.625C242.125 182.625 239.729 181.771 238 180.062C236.292 178.333 235.438 175.906 235.438 172.781C235.438 169.344 236.604 166.615 238.938 164.594C241.271 162.573 244.469 161.542 248.531 161.5H252.594V157.906C252.594 155.885 252.146 154.448 251.25 153.594C250.354 152.74 248.99 152.312 247.156 152.312C245.49 152.312 244.135 152.812 243.094 153.812C242.052 154.792 241.531 156.042 241.531 157.562H236C236 155.833 236.51 154.188 237.531 152.625C238.552 151.042 239.927 149.802 241.656 148.906C243.385 148.01 245.312 147.562 247.438 147.562C250.896 147.562 253.521 148.427 255.312 150.156C257.125 151.865 258.052 154.365 258.094 157.656V174.719C258.115 177.323 258.469 179.583 259.156 181.5V182H253.406ZM246.031 177.594C247.385 177.594 248.677 177.219 249.906 176.469C251.135 175.719 252.031 174.781 252.594 173.656V165.594H249.469C246.844 165.635 244.771 166.229 243.25 167.375C241.729 168.5 240.969 170.083 240.969 172.125C240.969 174.042 241.354 175.438 242.125 176.312C242.896 177.167 244.198 177.594 246.031 177.594Z"/>
<path d="M293.125 177.906C294.958 177.906 296.427 177.344 297.531 176.219C298.635 175.073 299.24 173.448 299.344 171.344H304.562C304.438 174.594 303.281 177.292 301.094 179.438C298.927 181.562 296.271 182.625 293.125 182.625C288.938 182.625 285.74 181.312 283.531 178.688C281.344 176.042 280.25 172.115 280.25 166.906V163.188C280.25 158.083 281.344 154.208 283.531 151.562C285.719 148.896 288.906 147.562 293.094 147.562C296.552 147.562 299.292 148.656 301.312 150.844C303.354 153.031 304.438 156.021 304.562 159.812H299.344C299.219 157.312 298.615 155.438 297.531 154.188C296.469 152.938 294.99 152.312 293.094 152.312C290.635 152.312 288.812 153.125 287.625 154.75C286.438 156.354 285.823 159 285.781 162.688V167C285.781 170.979 286.365 173.792 287.531 175.438C288.719 177.083 290.583 177.906 293.125 177.906Z"/>
<path d="M309.781 163.531C309.781 158.615 310.969 154.729 313.344 151.875C315.74 149 318.896 147.562 322.812 147.562C326.729 147.562 329.875 148.958 332.25 151.75C334.646 154.542 335.875 158.344 335.938 163.156V166.719C335.938 171.615 334.75 175.49 332.375 178.344C330 181.198 326.833 182.625 322.875 182.625C318.958 182.625 315.812 181.24 313.438 178.469C311.083 175.698 309.865 171.948 309.781 167.219V163.531ZM315.312 166.719C315.312 170.198 315.99 172.938 317.344 174.938C318.719 176.917 320.562 177.906 322.875 177.906C327.75 177.906 330.26 174.385 330.406 167.344V163.531C330.406 160.073 329.719 157.344 328.344 155.344C326.969 153.323 325.125 152.312 322.812 152.312C320.542 152.312 318.719 153.323 317.344 155.344C315.99 157.344 315.312 160.062 315.312 163.5V166.719Z"/>
<path d="M348.281 148.188L348.406 151.312C350.469 148.812 353.188 147.562 356.562 147.562C360.333 147.562 362.969 149.198 364.469 152.469C366.594 149.198 369.552 147.562 373.344 147.562C379.573 147.562 382.76 151.448 382.906 159.219V182H377.406V159.75C377.406 157.292 376.969 155.469 376.094 154.281C375.219 153.073 373.74 152.469 371.656 152.469C369.99 152.469 368.635 153.115 367.594 154.406C366.552 155.698 365.948 157.344 365.781 159.344V182H360.219V159.5C360.156 154.812 358.25 152.469 354.5 152.469C351.708 152.469 349.74 153.865 348.594 156.656V182H343.094V148.188H348.281Z"/>
<path d="M415.688 166.719C415.688 172.073 414.719 176.062 412.781 178.688C410.865 181.312 408.146 182.625 404.625 182.625C401.229 182.625 398.615 181.344 396.781 178.781V195H391.281V148.188H396.281L396.562 151.938C398.417 149.021 401.073 147.562 404.531 147.562C408.24 147.562 411.01 148.854 412.844 151.438C414.677 154.021 415.625 157.885 415.688 163.031V166.719ZM410.188 163.562C410.188 159.771 409.604 156.979 408.438 155.188C407.271 153.375 405.396 152.469 402.812 152.469C400.167 152.469 398.156 153.792 396.781 156.438V174.031C398.135 176.615 400.167 177.906 402.875 177.906C405.375 177.906 407.208 177.01 408.375 175.219C409.562 173.406 410.167 170.646 410.188 166.938V163.562Z"/>
<path d="M440.062 179.031C438.229 181.427 435.552 182.625 432.031 182.625C428.969 182.625 426.656 181.573 425.094 179.469C423.531 177.344 422.74 174.26 422.719 170.219V148.188H428.219V169.812C428.219 175.083 429.802 177.719 432.969 177.719C436.323 177.719 438.635 176.219 439.906 173.219V148.188H445.438V182H440.188L440.062 179.031Z"/>
<path d="M461 140V148.188H466.094V152.656H461V173.625C461 174.958 461.219 175.969 461.656 176.656C462.094 177.344 462.844 177.688 463.906 177.688C464.635 177.688 465.375 177.562 466.125 177.312L466.062 182C464.812 182.417 463.531 182.625 462.219 182.625C460.031 182.625 458.365 181.844 457.219 180.281C456.073 178.719 455.5 176.51 455.5 173.656V152.656H450.344V148.188H455.5V140H461Z"/>
<path d="M490.094 182C489.76 181.271 489.521 180.042 489.375 178.312C487.417 181.188 484.917 182.625 481.875 182.625C478.812 182.625 476.417 181.771 474.688 180.062C472.979 178.333 472.125 175.906 472.125 172.781C472.125 169.344 473.292 166.615 475.625 164.594C477.958 162.573 481.156 161.542 485.219 161.5H489.281V157.906C489.281 155.885 488.833 154.448 487.938 153.594C487.042 152.74 485.677 152.312 483.844 152.312C482.177 152.312 480.823 152.812 479.781 153.812C478.74 154.792 478.219 156.042 478.219 157.562H472.688C472.688 155.833 473.198 154.188 474.219 152.625C475.24 151.042 476.615 149.802 478.344 148.906C480.073 148.01 482 147.562 484.125 147.562C487.583 147.562 490.208 148.427 492 150.156C493.812 151.865 494.74 154.365 494.781 157.656V174.719C494.802 177.323 495.156 179.583 495.844 181.5V182H490.094ZM482.719 177.594C484.073 177.594 485.365 177.219 486.594 176.469C487.823 175.719 488.719 174.781 489.281 173.656V165.594H486.156C483.531 165.635 481.458 166.229 479.938 167.375C478.417 168.5 477.656 170.083 477.656 172.125C477.656 174.042 478.042 175.438 478.812 176.312C479.583 177.167 480.885 177.594 482.719 177.594Z"/>
<path d="M515.125 177.906C516.958 177.906 518.427 177.344 519.531 176.219C520.635 175.073 521.24 173.448 521.344 171.344H526.562C526.438 174.594 525.281 177.292 523.094 179.438C520.927 181.562 518.271 182.625 515.125 182.625C510.938 182.625 507.74 181.312 505.531 178.688C503.344 176.042 502.25 172.115 502.25 166.906V163.188C502.25 158.083 503.344 154.208 505.531 151.562C507.719 148.896 510.906 147.562 515.094 147.562C518.552 147.562 521.292 148.656 523.312 150.844C525.354 153.031 526.438 156.021 526.562 159.812H521.344C521.219 157.312 520.615 155.438 519.531 154.188C518.469 152.938 516.99 152.312 515.094 152.312C512.635 152.312 510.812 153.125 509.625 154.75C508.438 156.354 507.823 159 507.781 162.688V167C507.781 170.979 508.365 173.792 509.531 175.438C510.719 177.083 512.583 177.906 515.125 177.906ZM515.875 182.281L515.562 183.906C516.812 184.177 517.771 184.781 518.438 185.719C519.104 186.656 519.438 187.854 519.438 189.312C519.438 191.312 518.74 192.906 517.344 194.094C515.969 195.281 513.99 195.875 511.406 195.875L511.219 192.531C513.885 192.531 515.219 191.5 515.219 189.438C515.219 188.5 514.938 187.812 514.375 187.375C513.833 186.958 512.74 186.656 511.094 186.469L511.969 182.281H515.875Z"/>
<path d="M550.344 182C550.01 181.271 549.771 180.042 549.625 178.312C547.667 181.188 545.167 182.625 542.125 182.625C539.062 182.625 536.667 181.771 534.938 180.062C533.229 178.333 532.375 175.906 532.375 172.781C532.375 169.344 533.542 166.615 535.875 164.594C538.208 162.573 541.406 161.542 545.469 161.5H549.531V157.906C549.531 155.885 549.083 154.448 548.188 153.594C547.292 152.74 545.927 152.312 544.094 152.312C542.427 152.312 541.073 152.812 540.031 153.812C538.99 154.792 538.469 156.042 538.469 157.562H532.938C532.938 155.833 533.448 154.188 534.469 152.625C535.49 151.042 536.865 149.802 538.594 148.906C540.323 148.01 542.25 147.562 544.375 147.562C547.833 147.562 550.458 148.427 552.25 150.156C554.062 151.865 554.99 154.365 555.031 157.656V174.719C555.052 177.323 555.406 179.583 556.094 181.5V182H550.344ZM542.969 177.594C544.323 177.594 545.615 177.219 546.844 176.469C548.073 175.719 548.969 174.781 549.531 173.656V165.594H546.406C543.781 165.635 541.708 166.229 540.188 167.375C538.667 168.5 537.906 170.083 537.906 172.125C537.906 174.042 538.292 175.438 539.062 176.312C539.833 177.167 541.135 177.594 542.969 177.594ZM554.156 135C554.156 137.188 553.615 139 552.531 140.438C551.448 141.854 550.052 142.562 548.344 142.562C547.615 142.562 546.99 142.458 546.469 142.25C545.948 142.021 545.271 141.594 544.438 140.969C543.604 140.323 543 139.938 542.625 139.812C542.25 139.667 541.823 139.594 541.344 139.594C540.635 139.594 540.042 139.927 539.562 140.594C539.104 141.26 538.875 142.094 538.875 143.094L535.281 142.875C535.281 140.604 535.833 138.75 536.938 137.312C538.042 135.875 539.417 135.156 541.062 135.156C541.688 135.156 542.25 135.281 542.75 135.531C543.25 135.76 543.875 136.146 544.625 136.688C545.396 137.229 546.021 137.615 546.5 137.844C546.979 138.052 547.5 138.156 548.062 138.156C548.771 138.156 549.365 137.823 549.844 137.156C550.323 136.469 550.562 135.625 550.562 134.625L554.156 135Z"/>
<path d="M562.469 163.531C562.469 158.615 563.656 154.729 566.031 151.875C568.427 149 571.583 147.562 575.5 147.562C579.417 147.562 582.562 148.958 584.938 151.75C587.333 154.542 588.562 158.344 588.625 163.156V166.719C588.625 171.615 587.438 175.49 585.062 178.344C582.688 181.198 579.521 182.625 575.562 182.625C571.646 182.625 568.5 181.24 566.125 178.469C563.771 175.698 562.552 171.948 562.469 167.219V163.531ZM568 166.719C568 170.198 568.677 172.938 570.031 174.938C571.406 176.917 573.25 177.906 575.562 177.906C580.438 177.906 582.948 174.385 583.094 167.344V163.531C583.094 160.073 582.406 157.344 581.031 155.344C579.656 153.323 577.812 152.312 575.5 152.312C573.229 152.312 571.406 153.323 570.031 155.344C568.677 157.344 568 160.062 568 163.5V166.719Z"/>
</mask>
<path d="M51.125 170.125H35.75L32.2188 182H26.3438L41 136.5H45.9062L60.5938 182H54.7188L51.125 170.125ZM37.25 165.188H49.6562L43.4375 144.5L37.25 165.188Z" fill="white"/>
<path d="M85.9062 148.188L86.0312 151.312C88.0938 148.812 90.8125 147.562 94.1875 147.562C97.9583 147.562 100.594 149.198 102.094 152.469C104.219 149.198 107.177 147.562 110.969 147.562C117.198 147.562 120.385 151.448 120.531 159.219V182H115.031V159.75C115.031 157.292 114.594 155.469 113.719 154.281C112.844 153.073 111.365 152.469 109.281 152.469C107.615 152.469 106.26 153.115 105.219 154.406C104.177 155.698 103.573 157.344 103.406 159.344V182H97.8438V159.5C97.7812 154.812 95.875 152.469 92.125 152.469C89.3333 152.469 87.3646 153.865 86.2188 156.656V182H80.7188V148.188H85.9062Z" fill="white"/>
<path d="M146.281 182C145.948 181.271 145.708 180.042 145.562 178.312C143.604 181.188 141.104 182.625 138.062 182.625C135 182.625 132.604 181.771 130.875 180.062C129.167 178.333 128.312 175.906 128.312 172.781C128.312 169.344 129.479 166.615 131.812 164.594C134.146 162.573 137.344 161.542 141.406 161.5H145.469V157.906C145.469 155.885 145.021 154.448 144.125 153.594C143.229 152.74 141.865 152.312 140.031 152.312C138.365 152.312 137.01 152.812 135.969 153.812C134.927 154.792 134.406 156.042 134.406 157.562H128.875C128.875 155.833 129.385 154.188 130.406 152.625C131.427 151.042 132.802 149.802 134.531 148.906C136.26 148.01 138.188 147.562 140.312 147.562C143.771 147.562 146.396 148.427 148.188 150.156C150 151.865 150.927 154.365 150.969 157.656V174.719C150.99 177.323 151.344 179.583 152.031 181.5V182H146.281ZM138.906 177.594C140.26 177.594 141.552 177.219 142.781 176.469C144.01 175.719 144.906 174.781 145.469 173.656V165.594H142.344C139.719 165.635 137.646 166.229 136.125 167.375C134.604 168.5 133.844 170.083 133.844 172.125C133.844 174.042 134.229 175.438 135 176.312C135.771 177.167 137.073 177.594 138.906 177.594ZM150.094 135C150.094 137.188 149.552 139 148.469 140.438C147.385 141.854 145.99 142.562 144.281 142.562C143.552 142.562 142.927 142.458 142.406 142.25C141.885 142.021 141.208 141.594 140.375 140.969C139.542 140.323 138.938 139.938 138.562 139.812C138.188 139.667 137.76 139.594 137.281 139.594C136.573 139.594 135.979 139.927 135.5 140.594C135.042 141.26 134.812 142.094 134.812 143.094L131.219 142.875C131.219 140.604 131.771 138.75 132.875 137.312C133.979 135.875 135.354 135.156 137 135.156C137.625 135.156 138.188 135.281 138.688 135.531C139.188 135.76 139.812 136.146 140.562 136.688C141.333 137.229 141.958 137.615 142.438 137.844C142.917 138.052 143.438 138.156 144 138.156C144.708 138.156 145.302 137.823 145.781 137.156C146.26 136.469 146.5 135.625 146.5 134.625L150.094 135Z" fill="white"/>
<path d="M171.656 182.625C167.448 182.625 164.219 181.375 161.969 178.875C159.719 176.354 158.573 172.667 158.531 167.812V163.719C158.531 158.677 159.625 154.729 161.812 151.875C164.021 149 167.094 147.562 171.031 147.562C174.99 147.562 177.948 148.823 179.906 151.344C181.865 153.865 182.865 157.792 182.906 163.125V166.75H164.031V167.531C164.031 171.156 164.708 173.792 166.062 175.438C167.438 177.083 169.406 177.906 171.969 177.906C173.594 177.906 175.021 177.604 176.25 177C177.5 176.375 178.667 175.396 179.75 174.062L182.625 177.562C180.229 180.938 176.573 182.625 171.656 182.625ZM171.031 152.312C168.74 152.312 167.042 153.104 165.938 154.688C164.833 156.25 164.208 158.688 164.062 162H177.375V161.25C177.229 158.042 176.646 155.75 175.625 154.375C174.625 153 173.094 152.312 171.031 152.312Z" fill="white"/>
<path d="M203.094 163.562C203.094 158.354 204.062 154.385 206 151.656C207.958 148.927 210.76 147.562 214.406 147.562C217.635 147.562 220.156 148.875 221.969 151.5V134H227.5V182H222.438L222.156 178.375C220.344 181.208 217.75 182.625 214.375 182.625C210.875 182.625 208.125 181.271 206.125 178.562C204.146 175.833 203.135 171.99 203.094 167.031V163.562ZM208.625 166.719C208.625 170.51 209.188 173.302 210.312 175.094C211.438 176.865 213.271 177.75 215.812 177.75C218.562 177.75 220.615 176.365 221.969 173.594V156.531C220.552 153.823 218.51 152.469 215.844 152.469C213.302 152.469 211.469 153.365 210.344 155.156C209.219 156.927 208.646 159.656 208.625 163.344V166.719Z" fill="white"/>
<path d="M253.406 182C253.073 181.271 252.833 180.042 252.688 178.312C250.729 181.188 248.229 182.625 245.188 182.625C242.125 182.625 239.729 181.771 238 180.062C236.292 178.333 235.438 175.906 235.438 172.781C235.438 169.344 236.604 166.615 238.938 164.594C241.271 162.573 244.469 161.542 248.531 161.5H252.594V157.906C252.594 155.885 252.146 154.448 251.25 153.594C250.354 152.74 248.99 152.312 247.156 152.312C245.49 152.312 244.135 152.812 243.094 153.812C242.052 154.792 241.531 156.042 241.531 157.562H236C236 155.833 236.51 154.188 237.531 152.625C238.552 151.042 239.927 149.802 241.656 148.906C243.385 148.01 245.312 147.562 247.438 147.562C250.896 147.562 253.521 148.427 255.312 150.156C257.125 151.865 258.052 154.365 258.094 157.656V174.719C258.115 177.323 258.469 179.583 259.156 181.5V182H253.406ZM246.031 177.594C247.385 177.594 248.677 177.219 249.906 176.469C251.135 175.719 252.031 174.781 252.594 173.656V165.594H249.469C246.844 165.635 244.771 166.229 243.25 167.375C241.729 168.5 240.969 170.083 240.969 172.125C240.969 174.042 241.354 175.438 242.125 176.312C242.896 177.167 244.198 177.594 246.031 177.594Z" fill="white"/>
<path d="M293.125 177.906C294.958 177.906 296.427 177.344 297.531 176.219C298.635 175.073 299.24 173.448 299.344 171.344H304.562C304.438 174.594 303.281 177.292 301.094 179.438C298.927 181.562 296.271 182.625 293.125 182.625C288.938 182.625 285.74 181.312 283.531 178.688C281.344 176.042 280.25 172.115 280.25 166.906V163.188C280.25 158.083 281.344 154.208 283.531 151.562C285.719 148.896 288.906 147.562 293.094 147.562C296.552 147.562 299.292 148.656 301.312 150.844C303.354 153.031 304.438 156.021 304.562 159.812H299.344C299.219 157.312 298.615 155.438 297.531 154.188C296.469 152.938 294.99 152.312 293.094 152.312C290.635 152.312 288.812 153.125 287.625 154.75C286.438 156.354 285.823 159 285.781 162.688V167C285.781 170.979 286.365 173.792 287.531 175.438C288.719 177.083 290.583 177.906 293.125 177.906Z" fill="white"/>
<path d="M309.781 163.531C309.781 158.615 310.969 154.729 313.344 151.875C315.74 149 318.896 147.562 322.812 147.562C326.729 147.562 329.875 148.958 332.25 151.75C334.646 154.542 335.875 158.344 335.938 163.156V166.719C335.938 171.615 334.75 175.49 332.375 178.344C330 181.198 326.833 182.625 322.875 182.625C318.958 182.625 315.812 181.24 313.438 178.469C311.083 175.698 309.865 171.948 309.781 167.219V163.531ZM315.312 166.719C315.312 170.198 315.99 172.938 317.344 174.938C318.719 176.917 320.562 177.906 322.875 177.906C327.75 177.906 330.26 174.385 330.406 167.344V163.531C330.406 160.073 329.719 157.344 328.344 155.344C326.969 153.323 325.125 152.312 322.812 152.312C320.542 152.312 318.719 153.323 317.344 155.344C315.99 157.344 315.312 160.062 315.312 163.5V166.719Z" fill="white"/>
<path d="M348.281 148.188L348.406 151.312C350.469 148.812 353.188 147.562 356.562 147.562C360.333 147.562 362.969 149.198 364.469 152.469C366.594 149.198 369.552 147.562 373.344 147.562C379.573 147.562 382.76 151.448 382.906 159.219V182H377.406V159.75C377.406 157.292 376.969 155.469 376.094 154.281C375.219 153.073 373.74 152.469 371.656 152.469C369.99 152.469 368.635 153.115 367.594 154.406C366.552 155.698 365.948 157.344 365.781 159.344V182H360.219V159.5C360.156 154.812 358.25 152.469 354.5 152.469C351.708 152.469 349.74 153.865 348.594 156.656V182H343.094V148.188H348.281Z" fill="white"/>
<path d="M415.688 166.719C415.688 172.073 414.719 176.062 412.781 178.688C410.865 181.312 408.146 182.625 404.625 182.625C401.229 182.625 398.615 181.344 396.781 178.781V195H391.281V148.188H396.281L396.562 151.938C398.417 149.021 401.073 147.562 404.531 147.562C408.24 147.562 411.01 148.854 412.844 151.438C414.677 154.021 415.625 157.885 415.688 163.031V166.719ZM410.188 163.562C410.188 159.771 409.604 156.979 408.438 155.188C407.271 153.375 405.396 152.469 402.812 152.469C400.167 152.469 398.156 153.792 396.781 156.438V174.031C398.135 176.615 400.167 177.906 402.875 177.906C405.375 177.906 407.208 177.01 408.375 175.219C409.562 173.406 410.167 170.646 410.188 166.938V163.562Z" fill="white"/>
<path d="M440.062 179.031C438.229 181.427 435.552 182.625 432.031 182.625C428.969 182.625 426.656 181.573 425.094 179.469C423.531 177.344 422.74 174.26 422.719 170.219V148.188H428.219V169.812C428.219 175.083 429.802 177.719 432.969 177.719C436.323 177.719 438.635 176.219 439.906 173.219V148.188H445.438V182H440.188L440.062 179.031Z" fill="white"/>
<path d="M461 140V148.188H466.094V152.656H461V173.625C461 174.958 461.219 175.969 461.656 176.656C462.094 177.344 462.844 177.688 463.906 177.688C464.635 177.688 465.375 177.562 466.125 177.312L466.062 182C464.812 182.417 463.531 182.625 462.219 182.625C460.031 182.625 458.365 181.844 457.219 180.281C456.073 178.719 455.5 176.51 455.5 173.656V152.656H450.344V148.188H455.5V140H461Z" fill="white"/>
<path d="M490.094 182C489.76 181.271 489.521 180.042 489.375 178.312C487.417 181.188 484.917 182.625 481.875 182.625C478.812 182.625 476.417 181.771 474.688 180.062C472.979 178.333 472.125 175.906 472.125 172.781C472.125 169.344 473.292 166.615 475.625 164.594C477.958 162.573 481.156 161.542 485.219 161.5H489.281V157.906C489.281 155.885 488.833 154.448 487.938 153.594C487.042 152.74 485.677 152.312 483.844 152.312C482.177 152.312 480.823 152.812 479.781 153.812C478.74 154.792 478.219 156.042 478.219 157.562H472.688C472.688 155.833 473.198 154.188 474.219 152.625C475.24 151.042 476.615 149.802 478.344 148.906C480.073 148.01 482 147.562 484.125 147.562C487.583 147.562 490.208 148.427 492 150.156C493.812 151.865 494.74 154.365 494.781 157.656V174.719C494.802 177.323 495.156 179.583 495.844 181.5V182H490.094ZM482.719 177.594C484.073 177.594 485.365 177.219 486.594 176.469C487.823 175.719 488.719 174.781 489.281 173.656V165.594H486.156C483.531 165.635 481.458 166.229 479.938 167.375C478.417 168.5 477.656 170.083 477.656 172.125C477.656 174.042 478.042 175.438 478.812 176.312C479.583 177.167 480.885 177.594 482.719 177.594Z" fill="white"/>
<path d="M515.125 177.906C516.958 177.906 518.427 177.344 519.531 176.219C520.635 175.073 521.24 173.448 521.344 171.344H526.562C526.438 174.594 525.281 177.292 523.094 179.438C520.927 181.562 518.271 182.625 515.125 182.625C510.938 182.625 507.74 181.312 505.531 178.688C503.344 176.042 502.25 172.115 502.25 166.906V163.188C502.25 158.083 503.344 154.208 505.531 151.562C507.719 148.896 510.906 147.562 515.094 147.562C518.552 147.562 521.292 148.656 523.312 150.844C525.354 153.031 526.438 156.021 526.562 159.812H521.344C521.219 157.312 520.615 155.438 519.531 154.188C518.469 152.938 516.99 152.312 515.094 152.312C512.635 152.312 510.812 153.125 509.625 154.75C508.438 156.354 507.823 159 507.781 162.688V167C507.781 170.979 508.365 173.792 509.531 175.438C510.719 177.083 512.583 177.906 515.125 177.906ZM515.875 182.281L515.562 183.906C516.812 184.177 517.771 184.781 518.438 185.719C519.104 186.656 519.438 187.854 519.438 189.312C519.438 191.312 518.74 192.906 517.344 194.094C515.969 195.281 513.99 195.875 511.406 195.875L511.219 192.531C513.885 192.531 515.219 191.5 515.219 189.438C515.219 188.5 514.938 187.812 514.375 187.375C513.833 186.958 512.74 186.656 511.094 186.469L511.969 182.281H515.875Z" fill="white"/>
<path d="M550.344 182C550.01 181.271 549.771 180.042 549.625 178.312C547.667 181.188 545.167 182.625 542.125 182.625C539.062 182.625 536.667 181.771 534.938 180.062C533.229 178.333 532.375 175.906 532.375 172.781C532.375 169.344 533.542 166.615 535.875 164.594C538.208 162.573 541.406 161.542 545.469 161.5H549.531V157.906C549.531 155.885 549.083 154.448 548.188 153.594C547.292 152.74 545.927 152.312 544.094 152.312C542.427 152.312 541.073 152.812 540.031 153.812C538.99 154.792 538.469 156.042 538.469 157.562H532.938C532.938 155.833 533.448 154.188 534.469 152.625C535.49 151.042 536.865 149.802 538.594 148.906C540.323 148.01 542.25 147.562 544.375 147.562C547.833 147.562 550.458 148.427 552.25 150.156C554.062 151.865 554.99 154.365 555.031 157.656V174.719C555.052 177.323 555.406 179.583 556.094 181.5V182H550.344ZM542.969 177.594C544.323 177.594 545.615 177.219 546.844 176.469C548.073 175.719 548.969 174.781 549.531 173.656V165.594H546.406C543.781 165.635 541.708 166.229 540.188 167.375C538.667 168.5 537.906 170.083 537.906 172.125C537.906 174.042 538.292 175.438 539.062 176.312C539.833 177.167 541.135 177.594 542.969 177.594ZM554.156 135C554.156 137.188 553.615 139 552.531 140.438C551.448 141.854 550.052 142.562 548.344 142.562C547.615 142.562 546.99 142.458 546.469 142.25C545.948 142.021 545.271 141.594 544.438 140.969C543.604 140.323 543 139.938 542.625 139.812C542.25 139.667 541.823 139.594 541.344 139.594C540.635 139.594 540.042 139.927 539.562 140.594C539.104 141.26 538.875 142.094 538.875 143.094L535.281 142.875C535.281 140.604 535.833 138.75 536.938 137.312C538.042 135.875 539.417 135.156 541.062 135.156C541.688 135.156 542.25 135.281 542.75 135.531C543.25 135.76 543.875 136.146 544.625 136.688C545.396 137.229 546.021 137.615 546.5 137.844C546.979 138.052 547.5 138.156 548.062 138.156C548.771 138.156 549.365 137.823 549.844 137.156C550.323 136.469 550.562 135.625 550.562 134.625L554.156 135Z" fill="white"/>
<path d="M562.469 163.531C562.469 158.615 563.656 154.729 566.031 151.875C568.427 149 571.583 147.562 575.5 147.562C579.417 147.562 582.562 148.958 584.938 151.75C587.333 154.542 588.562 158.344 588.625 163.156V166.719C588.625 171.615 587.438 175.49 585.062 178.344C582.688 181.198 579.521 182.625 575.562 182.625C571.646 182.625 568.5 181.24 566.125 178.469C563.771 175.698 562.552 171.948 562.469 167.219V163.531ZM568 166.719C568 170.198 568.677 172.938 570.031 174.938C571.406 176.917 573.25 177.906 575.562 177.906C580.438 177.906 582.948 174.385 583.094 167.344V163.531C583.094 160.073 582.406 157.344 581.031 155.344C579.656 153.323 577.812 152.312 575.5 152.312C573.229 152.312 571.406 153.323 570.031 155.344C568.677 157.344 568 160.062 568 163.5V166.719Z" fill="white"/>
<path d="M51.125 170.125H35.75L32.2188 182H26.3438L41 136.5H45.9062L60.5938 182H54.7188L51.125 170.125ZM37.25 165.188H49.6562L43.4375 144.5L37.25 165.188Z" stroke="black" stroke-width="6" mask="url(#path-2-outside-1_3_2)"/>
<path d="M85.9062 148.188L86.0312 151.312C88.0938 148.812 90.8125 147.562 94.1875 147.562C97.9583 147.562 100.594 149.198 102.094 152.469C104.219 149.198 107.177 147.562 110.969 147.562C117.198 147.562 120.385 151.448 120.531 159.219V182H115.031V159.75C115.031 157.292 114.594 155.469 113.719 154.281C112.844 153.073 111.365 152.469 109.281 152.469C107.615 152.469 106.26 153.115 105.219 154.406C104.177 155.698 103.573 157.344 103.406 159.344V182H97.8438V159.5C97.7812 154.812 95.875 152.469 92.125 152.469C89.3333 152.469 87.3646 153.865 86.2188 156.656V182H80.7188V148.188H85.9062Z" stroke="black" stroke-width="6" mask="url(#path-2-outside-1_3_2)"/>
<path d="M146.281 182C145.948 181.271 145.708 180.042 145.562 178.312C143.604 181.188 141.104 182.625 138.062 182.625C135 182.625 132.604 181.771 130.875 180.062C129.167 178.333 128.312 175.906 128.312 172.781C128.312 169.344 129.479 166.615 131.812 164.594C134.146 162.573 137.344 161.542 141.406 161.5H145.469V157.906C145.469 155.885 145.021 154.448 144.125 153.594C143.229 152.74 141.865 152.312 140.031 152.312C138.365 152.312 137.01 152.812 135.969 153.812C134.927 154.792 134.406 156.042 134.406 157.562H128.875C128.875 155.833 129.385 154.188 130.406 152.625C131.427 151.042 132.802 149.802 134.531 148.906C136.26 148.01 138.188 147.562 140.312 147.562C143.771 147.562 146.396 148.427 148.188 150.156C150 151.865 150.927 154.365 150.969 157.656V174.719C150.99 177.323 151.344 179.583 152.031 181.5V182H146.281ZM138.906 177.594C140.26 177.594 141.552 177.219 142.781 176.469C144.01 175.719 144.906 174.781 145.469 173.656V165.594H142.344C139.719 165.635 137.646 166.229 136.125 167.375C134.604 168.5 133.844 170.083 133.844 172.125C133.844 174.042 134.229 175.438 135 176.312C135.771 177.167 137.073 177.594 138.906 177.594ZM150.094 135C150.094 137.188 149.552 139 148.469 140.438C147.385 141.854 145.99 142.562 144.281 142.562C143.552 142.562 142.927 142.458 142.406 142.25C141.885 142.021 141.208 141.594 140.375 140.969C139.542 140.323 138.938 139.938 138.562 139.812C138.188 139.667 137.76 139.594 137.281 139.594C136.573 139.594 135.979 139.927 135.5 140.594C135.042 141.26 134.812 142.094 134.812 143.094L131.219 142.875C131.219 140.604 131.771 138.75 132.875 137.312C133.979 135.875 135.354 135.156 137 135.156C137.625 135.156 138.188 135.281 138.688 135.531C139.188 135.76 139.812 136.146 140.562 136.688C141.333 137.229 141.958 137.615 142.438 137.844C142.917 138.052 143.438 138.156 144 138.156C144.708 138.156 145.302 137.823 145.781 137.156C146.26 136.469 146.5 135.625 146.5 134.625L150.094 135Z" stroke="black" stroke-width="6" mask="url(#path-2-outside-1_3_2)"/>
<path d="M171.656 182.625C167.448 182.625 164.219 181.375 161.969 178.875C159.719 176.354 158.573 172.667 158.531 167.812V163.719C158.531 158.677 159.625 154.729 161.812 151.875C164.021 149 167.094 147.562 171.031 147.562C174.99 147.562 177.948 148.823 179.906 151.344C181.865 153.865 182.865 157.792 182.906 163.125V166.75H164.031V167.531C164.031 171.156 164.708 173.792 166.062 175.438C167.438 177.083 169.406 177.906 171.969 177.906C173.594 177.906 175.021 177.604 176.25 177C177.5 176.375 178.667 175.396 179.75 174.062L182.625 177.562C180.229 180.938 176.573 182.625 171.656 182.625ZM171.031 152.312C168.74 152.312 167.042 153.104 165.938 154.688C164.833 156.25 164.208 158.688 164.062 162H177.375V161.25C177.229 158.042 176.646 155.75 175.625 154.375C174.625 153 173.094 152.312 171.031 152.312Z" stroke="black" stroke-width="6" mask="url(#path-2-outside-1_3_2)"/>
<path d="M203.094 163.562C203.094 158.354 204.062 154.385 206 151.656C207.958 148.927 210.76 147.562 214.406 147.562C217.635 147.562 220.156 148.875 221.969 151.5V134H227.5V182H222.438L222.156 178.375C220.344 181.208 217.75 182.625 214.375 182.625C210.875 182.625 208.125 181.271 206.125 178.562C204.146 175.833 203.135 171.99 203.094 167.031V163.562ZM208.625 166.719C208.625 170.51 209.188 173.302 210.312 175.094C211.438 176.865 213.271 177.75 215.812 177.75C218.562 177.75 220.615 176.365 221.969 173.594V156.531C220.552 153.823 218.51 152.469 215.844 152.469C213.302 152.469 211.469 153.365 210.344 155.156C209.219 156.927 208.646 159.656 208.625 163.344V166.719Z" stroke="black" stroke-width="6" mask="url(#path-2-outside-1_3_2)"/>
<path d="M253.406 182C253.073 181.271 252.833 180.042 252.688 178.312C250.729 181.188 248.229 182.625 245.188 182.625C242.125 182.625 239.729 181.771 238 180.062C236.292 178.333 235.438 175.906 235.438 172.781C235.438 169.344 236.604 166.615 238.938 164.594C241.271 162.573 244.469 161.542 248.531 161.5H252.594V157.906C252.594 155.885 252.146 154.448 251.25 153.594C250.354 152.74 248.99 152.312 247.156 152.312C245.49 152.312 244.135 152.812 243.094 153.812C242.052 154.792 241.531 156.042 241.531 157.562H236C236 155.833 236.51 154.188 237.531 152.625C238.552 151.042 239.927 149.802 241.656 148.906C243.385 148.01 245.312 147.562 247.438 147.562C250.896 147.562 253.521 148.427 255.312 150.156C257.125 151.865 258.052 154.365 258.094 157.656V174.719C258.115 177.323 258.469 179.583 259.156 181.5V182H253.406ZM246.031 177.594C247.385 177.594 248.677 177.219 249.906 176.469C251.135 175.719 252.031 174.781 252.594 173.656V165.594H249.469C246.844 165.635 244.771 166.229 243.25 167.375C241.729 168.5 240.969 170.083 240.969 172.125C240.969 174.042 241.354 175.438 242.125 176.312C242.896 177.167 244.198 177.594 246.031 177.594Z" stroke="black" stroke-width="6" mask="url(#path-2-outside-1_3_2)"/>
<path d="M293.125 177.906C294.958 177.906 296.427 177.344 297.531 176.219C298.635 175.073 299.24 173.448 299.344 171.344H304.562C304.438 174.594 303.281 177.292 301.094 179.438C298.927 181.562 296.271 182.625 293.125 182.625C288.938 182.625 285.74 181.312 283.531 178.688C281.344 176.042 280.25 172.115 280.25 166.906V163.188C280.25 158.083 281.344 154.208 283.531 151.562C285.719 148.896 288.906 147.562 293.094 147.562C296.552 147.562 299.292 148.656 301.312 150.844C303.354 153.031 304.438 156.021 304.562 159.812H299.344C299.219 157.312 298.615 155.438 297.531 154.188C296.469 152.938 294.99 152.312 293.094 152.312C290.635 152.312 288.812 153.125 287.625 154.75C286.438 156.354 285.823 159 285.781 162.688V167C285.781 170.979 286.365 173.792 287.531 175.438C288.719 177.083 290.583 177.906 293.125 177.906Z" stroke="black" stroke-width="6" mask="url(#path-2-outside-1_3_2)"/>
<path d="M309.781 163.531C309.781 158.615 310.969 154.729 313.344 151.875C315.74 149 318.896 147.562 322.812 147.562C326.729 147.562 329.875 148.958 332.25 151.75C334.646 154.542 335.875 158.344 335.938 163.156V166.719C335.938 171.615 334.75 175.49 332.375 178.344C330 181.198 326.833 182.625 322.875 182.625C318.958 182.625 315.812 181.24 313.438 178.469C311.083 175.698 309.865 171.948 309.781 167.219V163.531ZM315.312 166.719C315.312 170.198 315.99 172.938 317.344 174.938C318.719 176.917 320.562 177.906 322.875 177.906C327.75 177.906 330.26 174.385 330.406 167.344V163.531C330.406 160.073 329.719 157.344 328.344 155.344C326.969 153.323 325.125 152.312 322.812 152.312C320.542 152.312 318.719 153.323 317.344 155.344C315.99 157.344 315.312 160.062 315.312 163.5V166.719Z" stroke="black" stroke-width="6" mask="url(#path-2-outside-1_3_2)"/>
<path d="M348.281 148.188L348.406 151.312C350.469 148.812 353.188 147.562 356.562 147.562C360.333 147.562 362.969 149.198 364.469 152.469C366.594 149.198 369.552 147.562 373.344 147.562C379.573 147.562 382.76 151.448 382.906 159.219V182H377.406V159.75C377.406 157.292 376.969 155.469 376.094 154.281C375.219 153.073 373.74 152.469 371.656 152.469C369.99 152.469 368.635 153.115 367.594 154.406C366.552 155.698 365.948 157.344 365.781 159.344V182H360.219V159.5C360.156 154.812 358.25 152.469 354.5 152.469C351.708 152.469 349.74 153.865 348.594 156.656V182H343.094V148.188H348.281Z" stroke="black" stroke-width="6" mask="url(#path-2-outside-1_3_2)"/>
<path d="M415.688 166.719C415.688 172.073 414.719 176.062 412.781 178.688C410.865 181.312 408.146 182.625 404.625 182.625C401.229 182.625 398.615 181.344 396.781 178.781V195H391.281V148.188H396.281L396.562 151.938C398.417 149.021 401.073 147.562 404.531 147.562C408.24 147.562 411.01 148.854 412.844 151.438C414.677 154.021 415.625 157.885 415.688 163.031V166.719ZM410.188 163.562C410.188 159.771 409.604 156.979 408.438 155.188C407.271 153.375 405.396 152.469 402.812 152.469C400.167 152.469 398.156 153.792 396.781 156.438V174.031C398.135 176.615 400.167 177.906 402.875 177.906C405.375 177.906 407.208 177.01 408.375 175.219C409.562 173.406 410.167 170.646 410.188 166.938V163.562Z" stroke="black" stroke-width="6" mask="url(#path-2-outside-1_3_2)"/>
<path d="M440.062 179.031C438.229 181.427 435.552 182.625 432.031 182.625C428.969 182.625 426.656 181.573 425.094 179.469C423.531 177.344 422.74 174.26 422.719 170.219V148.188H428.219V169.812C428.219 175.083 429.802 177.719 432.969 177.719C436.323 177.719 438.635 176.219 439.906 173.219V148.188H445.438V182H440.188L440.062 179.031Z" stroke="black" stroke-width="6" mask="url(#path-2-outside-1_3_2)"/>
<path d="M461 140V148.188H466.094V152.656H461V173.625C461 174.958 461.219 175.969 461.656 176.656C462.094 177.344 462.844 177.688 463.906 177.688C464.635 177.688 465.375 177.562 466.125 177.312L466.062 182C464.812 182.417 463.531 182.625 462.219 182.625C460.031 182.625 458.365 181.844 457.219 180.281C456.073 178.719 455.5 176.51 455.5 173.656V152.656H450.344V148.188H455.5V140H461Z" stroke="black" stroke-width="6" mask="url(#path-2-outside-1_3_2)"/>
<path d="M490.094 182C489.76 181.271 489.521 180.042 489.375 178.312C487.417 181.188 484.917 182.625 481.875 182.625C478.812 182.625 476.417 181.771 474.688 180.062C472.979 178.333 472.125 175.906 472.125 172.781C472.125 169.344 473.292 166.615 475.625 164.594C477.958 162.573 481.156 161.542 485.219 161.5H489.281V157.906C489.281 155.885 488.833 154.448 487.938 153.594C487.042 152.74 485.677 152.312 483.844 152.312C482.177 152.312 480.823 152.812 479.781 153.812C478.74 154.792 478.219 156.042 478.219 157.562H472.688C472.688 155.833 473.198 154.188 474.219 152.625C475.24 151.042 476.615 149.802 478.344 148.906C480.073 148.01 482 147.562 484.125 147.562C487.583 147.562 490.208 148.427 492 150.156C493.812 151.865 494.74 154.365 494.781 157.656V174.719C494.802 177.323 495.156 179.583 495.844 181.5V182H490.094ZM482.719 177.594C484.073 177.594 485.365 177.219 486.594 176.469C487.823 175.719 488.719 174.781 489.281 173.656V165.594H486.156C483.531 165.635 481.458 166.229 479.938 167.375C478.417 168.5 477.656 170.083 477.656 172.125C477.656 174.042 478.042 175.438 478.812 176.312C479.583 177.167 480.885 177.594 482.719 177.594Z" stroke="black" stroke-width="6" mask="url(#path-2-outside-1_3_2)"/>
<path d="M515.125 177.906C516.958 177.906 518.427 177.344 519.531 176.219C520.635 175.073 521.24 173.448 521.344 171.344H526.562C526.438 174.594 525.281 177.292 523.094 179.438C520.927 181.562 518.271 182.625 515.125 182.625C510.938 182.625 507.74 181.312 505.531 178.688C503.344 176.042 502.25 172.115 502.25 166.906V163.188C502.25 158.083 503.344 154.208 505.531 151.562C507.719 148.896 510.906 147.562 515.094 147.562C518.552 147.562 521.292 148.656 523.312 150.844C525.354 153.031 526.438 156.021 526.562 159.812H521.344C521.219 157.312 520.615 155.438 519.531 154.188C518.469 152.938 516.99 152.312 515.094 152.312C512.635 152.312 510.812 153.125 509.625 154.75C508.438 156.354 507.823 159 507.781 162.688V167C507.781 170.979 508.365 173.792 509.531 175.438C510.719 177.083 512.583 177.906 515.125 177.906ZM515.875 182.281L515.562 183.906C516.812 184.177 517.771 184.781 518.438 185.719C519.104 186.656 519.438 187.854 519.438 189.312C519.438 191.312 518.74 192.906 517.344 194.094C515.969 195.281 513.99 195.875 511.406 195.875L511.219 192.531C513.885 192.531 515.219 191.5 515.219 189.438C515.219 188.5 514.938 187.812 514.375 187.375C513.833 186.958 512.74 186.656 511.094 186.469L511.969 182.281H515.875Z" stroke="black" stroke-width="6" mask="url(#path-2-outside-1_3_2)"/>
<path d="M550.344 182C550.01 181.271 549.771 180.042 549.625 178.312C547.667 181.188 545.167 182.625 542.125 182.625C539.062 182.625 536.667 181.771 534.938 180.062C533.229 178.333 532.375 175.906 532.375 172.781C532.375 169.344 533.542 166.615 535.875 164.594C538.208 162.573 541.406 161.542 545.469 161.5H549.531V157.906C549.531 155.885 549.083 154.448 548.188 153.594C547.292 152.74 545.927 152.312 544.094 152.312C542.427 152.312 541.073 152.812 540.031 153.812C538.99 154.792 538.469 156.042 538.469 157.562H532.938C532.938 155.833 533.448 154.188 534.469 152.625C535.49 151.042 536.865 149.802 538.594 148.906C540.323 148.01 542.25 147.562 544.375 147.562C547.833 147.562 550.458 148.427 552.25 150.156C554.062 151.865 554.99 154.365 555.031 157.656V174.719C555.052 177.323 555.406 179.583 556.094 181.5V182H550.344ZM542.969 177.594C544.323 177.594 545.615 177.219 546.844 176.469C548.073 175.719 548.969 174.781 549.531 173.656V165.594H546.406C543.781 165.635 541.708 166.229 540.188 167.375C538.667 168.5 537.906 170.083 537.906 172.125C537.906 174.042 538.292 175.438 539.062 176.312C539.833 177.167 541.135 177.594 542.969 177.594ZM554.156 135C554.156 137.188 553.615 139 552.531 140.438C551.448 141.854 550.052 142.562 548.344 142.562C547.615 142.562 546.99 142.458 546.469 142.25C545.948 142.021 545.271 141.594 544.438 140.969C543.604 140.323 543 139.938 542.625 139.812C542.25 139.667 541.823 139.594 541.344 139.594C540.635 139.594 540.042 139.927 539.562 140.594C539.104 141.26 538.875 142.094 538.875 143.094L535.281 142.875C535.281 140.604 535.833 138.75 536.938 137.312C538.042 135.875 539.417 135.156 541.062 135.156C541.688 135.156 542.25 135.281 542.75 135.531C543.25 135.76 543.875 136.146 544.625 136.688C545.396 137.229 546.021 137.615 546.5 137.844C546.979 138.052 547.5 138.156 548.062 138.156C548.771 138.156 549.365 137.823 549.844 137.156C550.323 136.469 550.562 135.625 550.562 134.625L554.156 135Z" stroke="black" stroke-width="6" mask="url(#path-2-outside-1_3_2)"/>
<path d="M562.469 163.531C562.469 158.615 563.656 154.729 566.031 151.875C568.427 149 571.583 147.562 575.5 147.562C579.417 147.562 582.562 148.958 584.938 151.75C587.333 154.542 588.562 158.344 588.625 163.156V166.719C588.625 171.615 587.438 175.49 585.062 178.344C582.688 181.198 579.521 182.625 575.562 182.625C571.646 182.625 568.5 181.24 566.125 178.469C563.771 175.698 562.552 171.948 562.469 167.219V163.531ZM568 166.719C568 170.198 568.677 172.938 570.031 174.938C571.406 176.917 573.25 177.906 575.562 177.906C580.438 177.906 582.948 174.385 583.094 167.344V163.531C583.094 160.073 582.406 157.344 581.031 155.344C579.656 153.323 577.812 152.312 575.5 152.312C573.229 152.312 571.406 153.323 570.031 155.344C568.677 157.344 568 160.062 568 163.5V166.719Z" stroke="black" stroke-width="6" mask="url(#path-2-outside-1_3_2)"/>
<defs>
<filter id="filter0_d_3_2" x="0.0093689" y="0.039978" width="623.594" height="126.64" filterUnits="userSpaceOnUse" color-interpolation-filters="sRGB">
<feFlood flood-opacity="0" result="BackgroundImageFix"/>
<feColorMatrix in="SourceAlpha" type="matrix" values="0 0 0 0 0 0 0 0 0 0 0 0 0 0 0 0 0 0 127 0" result="hardAlpha"/>
<feOffset dy="6"/>
<feGaussianBlur stdDeviation="5.5"/>
<feComposite in2="hardAlpha" operator="out"/>
<feColorMatrix type="matrix" values="0 0 0 0 1 0 0 0 0 0 0 0 0 0 1 0 0 0 1 0"/>
<feBlend mode="normal" in2="BackgroundImageFix" result="effect1_dropShadow_3_2"/>
<feBlend mode="normal" in="SourceGraphic" in2="effect1_dropShadow_3_2" result="shape"/>
</filter>
</defs>
</svg>
