<svg width="829" height="361" viewBox="0 0 829 361" fill="none" xmlns="http://www.w3.org/2000/svg">
<rect y="70" width="686" height="216" fill="#050505"/>
<path d="M686 286L809.842 71.5H562.158L686 286Z" fill="#050505"/>
<g filter="url(#filter0_d_1_11)">
<path d="M32.0494 185.08C30.6894 185.08 30.0094 184.44 30.0094 183.16C30.0094 182.68 30.0494 182.36 30.1294 182.2C33.0894 175.72 41.1294 166.04 54.2494 153.16C53.8494 153.24 53.4894 153.32 53.1694 153.4C52.8494 153.4 52.6094 153.4 52.4494 153.4C51.0894 153.4 50.4094 152.64 50.4094 151.12C50.4094 150.24 51.0894 149.68 52.4494 149.44C53.2494 149.28 54.0894 149.16 54.9694 149.08C55.9294 148.92 57.1294 148.68 58.5694 148.36C68.2494 138.28 77.5694 129.64 86.5294 122.44C95.5694 115.16 104.209 109.2 112.449 104.56C113.169 104.16 113.809 103.84 114.369 103.6C114.929 103.28 115.409 103.12 115.809 103.12C116.769 103.12 117.249 103.76 117.249 105.04C117.249 107.44 114.849 115.68 110.049 129.76L104.769 145.24C106.849 145.24 107.889 145.88 107.889 147.16C107.889 148.6 106.529 149.32 103.809 149.32C102.289 153.48 100.849 158.08 99.4894 163.12C98.2094 168.08 97.1294 173.2 96.2494 178.48C95.9294 180.16 95.2094 181 94.0894 181C92.7294 181 92.0494 180.28 92.0494 178.84C92.0494 178.6 92.1294 178.08 92.2894 177.28C92.4494 176.48 92.6894 175.44 93.0094 174.16C93.9694 169.52 94.8094 165.68 95.5294 162.64C96.3294 159.6 97.0094 157.04 97.5694 154.96C98.2094 152.8 98.7694 150.84 99.2494 149.08C84.5294 149.4 71.5694 150.48 60.3694 152.32C57.1694 155.6 54.4894 158.4 52.3294 160.72C50.1694 162.96 48.5694 164.64 47.5294 165.76C42.7294 171.04 38.8894 175.84 36.0094 180.16C35.7694 180.56 35.4894 181.08 35.1694 181.72C34.7694 182.36 34.2894 183.12 33.7294 184C33.4094 184.72 32.8494 185.08 32.0494 185.08ZM65.2894 147.4C69.9294 146.76 75.1694 146.28 81.0094 145.96C86.8494 145.56 93.4094 145.28 100.689 145.12C101.889 141.44 103.089 137.88 104.289 134.44C105.489 130.92 106.649 127.56 107.769 124.36C109.129 120.84 110.929 115.56 113.169 108.52C103.889 113.88 95.2494 119.8 87.2494 126.28C79.3294 132.76 72.0094 139.8 65.2894 147.4ZM157.687 188.68C157.047 188.68 156.247 188.36 155.287 187.72C154.407 187.16 153.727 186.6 153.247 186.04C152.287 184.84 151.647 183.4 151.327 181.72C151.007 180.04 150.847 178.2 150.847 176.2C150.847 174.52 150.887 172.72 150.967 170.8C151.127 168.8 151.367 166.68 151.687 164.44C149.607 166.84 147.247 169.2 144.607 171.52C142.047 173.76 139.407 175.6 136.687 177.04C134.047 178.48 131.527 179.2 129.127 179.2C123.127 179.2 120.127 176 120.127 169.6C120.127 162.96 122.447 156.56 127.087 150.4C129.407 147.36 132.047 144.44 135.007 141.64C137.967 138.84 141.087 136.56 144.367 134.8C147.647 133.04 150.887 132.16 154.087 132.16C156.487 132.16 158.607 133.08 160.447 134.92C160.607 134.6 160.807 134.08 161.047 133.36C161.367 132.64 161.807 131.72 162.367 130.6C164.287 126.44 166.407 122.12 168.727 117.64C171.047 113.08 173.127 109.32 174.967 106.36C177.047 103.08 179.007 101.44 180.847 101.44C182.127 101.44 182.767 102.44 182.767 104.44C182.767 107.88 179.527 115.92 173.047 128.56C172.647 129.28 171.927 130.6 170.887 132.52C169.927 134.36 168.767 136.52 167.407 139C166.127 141.4 164.807 143.8 163.447 146.2C162.087 148.6 160.847 150.76 159.727 152.68C158.687 154.52 157.927 155.8 157.447 156.52C156.567 160.12 155.887 163.56 155.407 166.84C154.927 170.04 154.687 173.36 154.687 176.8C154.687 178.08 154.727 179.24 154.807 180.28C154.967 181.4 155.287 182.28 155.767 182.92C156.167 183.4 156.607 183.76 157.087 184C157.567 184.32 158.127 184.6 158.767 184.84C159.727 185.08 160.207 185.64 160.207 186.52C160.207 187.96 159.367 188.68 157.687 188.68ZM163.327 138.52C166.367 133.32 169.047 128.48 171.367 124C173.687 119.44 175.567 115.16 177.007 111.16C173.807 115.32 171.127 119.72 168.967 124.36C166.807 129 164.927 133.72 163.327 138.52ZM128.287 175.6C130.607 175.6 133.047 174.84 135.607 173.32C138.247 171.72 140.727 169.84 143.047 167.68C145.127 165.76 147.047 163.8 148.807 161.8C150.567 159.72 152.207 157.6 153.727 155.44C154.367 152.64 155.087 149.88 155.887 147.16C156.767 144.44 157.727 141.72 158.767 139C157.487 137 155.687 136 153.367 136C150.967 136 148.287 136.92 145.327 138.76C142.447 140.52 139.647 142.72 136.927 145.36C134.287 148 132.007 150.52 130.087 152.92C126.087 158.28 124.087 163.96 124.087 169.96C124.087 173.72 125.487 175.6 128.287 175.6ZM174.243 179.2C169.603 179.2 167.283 177 167.283 172.6C167.283 169.72 167.963 166.64 169.323 163.36C170.763 160 172.683 156.76 175.083 153.64C177.483 150.44 180.163 147.56 183.123 145C186.083 142.36 189.123 140.28 192.243 138.76C195.363 137.16 198.363 136.36 201.243 136.36C206.363 136.36 208.923 138.88 208.923 143.92C208.923 147.2 208.123 148.84 206.523 148.84C205.083 148.84 204.363 148.16 204.363 146.8C204.363 146.24 204.483 145.68 204.723 145.12C205.043 144.48 205.203 143.8 205.203 143.08C205.203 140.84 203.683 139.72 200.643 139.72C195.763 139.72 189.643 143.44 182.283 150.88C180.523 152.72 178.803 154.88 177.123 157.36C175.443 159.84 174.043 162.36 172.923 164.92C171.883 167.4 171.363 169.76 171.363 172C171.363 174.16 172.563 175.24 174.963 175.24C177.043 175.24 179.243 174.6 181.563 173.32C183.963 172.04 186.043 170.72 187.803 169.36C191.323 166.72 194.923 163.12 198.603 158.56C199.163 157.92 199.883 157.08 200.763 156.04C201.643 155 202.643 153.84 203.763 152.56C204.163 152.16 204.643 151.96 205.203 151.96C206.483 151.96 207.123 152.6 207.123 153.88L202.563 160.72C199.523 165.2 198.003 168.88 198.003 171.76C198.003 173.84 199.003 174.88 201.003 174.88C202.683 174.88 204.523 174.44 206.523 173.56C208.523 172.68 210.163 171.8 211.443 170.92C214.003 169.24 216.683 167.16 219.483 164.68C222.283 162.12 224.963 159.56 227.523 157C227.843 156.68 228.323 156.52 228.963 156.52C230.163 156.52 230.763 157 230.763 157.96C230.763 158.84 230.203 159.84 229.083 160.96C225.883 164.16 223.003 166.92 220.443 169.24C217.883 171.48 215.443 173.32 213.123 174.76C211.603 175.64 209.723 176.56 207.483 177.52C205.243 178.48 202.683 178.96 199.803 178.96C195.883 178.96 193.923 176.88 193.923 172.72C193.923 171.12 194.123 169.8 194.523 168.76C187.243 175.72 180.483 179.2 174.243 179.2ZM253.237 183.16C252.677 183.16 252.037 182.88 251.317 182.32C250.597 181.76 250.237 181.16 250.237 180.52C250.237 179.8 251.037 177.96 252.637 175C254.237 172.04 256.797 167.6 260.317 161.68C263.837 155.76 268.437 148.08 274.117 138.64L289.837 112.36C290.717 110.76 291.797 108.88 293.077 106.72C294.357 104.56 295.917 102 297.757 99.04C298.237 98.32 298.757 97.96 299.317 97.96C299.877 97.96 300.437 98.24 300.997 98.8C301.557 99.28 301.837 99.8 301.837 100.36C301.837 100.68 299.837 104.24 295.837 111.04C291.837 117.76 285.797 127.8 277.717 141.16C274.677 146.2 271.357 151.76 267.757 157.84C264.237 163.92 260.477 170.52 256.477 177.64C279.677 171.4 297.517 168.28 309.997 168.28C313.757 168.28 316.877 168.92 319.357 170.2C321.917 171.4 323.197 172.6 323.197 173.8C323.197 175.16 322.517 175.84 321.157 175.84C320.037 175.84 319.477 175.24 319.477 174.04V173.68C318.677 173.28 317.317 172.96 315.397 172.72C313.477 172.48 311.277 172.36 308.797 172.36C305.757 172.36 302.317 172.64 298.477 173.2C294.637 173.68 290.717 174.32 286.717 175.12C282.797 175.84 279.117 176.6 275.677 177.4C272.317 178.12 269.117 178.88 266.077 179.68C263.117 180.56 260.357 181.32 257.797 181.96C256.277 182.28 255.157 182.56 254.437 182.8C253.797 183.04 253.397 183.16 253.237 183.16ZM341.811 177.4C335.331 177.4 332.091 173.76 332.091 166.48C332.091 163.12 332.891 159.6 334.491 155.92C336.091 152.24 338.211 148.84 340.851 145.72C343.491 142.52 346.411 139.92 349.611 137.92C352.891 135.92 356.211 134.92 359.571 134.92C362.531 134.92 364.691 136.04 366.051 138.28C367.411 140.52 368.091 143 368.091 145.72C368.091 149.32 367.371 153 365.931 156.76C364.491 160.44 362.531 163.84 360.051 166.96C357.571 170.08 354.771 172.6 351.651 174.52C348.531 176.44 345.251 177.4 341.811 177.4ZM341.691 173.56C342.171 173.56 342.451 173.52 342.531 173.44C345.651 173.04 348.531 171.92 351.171 170.08C353.811 168.24 356.091 165.96 358.011 163.24C360.011 160.44 361.531 157.44 362.571 154.24C363.611 151.04 364.131 147.88 364.131 144.76C364.131 142.92 363.611 141.48 362.571 140.44C361.531 139.4 360.211 138.88 358.611 138.88C356.291 138.88 353.811 139.84 351.171 141.76C348.611 143.68 346.171 146.12 343.851 149.08C341.611 152.04 339.771 155.16 338.331 158.44C336.891 161.64 336.171 164.52 336.171 167.08C336.171 171.4 338.011 173.56 341.691 173.56ZM379.012 179.2C378.052 179.2 377.572 178.84 377.572 178.12C376.292 175.88 375.652 171.28 375.652 164.32C375.652 162.64 375.772 160.4 376.012 157.6C376.252 154.8 376.572 151.88 376.972 148.84C377.372 145.8 377.812 143.04 378.292 140.56C378.772 138 379.292 136.16 379.852 135.04C380.332 134.08 380.932 133.6 381.652 133.6C382.932 133.6 383.572 134.12 383.572 135.16C383.572 135.72 383.492 136.28 383.332 136.84C383.172 137.32 383.012 137.92 382.852 138.64C381.812 142.64 380.972 146.88 380.332 151.36C379.772 155.84 379.492 160.44 379.492 165.16C379.492 167.32 379.572 169.24 379.732 170.92C379.972 172.6 380.212 174.04 380.452 175.24C382.692 174.36 385.172 172.64 387.892 170.08C390.612 167.44 393.252 164.52 395.812 161.32C397.892 158.68 399.772 156 401.452 153.28C403.212 150.56 404.572 148 405.532 145.6C406.572 143.2 407.092 141.24 407.092 139.72C407.092 138.68 406.972 137.96 406.732 137.56C406.572 137.16 406.372 136.84 406.132 136.6C405.892 136.36 405.772 135.92 405.772 135.28C405.772 134.08 406.372 133.48 407.572 133.48C408.372 133.48 409.092 134.08 409.732 135.28C410.372 136.48 410.692 138 410.692 139.84C410.692 145.52 406.732 153.48 398.812 163.72C390.652 174.04 384.052 179.2 379.012 179.2ZM422.841 180.16C419.481 180.16 416.841 179 414.921 176.68C413.001 174.36 412.041 171.52 412.041 168.16C412.041 162.4 413.961 156.48 417.801 150.4C418.841 148.72 420.041 147.08 421.401 145.48C422.761 143.8 424.241 142.2 425.841 140.68C428.241 138.36 430.761 136.44 433.401 134.92C436.041 133.4 438.601 132.64 441.081 132.64C445.161 132.64 447.201 134.56 447.201 138.4C447.201 143.2 444.401 147.56 438.801 151.48C433.601 155 428.481 156.76 423.441 156.76C422.561 156.76 421.761 156.72 421.041 156.64C420.401 156.48 419.801 156.32 419.241 156.16C418.441 157.68 417.721 159.64 417.081 162.04C416.441 164.44 416.121 166.52 416.121 168.28C416.121 173.56 418.441 176.2 423.081 176.2C426.841 176.2 430.401 175.56 433.761 174.28C437.121 172.92 441.121 170.4 445.761 166.72C448.641 164.48 450.801 162.68 452.241 161.32C453.681 159.96 455.241 158.52 456.921 157C457.401 156.68 457.841 156.52 458.241 156.52C458.641 156.52 459.041 156.64 459.441 156.88C459.841 157.12 460.041 157.48 460.041 157.96C460.041 158.84 459.241 160.08 457.641 161.68C456.281 162.96 454.841 164.32 453.321 165.76C451.801 167.12 449.401 169.04 446.121 171.52C442.601 174.24 438.761 176.36 434.601 177.88C430.441 179.4 426.521 180.16 422.841 180.16ZM422.721 152.92C425.281 152.92 427.721 152.52 430.041 151.72C432.361 150.92 434.561 149.76 436.641 148.24C441.281 144.8 443.601 141.56 443.601 138.52C443.601 137.16 442.761 136.48 441.081 136.48C437.881 136.48 434.161 138.44 429.921 142.36C427.841 144.28 426.121 146.04 424.761 147.64C423.481 149.16 422.281 150.84 421.161 152.68C421.641 152.84 422.161 152.92 422.721 152.92ZM466.108 181.24C462.428 181.24 459.588 180.12 457.588 177.88C455.668 175.56 454.708 172.52 454.708 168.76C454.708 166.04 455.188 162.76 456.148 158.92C457.828 152.44 460.668 144.92 464.668 136.36C467.788 129.88 471.148 123.52 474.748 117.28C478.348 110.96 482.308 104.76 486.628 98.68C493.508 88.92 498.308 84.04 501.028 84.04C502.788 84.04 503.668 84.52 503.668 85.48C503.668 86.84 501.428 90.24 496.948 95.68L488.548 105.88C481.268 114.68 475.308 123.68 470.668 132.88C466.108 142.08 462.548 151.28 459.988 160.48C459.268 163.12 458.908 165.6 458.908 167.92C458.908 174 461.388 177.04 466.348 177.04C468.108 177.04 469.908 176.52 471.748 175.48C473.588 174.52 474.588 174.04 474.748 174.04C475.708 174.04 476.188 174.72 476.188 176.08C476.188 177.28 475.748 178.2 474.868 178.84C472.148 180.44 469.228 181.24 466.108 181.24ZM488.54 179.2C483.9 179.2 481.58 177 481.58 172.6C481.58 169.72 482.26 166.64 483.62 163.36C485.06 160 486.98 156.76 489.38 153.64C491.78 150.44 494.46 147.56 497.42 145C500.38 142.36 503.42 140.28 506.54 138.76C509.66 137.16 512.66 136.36 515.54 136.36C520.66 136.36 523.22 138.88 523.22 143.92C523.22 147.2 522.42 148.84 520.82 148.84C519.38 148.84 518.66 148.16 518.66 146.8C518.66 146.24 518.78 145.68 519.02 145.12C519.34 144.48 519.5 143.8 519.5 143.08C519.5 140.84 517.98 139.72 514.94 139.72C510.06 139.72 503.94 143.44 496.58 150.88C494.82 152.72 493.1 154.88 491.42 157.36C489.74 159.84 488.34 162.36 487.22 164.92C486.18 167.4 485.66 169.76 485.66 172C485.66 174.16 486.86 175.24 489.26 175.24C491.34 175.24 493.54 174.6 495.86 173.32C498.26 172.04 500.34 170.72 502.1 169.36C505.62 166.72 509.22 163.12 512.9 158.56C513.46 157.92 514.18 157.08 515.06 156.04C515.94 155 516.94 153.84 518.06 152.56C518.46 152.16 518.94 151.96 519.5 151.96C520.78 151.96 521.42 152.6 521.42 153.88L516.86 160.72C513.82 165.2 512.3 168.88 512.3 171.76C512.3 173.84 513.3 174.88 515.3 174.88C516.98 174.88 518.82 174.44 520.82 173.56C522.82 172.68 524.46 171.8 525.74 170.92C528.3 169.24 530.98 167.16 533.78 164.68C536.58 162.12 539.26 159.56 541.82 157C542.14 156.68 542.62 156.52 543.26 156.52C544.46 156.52 545.06 157 545.06 157.96C545.06 158.84 544.5 159.84 543.38 160.96C540.18 164.16 537.3 166.92 534.74 169.24C532.18 171.48 529.74 173.32 527.42 174.76C525.9 175.64 524.02 176.56 521.78 177.52C519.54 178.48 516.98 178.96 514.1 178.96C510.18 178.96 508.22 176.88 508.22 172.72C508.22 171.12 508.42 169.8 508.82 168.76C501.54 175.72 494.78 179.2 488.54 179.2ZM552.632 179.68C548.392 179.68 545.072 178.44 542.672 175.96C540.272 173.48 539.072 170.16 539.072 166C539.072 158.8 542.472 150.96 549.272 142.48C552.792 138.16 556.352 134.88 559.952 132.64C563.632 130.32 567.072 129.16 570.272 129.16C573.072 129.16 575.232 130.12 576.752 132.04C578.272 133.96 579.032 136.36 579.032 139.24C579.032 141 578.792 142.8 578.312 144.64C577.992 145.92 577.352 146.56 576.392 146.56C574.872 146.56 574.112 145.72 574.112 144.04C574.112 143.32 574.232 142.4 574.472 141.28C574.792 140.08 574.952 138.92 574.952 137.8C574.952 134.6 573.392 133 570.272 133C568.592 133 566.552 133.6 564.152 134.8C561.832 136 559.512 137.6 557.192 139.6C554.872 141.52 552.832 143.72 551.072 146.2C545.712 153.48 543.032 160 543.032 165.76C543.032 172.4 546.032 175.72 552.032 175.72C555.792 175.72 559.392 175.16 562.832 174.04C566.272 172.84 570.312 170.4 574.952 166.72C577.832 164.48 579.992 162.68 581.432 161.32C582.872 159.96 584.432 158.52 586.112 157C586.592 156.68 587.032 156.52 587.432 156.52C587.832 156.52 588.232 156.64 588.632 156.88C589.032 157.12 589.232 157.48 589.232 157.96C589.232 158.84 588.432 160.08 586.832 161.68C585.472 162.96 584.032 164.32 582.512 165.76C580.992 167.12 578.592 169.04 575.312 171.52C571.792 174.24 568.032 176.28 564.032 177.64C560.112 179 556.312 179.68 552.632 179.68ZM594.403 180.16C591.043 180.16 588.403 179 586.483 176.68C584.563 174.36 583.603 171.52 583.603 168.16C583.603 162.4 585.523 156.48 589.363 150.4C590.403 148.72 591.603 147.08 592.963 145.48C594.323 143.8 595.803 142.2 597.403 140.68C599.803 138.36 602.323 136.44 604.963 134.92C607.603 133.4 610.163 132.64 612.643 132.64C616.723 132.64 618.763 134.56 618.763 138.4C618.763 143.2 615.963 147.56 610.363 151.48C605.163 155 600.043 156.76 595.003 156.76C594.123 156.76 593.323 156.72 592.603 156.64C591.963 156.48 591.363 156.32 590.803 156.16C590.003 157.68 589.283 159.64 588.643 162.04C588.003 164.44 587.683 166.52 587.683 168.28C587.683 173.56 590.003 176.2 594.643 176.2C598.403 176.2 601.963 175.56 605.323 174.28C608.683 172.92 612.683 170.4 617.323 166.72C620.203 164.48 622.363 162.68 623.803 161.32C625.243 159.96 626.803 158.52 628.483 157C628.963 156.68 629.403 156.52 629.803 156.52C630.203 156.52 630.603 156.64 631.003 156.88C631.403 157.12 631.603 157.48 631.603 157.96C631.603 158.84 630.803 160.08 629.203 161.68C627.843 162.96 626.403 164.32 624.883 165.76C623.363 167.12 620.963 169.04 617.683 171.52C614.163 174.24 610.323 176.36 606.163 177.88C602.003 179.4 598.083 180.16 594.403 180.16ZM594.283 152.92C596.843 152.92 599.283 152.52 601.603 151.72C603.923 150.92 606.123 149.76 608.203 148.24C612.843 144.8 615.163 141.56 615.163 138.52C615.163 137.16 614.323 136.48 612.643 136.48C609.443 136.48 605.723 138.44 601.483 142.36C599.403 144.28 597.683 146.04 596.323 147.64C595.043 149.16 593.843 150.84 592.723 152.68C593.203 152.84 593.723 152.92 594.283 152.92Z" fill="white"/>
</g>
<path d="M70.125 249.125H54.75L51.2188 261H45.3438L60 215.5H64.9062L79.5938 261H73.7188L70.125 249.125ZM56.25 244.188H68.6562L62.4375 223.5L56.25 244.188ZM104.906 227.188L105.031 230.312C107.094 227.812 109.812 226.562 113.188 226.562C116.958 226.562 119.594 228.198 121.094 231.469C123.219 228.198 126.177 226.562 129.969 226.562C136.198 226.562 139.385 230.448 139.531 238.219V261H134.031V238.75C134.031 236.292 133.594 234.469 132.719 233.281C131.844 232.073 130.365 231.469 128.281 231.469C126.615 231.469 125.26 232.115 124.219 233.406C123.177 234.698 122.573 236.344 122.406 238.344V261H116.844V238.5C116.781 233.812 114.875 231.469 111.125 231.469C108.333 231.469 106.365 232.865 105.219 235.656V261H99.7188V227.188H104.906ZM165.281 261C164.948 260.271 164.708 259.042 164.562 257.312C162.604 260.188 160.104 261.625 157.062 261.625C154 261.625 151.604 260.771 149.875 259.062C148.167 257.333 147.312 254.906 147.312 251.781C147.312 248.344 148.479 245.615 150.812 243.594C153.146 241.573 156.344 240.542 160.406 240.5H164.469V236.906C164.469 234.885 164.021 233.448 163.125 232.594C162.229 231.74 160.865 231.312 159.031 231.312C157.365 231.312 156.01 231.812 154.969 232.812C153.927 233.792 153.406 235.042 153.406 236.562H147.875C147.875 234.833 148.385 233.188 149.406 231.625C150.427 230.042 151.802 228.802 153.531 227.906C155.26 227.01 157.188 226.562 159.312 226.562C162.771 226.562 165.396 227.427 167.188 229.156C169 230.865 169.927 233.365 169.969 236.656V253.719C169.99 256.323 170.344 258.583 171.031 260.5V261H165.281ZM157.906 256.594C159.26 256.594 160.552 256.219 161.781 255.469C163.01 254.719 163.906 253.781 164.469 252.656V244.594H161.344C158.719 244.635 156.646 245.229 155.125 246.375C153.604 247.5 152.844 249.083 152.844 251.125C152.844 253.042 153.229 254.438 154 255.312C154.771 256.167 156.073 256.594 157.906 256.594ZM169.094 214C169.094 216.188 168.552 218 167.469 219.438C166.385 220.854 164.99 221.562 163.281 221.562C162.552 221.562 161.927 221.458 161.406 221.25C160.885 221.021 160.208 220.594 159.375 219.969C158.542 219.323 157.938 218.938 157.562 218.812C157.188 218.667 156.76 218.594 156.281 218.594C155.573 218.594 154.979 218.927 154.5 219.594C154.042 220.26 153.812 221.094 153.812 222.094L150.219 221.875C150.219 219.604 150.771 217.75 151.875 216.312C152.979 214.875 154.354 214.156 156 214.156C156.625 214.156 157.188 214.281 157.688 214.531C158.188 214.76 158.812 215.146 159.562 215.688C160.333 216.229 160.958 216.615 161.438 216.844C161.917 217.052 162.438 217.156 163 217.156C163.708 217.156 164.302 216.823 164.781 216.156C165.26 215.469 165.5 214.625 165.5 213.625L169.094 214ZM190.656 261.625C186.448 261.625 183.219 260.375 180.969 257.875C178.719 255.354 177.573 251.667 177.531 246.812V242.719C177.531 237.677 178.625 233.729 180.812 230.875C183.021 228 186.094 226.562 190.031 226.562C193.99 226.562 196.948 227.823 198.906 230.344C200.865 232.865 201.865 236.792 201.906 242.125V245.75H183.031V246.531C183.031 250.156 183.708 252.792 185.062 254.438C186.438 256.083 188.406 256.906 190.969 256.906C192.594 256.906 194.021 256.604 195.25 256C196.5 255.375 197.667 254.396 198.75 253.062L201.625 256.562C199.229 259.938 195.573 261.625 190.656 261.625ZM190.031 231.312C187.74 231.312 186.042 232.104 184.938 233.688C183.833 235.25 183.208 237.688 183.062 241H196.375V240.25C196.229 237.042 195.646 234.75 194.625 233.375C193.625 232 192.094 231.312 190.031 231.312ZM222.094 242.562C222.094 237.354 223.062 233.385 225 230.656C226.958 227.927 229.76 226.562 233.406 226.562C236.635 226.562 239.156 227.875 240.969 230.5V213H246.5V261H241.438L241.156 257.375C239.344 260.208 236.75 261.625 233.375 261.625C229.875 261.625 227.125 260.271 225.125 257.562C223.146 254.833 222.135 250.99 222.094 246.031V242.562ZM227.625 245.719C227.625 249.51 228.188 252.302 229.312 254.094C230.438 255.865 232.271 256.75 234.812 256.75C237.562 256.75 239.615 255.365 240.969 252.594V235.531C239.552 232.823 237.51 231.469 234.844 231.469C232.302 231.469 230.469 232.365 229.344 234.156C228.219 235.927 227.646 238.656 227.625 242.344V245.719ZM272.406 261C272.073 260.271 271.833 259.042 271.688 257.312C269.729 260.188 267.229 261.625 264.188 261.625C261.125 261.625 258.729 260.771 257 259.062C255.292 257.333 254.438 254.906 254.438 251.781C254.438 248.344 255.604 245.615 257.938 243.594C260.271 241.573 263.469 240.542 267.531 240.5H271.594V236.906C271.594 234.885 271.146 233.448 270.25 232.594C269.354 231.74 267.99 231.312 266.156 231.312C264.49 231.312 263.135 231.812 262.094 232.812C261.052 233.792 260.531 235.042 260.531 236.562H255C255 234.833 255.51 233.188 256.531 231.625C257.552 230.042 258.927 228.802 260.656 227.906C262.385 227.01 264.312 226.562 266.438 226.562C269.896 226.562 272.521 227.427 274.312 229.156C276.125 230.865 277.052 233.365 277.094 236.656V253.719C277.115 256.323 277.469 258.583 278.156 260.5V261H272.406ZM265.031 256.594C266.385 256.594 267.677 256.219 268.906 255.469C270.135 254.719 271.031 253.781 271.594 252.656V244.594H268.469C265.844 244.635 263.771 245.229 262.25 246.375C260.729 247.5 259.969 249.083 259.969 251.125C259.969 253.042 260.354 254.438 261.125 255.312C261.896 256.167 263.198 256.594 265.031 256.594ZM312.125 256.906C313.958 256.906 315.427 256.344 316.531 255.219C317.635 254.073 318.24 252.448 318.344 250.344H323.562C323.438 253.594 322.281 256.292 320.094 258.438C317.927 260.562 315.271 261.625 312.125 261.625C307.938 261.625 304.74 260.312 302.531 257.688C300.344 255.042 299.25 251.115 299.25 245.906V242.188C299.25 237.083 300.344 233.208 302.531 230.562C304.719 227.896 307.906 226.562 312.094 226.562C315.552 226.562 318.292 227.656 320.312 229.844C322.354 232.031 323.438 235.021 323.562 238.812H318.344C318.219 236.312 317.615 234.438 316.531 233.188C315.469 231.938 313.99 231.312 312.094 231.312C309.635 231.312 307.812 232.125 306.625 233.75C305.438 235.354 304.823 238 304.781 241.688V246C304.781 249.979 305.365 252.792 306.531 254.438C307.719 256.083 309.583 256.906 312.125 256.906ZM328.781 242.531C328.781 237.615 329.969 233.729 332.344 230.875C334.74 228 337.896 226.562 341.812 226.562C345.729 226.562 348.875 227.958 351.25 230.75C353.646 233.542 354.875 237.344 354.938 242.156V245.719C354.938 250.615 353.75 254.49 351.375 257.344C349 260.198 345.833 261.625 341.875 261.625C337.958 261.625 334.812 260.24 332.438 257.469C330.083 254.698 328.865 250.948 328.781 246.219V242.531ZM334.312 245.719C334.312 249.198 334.99 251.938 336.344 253.938C337.719 255.917 339.562 256.906 341.875 256.906C346.75 256.906 349.26 253.385 349.406 246.344V242.531C349.406 239.073 348.719 236.344 347.344 234.344C345.969 232.323 344.125 231.312 341.812 231.312C339.542 231.312 337.719 232.323 336.344 234.344C334.99 236.344 334.312 239.062 334.312 242.5V245.719ZM367.281 227.188L367.406 230.312C369.469 227.812 372.188 226.562 375.562 226.562C379.333 226.562 381.969 228.198 383.469 231.469C385.594 228.198 388.552 226.562 392.344 226.562C398.573 226.562 401.76 230.448 401.906 238.219V261H396.406V238.75C396.406 236.292 395.969 234.469 395.094 233.281C394.219 232.073 392.74 231.469 390.656 231.469C388.99 231.469 387.635 232.115 386.594 233.406C385.552 234.698 384.948 236.344 384.781 238.344V261H379.219V238.5C379.156 233.812 377.25 231.469 373.5 231.469C370.708 231.469 368.74 232.865 367.594 235.656V261H362.094V227.188H367.281ZM434.688 245.719C434.688 251.073 433.719 255.062 431.781 257.688C429.865 260.312 427.146 261.625 423.625 261.625C420.229 261.625 417.615 260.344 415.781 257.781V274H410.281V227.188H415.281L415.562 230.938C417.417 228.021 420.073 226.562 423.531 226.562C427.24 226.562 430.01 227.854 431.844 230.438C433.677 233.021 434.625 236.885 434.688 242.031V245.719ZM429.188 242.562C429.188 238.771 428.604 235.979 427.438 234.188C426.271 232.375 424.396 231.469 421.812 231.469C419.167 231.469 417.156 232.792 415.781 235.438V253.031C417.135 255.615 419.167 256.906 421.875 256.906C424.375 256.906 426.208 256.01 427.375 254.219C428.562 252.406 429.167 249.646 429.188 245.938V242.562ZM459.062 258.031C457.229 260.427 454.552 261.625 451.031 261.625C447.969 261.625 445.656 260.573 444.094 258.469C442.531 256.344 441.74 253.26 441.719 249.219V227.188H447.219V248.812C447.219 254.083 448.802 256.719 451.969 256.719C455.323 256.719 457.635 255.219 458.906 252.219V227.188H464.438V261H459.188L459.062 258.031ZM480 219V227.188H485.094V231.656H480V252.625C480 253.958 480.219 254.969 480.656 255.656C481.094 256.344 481.844 256.688 482.906 256.688C483.635 256.688 484.375 256.562 485.125 256.312L485.062 261C483.812 261.417 482.531 261.625 481.219 261.625C479.031 261.625 477.365 260.844 476.219 259.281C475.073 257.719 474.5 255.51 474.5 252.656V231.656H469.344V227.188H474.5V219H480ZM509.094 261C508.76 260.271 508.521 259.042 508.375 257.312C506.417 260.188 503.917 261.625 500.875 261.625C497.812 261.625 495.417 260.771 493.688 259.062C491.979 257.333 491.125 254.906 491.125 251.781C491.125 248.344 492.292 245.615 494.625 243.594C496.958 241.573 500.156 240.542 504.219 240.5H508.281V236.906C508.281 234.885 507.833 233.448 506.938 232.594C506.042 231.74 504.677 231.312 502.844 231.312C501.177 231.312 499.823 231.812 498.781 232.812C497.74 233.792 497.219 235.042 497.219 236.562H491.688C491.688 234.833 492.198 233.188 493.219 231.625C494.24 230.042 495.615 228.802 497.344 227.906C499.073 227.01 501 226.562 503.125 226.562C506.583 226.562 509.208 227.427 511 229.156C512.812 230.865 513.74 233.365 513.781 236.656V253.719C513.802 256.323 514.156 258.583 514.844 260.5V261H509.094ZM501.719 256.594C503.073 256.594 504.365 256.219 505.594 255.469C506.823 254.719 507.719 253.781 508.281 252.656V244.594H505.156C502.531 244.635 500.458 245.229 498.938 246.375C497.417 247.5 496.656 249.083 496.656 251.125C496.656 253.042 497.042 254.438 497.812 255.312C498.583 256.167 499.885 256.594 501.719 256.594ZM534.125 256.906C535.958 256.906 537.427 256.344 538.531 255.219C539.635 254.073 540.24 252.448 540.344 250.344H545.562C545.438 253.594 544.281 256.292 542.094 258.438C539.927 260.562 537.271 261.625 534.125 261.625C529.938 261.625 526.74 260.312 524.531 257.688C522.344 255.042 521.25 251.115 521.25 245.906V242.188C521.25 237.083 522.344 233.208 524.531 230.562C526.719 227.896 529.906 226.562 534.094 226.562C537.552 226.562 540.292 227.656 542.312 229.844C544.354 232.031 545.438 235.021 545.562 238.812H540.344C540.219 236.312 539.615 234.438 538.531 233.188C537.469 231.938 535.99 231.312 534.094 231.312C531.635 231.312 529.812 232.125 528.625 233.75C527.438 235.354 526.823 238 526.781 241.688V246C526.781 249.979 527.365 252.792 528.531 254.438C529.719 256.083 531.583 256.906 534.125 256.906ZM534.875 261.281L534.562 262.906C535.812 263.177 536.771 263.781 537.438 264.719C538.104 265.656 538.438 266.854 538.438 268.312C538.438 270.312 537.74 271.906 536.344 273.094C534.969 274.281 532.99 274.875 530.406 274.875L530.219 271.531C532.885 271.531 534.219 270.5 534.219 268.438C534.219 267.5 533.938 266.812 533.375 266.375C532.833 265.958 531.74 265.656 530.094 265.469L530.969 261.281H534.875ZM569.344 261C569.01 260.271 568.771 259.042 568.625 257.312C566.667 260.188 564.167 261.625 561.125 261.625C558.062 261.625 555.667 260.771 553.938 259.062C552.229 257.333 551.375 254.906 551.375 251.781C551.375 248.344 552.542 245.615 554.875 243.594C557.208 241.573 560.406 240.542 564.469 240.5H568.531V236.906C568.531 234.885 568.083 233.448 567.188 232.594C566.292 231.74 564.927 231.312 563.094 231.312C561.427 231.312 560.073 231.812 559.031 232.812C557.99 233.792 557.469 235.042 557.469 236.562H551.938C551.938 234.833 552.448 233.188 553.469 231.625C554.49 230.042 555.865 228.802 557.594 227.906C559.323 227.01 561.25 226.562 563.375 226.562C566.833 226.562 569.458 227.427 571.25 229.156C573.062 230.865 573.99 233.365 574.031 236.656V253.719C574.052 256.323 574.406 258.583 575.094 260.5V261H569.344ZM561.969 256.594C563.323 256.594 564.615 256.219 565.844 255.469C567.073 254.719 567.969 253.781 568.531 252.656V244.594H565.406C562.781 244.635 560.708 245.229 559.188 246.375C557.667 247.5 556.906 249.083 556.906 251.125C556.906 253.042 557.292 254.438 558.062 255.312C558.833 256.167 560.135 256.594 561.969 256.594ZM573.156 214C573.156 216.188 572.615 218 571.531 219.438C570.448 220.854 569.052 221.562 567.344 221.562C566.615 221.562 565.99 221.458 565.469 221.25C564.948 221.021 564.271 220.594 563.438 219.969C562.604 219.323 562 218.938 561.625 218.812C561.25 218.667 560.823 218.594 560.344 218.594C559.635 218.594 559.042 218.927 558.562 219.594C558.104 220.26 557.875 221.094 557.875 222.094L554.281 221.875C554.281 219.604 554.833 217.75 555.938 216.312C557.042 214.875 558.417 214.156 560.062 214.156C560.688 214.156 561.25 214.281 561.75 214.531C562.25 214.76 562.875 215.146 563.625 215.688C564.396 216.229 565.021 216.615 565.5 216.844C565.979 217.052 566.5 217.156 567.062 217.156C567.771 217.156 568.365 216.823 568.844 216.156C569.323 215.469 569.562 214.625 569.562 213.625L573.156 214ZM581.469 242.531C581.469 237.615 582.656 233.729 585.031 230.875C587.427 228 590.583 226.562 594.5 226.562C598.417 226.562 601.562 227.958 603.938 230.75C606.333 233.542 607.562 237.344 607.625 242.156V245.719C607.625 250.615 606.438 254.49 604.062 257.344C601.688 260.198 598.521 261.625 594.562 261.625C590.646 261.625 587.5 260.24 585.125 257.469C582.771 254.698 581.552 250.948 581.469 246.219V242.531ZM587 245.719C587 249.198 587.677 251.938 589.031 253.938C590.406 255.917 592.25 256.906 594.562 256.906C599.438 256.906 601.948 253.385 602.094 246.344V242.531C602.094 239.073 601.406 236.344 600.031 234.344C598.656 232.323 596.812 231.312 594.5 231.312C592.229 231.312 590.406 232.323 589.031 234.344C587.677 236.344 587 239.062 587 242.5V245.719Z" fill="white"/>
<defs>
<filter id="filter0_d_1_11" x="19.0094" y="79.04" width="623.594" height="126.64" filterUnits="userSpaceOnUse" color-interpolation-filters="sRGB">
<feFlood flood-opacity="0" result="BackgroundImageFix"/>
<feColorMatrix in="SourceAlpha" type="matrix" values="0 0 0 0 0 0 0 0 0 0 0 0 0 0 0 0 0 0 127 0" result="hardAlpha"/>
<feOffset dy="6"/>
<feGaussianBlur stdDeviation="5.5"/>
<feComposite in2="hardAlpha" operator="out"/>
<feColorMatrix type="matrix" values="0 0 0 0 1 0 0 0 0 0 0 0 0 0 1 0 0 0 1 0"/>
<feBlend mode="normal" in2="BackgroundImageFix" result="effect1_dropShadow_1_11"/>
<feBlend mode="normal" in="SourceGraphic" in2="effect1_dropShadow_1_11" result="shape"/>
</filter>
</defs>
</svg>
